  0
SECTION
  2
HEADER
  9
$ACADVER
  1
AC1009
  9
$DWGCODEPAGE
  3
ansi_1252
  9
$INSBASE
 10
0.0
 20
0.0
 30
0.0
  9
$EXTMIN
 10
0.0
 20
0.0
 30
0.0
  9
$EXTMAX
 10
17.0
 20
11.0
 30
0.0
  9
$LIMMIN
 10
0.0
 20
0.0
  9
$LIMMAX
 10
17.0
 20
11.0
  9
$ORTHOMODE
 70
     0
  9
$REGENMODE
 70
     1
  9
$FILLMODE
 70
     1
  9
$QTEXTMODE
 70
     0
  9
$MIRRTEXT
 70
     1
  9
$DRAGMODE
 70
     2
  9
$LTSCALE
 40
1.0
  9
$OSMODE
 70
    37
  9
$ATTMODE
 70
     1
  9
$TEXTSIZE
 40
0.125
  9
$TRACEWID
 40
0.05
  9
$TEXTSTYLE
  7
STANDARD
  9
$CLAYER
  8
0
  9
$CELTYPE
  6
BYLAYER
  9
$CECOLOR
 62
   256
  9
$DIMSCALE
 40
1.0
  9
$DIMASZ
 40
0.13
  9
$DIMEXO
 40
0.05
  9
$DIMDLI
 40
0.38
  9
$DIMRND
 40
0.0
  9
$DIMDLE
 40
0.0
  9
$DIMEXE
 40
0.125
  9
$DIMTP
 40
0.0
  9
$DIMTM
 40
0.0
  9
$DIMTXT
 40
0.125
  9
$DIMCEN
 40
0.09
  9
$DIMTSZ
 40
0.0
  9
$DIMTOL
 70
     0
  9
$DIMLIM
 70
     0
  9
$DIMTIH
 70
     1
  9
$DIMTOH
 70
     1
  9
$DIMSE1
 70
     0
  9
$DIMSE2
 70
     0
  9
$DIMTAD
 70
     0
  9
$DIMZIN
 70
     0
  9
$DIMBLK
  1

  9
$DIMASO
 70
     1
  9
$DIMSHO
 70
     1
  9
$DIMPOST
  1

  9
$DIMAPOST
  1

  9
$DIMALT
 70
     0
  9
$DIMALTD
 70
     2
  9
$DIMALTF
 40
25.4
  9
$DIMLFAC
 40
0.5
  9
$DIMTOFL
 70
     0
  9
$DIMTVP
 40
0.0
  9
$DIMTIX
 70
     0
  9
$DIMSOXD
 70
     0
  9
$DIMSAH
 70
     0
  9
$DIMBLK1
  1

  9
$DIMBLK2
  1

  9
$DIMSTYLE
  2
STANDARD
  9
$DIMCLRD
 70
     0
  9
$DIMCLRE
 70
     0
  9
$DIMCLRT
 70
     0
  9
$DIMTFAC
 40
1.0
  9
$DIMGAP
 40
0.06
  9
$LUNITS
 70
     2
  9
$LUPREC
 70
     2
  9
$SKETCHINC
 40
0.1
  9
$FILLETRAD
 40
0.5
  9
$AUNITS
 70
     0
  9
$AUPREC
 70
     2
  9
$MENU
  1
.
  9
$ELEVATION
 40
0.0
  9
$PELEVATION
 40
0.0
  9
$THICKNESS
 40
0.0
  9
$LIMCHECK
 70
     0
  9
$CHAMFERA
 40
0.0
  9
$CHAMFERB
 40
0.0
  9
$SKPOLY
 70
     0
  9
$TDCREATE
 40
2458079.47938919
  9
$TDUPDATE
 40
2458079.479391493
  9
$TDINDWG
 40
0.0000000116
  9
$TDUSRTIMER
 40
0.0000000116
  9
$USRTIMER
 70
     1
  9
$ANGBASE
 50
0.0
  9
$ANGDIR
 70
     0
  9
$PDMODE
 70
     0
  9
$PDSIZE
 40
-1.0
  9
$PLINEWID
 40
0.0
  9
$COORDS
 70
     1
  9
$SPLFRAME
 70
     0
  9
$SPLINETYPE
 70
     6
  9
$SPLINESEGS
 70
     8
  9
$ATTDIA
 70
     0
  9
$ATTREQ
 70
     1
  9
$HANDLING
 70
     1
  9
$HANDSEED
  5
28E
  9
$SURFTAB1
 70
     6
  9
$SURFTAB2
 70
     6
  9
$SURFTYPE
 70
     6
  9
$SURFU
 70
     6
  9
$SURFV
 70
     6
  9
$UCSNAME
  2

  9
$UCSORG
 10
0.0
 20
0.0
 30
0.0
  9
$UCSXDIR
 10
1.0
 20
0.0
 30
0.0
  9
$UCSYDIR
 10
0.0
 20
1.0
 30
0.0
  9
$PUCSNAME
  2

  9
$PUCSORG
 10
0.0
 20
0.0
 30
0.0
  9
$PUCSXDIR
 10
1.0
 20
0.0
 30
0.0
  9
$PUCSYDIR
 10
0.0
 20
1.0
 30
0.0
  9
$USERI1
 70
     0
  9
$USERI2
 70
     0
  9
$USERI3
 70
     0
  9
$USERI4
 70
     0
  9
$USERI5
 70
     0
  9
$USERR1
 40
0.0
  9
$USERR2
 40
0.0
  9
$USERR3
 40
0.0
  9
$USERR4
 40
0.0
  9
$USERR5
 40
0.0
  9
$WORLDVIEW
 70
     1
  9
$SHADEDGE
 70
     3
  9
$SHADEDIF
 70
    70
  9
$TILEMODE
 70
     1
  9
$MAXACTVP
 70
    64
  9
$PLIMCHECK
 70
     0
  9
$PEXTMIN
 10
1.0000000000E+20
 20
1.0000000000E+20
 30
1.0000000000E+20
  9
$PEXTMAX
 10
-1.0000000000E+20
 20
-1.0000000000E+20
 30
-1.0000000000E+20
  9
$PLIMMIN
 10
0.0
 20
0.0
  9
$PLIMMAX
 10
12.0
 20
9.0
  9
$UNITMODE
 70
     0
  9
$VISRETAIN
 70
     1
  9
$PLINEGEN
 70
     0
  9
$PSLTSCALE
 70
     1
  0
ENDSEC
  0
SECTION
  2
TABLES
  0
TABLE
  2
VPORT
 70
     1
  0
VPORT
  2
*ACTIVE
 70
     0
 10
0.0
 20
0.0
 11
1.0
 21
1.0
 12
8.5
 22
5.5
 13
0.0
 23
0.0
 14
0.5
 24
0.5
 15
0.5
 25
0.5
 16
0.0
 26
0.0
 36
1.0
 17
0.0
 27
0.0
 37
0.0
 40
11.0
 41
1.5454545455
 42
50.0
 43
0.0
 44
0.0
 50
0.0
 51
0.0
 71
     0
 72
  2000
 73
     1
 74
     3
 75
     0
 76
     0
 77
     0
 78
     0
  0
ENDTAB
  0
TABLE
  2
LTYPE
 70
     6
  0
LTYPE
  2
CONTINUOUS
 70
     0
  3
Solid line
 72
    65
 73
     0
 40
0.0
  0
LTYPE
  2
HIDDEN
 70
     0
  3
Hidden __ __ __ __ __ __ __ __ __ __ __ __ __ __
 72
    65
 73
     2
 40
0.075
 49
0.05
 49
-0.025
  0
LTYPE
  2
PHANTOM
 70
     0
  3
Phantom ______  __  __  ______  __  __  ______
 72
    65
 73
     6
 40
0.5
 49
0.25
 49
-0.05
 49
0.05
 49
-0.05
 49
0.05
 49
-0.05
  0
LTYPE
  2
CENTER
 70
     0
  3
Center ____ _ ____ _ ____ _ ____ _ ____ _ ____
 72
    65
 73
     4
 40
0.4
 49
0.25
 49
-0.05
 49
0.05
 49
-0.05
  0
LTYPE
  2
CENTERX2
 70
     0
  3
Center (2x) ________  __  ________  __  _____
 72
    65
 73
     4
 40
0.8
 49
0.5
 49
-0.1
 49
0.1
 49
-0.1
  0
LTYPE
  2
DOT2
 70
     0
  3
Dot (.5x) ........................................
 72
    65
 73
     2
 40
0.025
 49
0.0
 49
-0.025
  0
ENDTAB
  0
TABLE
  2
LAYER
 70
     2
  0
LAYER
  2
0
 70
     0
 62
     7
  6
CONTINUOUS
  0
LAYER
  2
FORMAT
 70
     0
 62
     7
  6
CONTINUOUS
  0
ENDTAB
  0
TABLE
  2
STYLE
 70
     1
  0
STYLE
  2
STANDARD
 70
     0
 40
0.0
 41
1.0
 50
0.0
 71
     0
 42
0.125
  3
txt
  4

  0
ENDTAB
  0
TABLE
  2
VIEW
 70
     0
  0
ENDTAB
  0
TABLE
  2
UCS
 70
     0
  0
ENDTAB
  0
TABLE
  2
APPID
 70
     1
  0
APPID
  2
ACAD
 70
     0
  0
ENDTAB
  0
TABLE
  2
DIMSTYLE
 70
     1
  0
DIMSTYLE
  2
STANDARD
 70
     0
  3

  4

  5

  6

  7

 40
1.0
 41
0.18
 42
0.0625
 43
0.38
 44
0.18
 45
0.0
 46
0.0
 47
0.0
 48
0.0
140
0.18
141
0.09
142
0.0
143
25.4
144
1.0
145
0.0
146
1.0
147
0.09
 71
     0
 72
     0
 73
     1
 74
     1
 75
     0
 76
     0
 77
     0
 78
     0
170
     0
171
     2
172
     0
173
     0
174
     0
175
     0
176
     0
177
     0
178
     0
  0
ENDTAB
  0
ENDSEC
  0
SECTION
  2
BLOCKS
  0
BLOCK
  8
0
  2
$MODEL_SPACE
 70
     0
 10
0.0
 20
0.0
 30
0.0
  3
$MODEL_SPACE
  1

  0
ENDBLK
  5
21
  8
0
  0
BLOCK
 67
     1
  8
0
  2
$PAPER_SPACE
 70
     0
 10
0.0
 20
0.0
 30
0.0
  3
$PAPER_SPACE
  1

  0
ENDBLK
  5
1D
 67
     1
  8
0
  0
BLOCK
  8
0
  2
SW_NOTE_0
 70
     0
 10
0.0
 20
0.0
 30
0.0
  3
SW_NOTE_0
  1

  0
TEXT
  5
E7
  8
0
  6
CONTINUOUS
 62
     0
 10
0.0
 20
0.0323292371
 30
0.0
 40
0.0625
  1
DO NOT SCALE
 41
0.6416666667
 11
0.0
 21
0.0
 31
0.0
 73
     1
  0
TEXT
  5
E8
  8
0
  6
CONTINUOUS
 62
     0
 10
0.0974392577
 20
-0.0510040952
 30
0.0
 40
0.0625
  1
DRAWING
 41
0.7
 11
0.0974392577
 21
-0.0833333323
 31
0.0
 73
     1
  0
ENDBLK
  5
E6
  8
0
  0
BLOCK
  8
0
  2
SW_NOTE_1
 70
     0
 10
0.0
 20
0.0
 30
0.0
  3
SW_NOTE_1
  1

  0
TEXT
  5
ED
  8
0
  6
CONTINUOUS
 62
     0
 10
0.0
 20
0.0310360676
 30
0.0
 40
0.06
  1
800 HEINZ AVENUE SUITE 11
 41
0.644
 11
0.0
 21
0.0
 31
0.0
 73
     1
  0
TEXT
  5
EE
  8
0
  6
CONTINUOUS
 62
     0
 10
0.0
 20
-0.0683340069
 30
0.0
 40
0.06
  1
BERKELEY CA 94710 USA
 41
0.65
 11
0.0
 21
-0.0993700746
 31
0.0
 73
     1
  0
TEXT
  5
EF
  8
0
  6
CONTINUOUS
 62
     0
 10
0.0
 20
-0.1677040815
 30
0.0
 40
0.06
  1
TEL: (510) 549-2853
 41
0.6631578947
 11
0.0
 21
-0.1987401491
 31
0.0
 73
     1
  0
TEXT
  5
F0
  8
0
  6
CONTINUOUS
 62
     0
 10
0.0
 20
-0.2670741561
 30
0.0
 40
0.06
  1
FAX: (510) 549-9157
 41
0.6631578947
 11
0.0
 21
-0.2981102237
 31
0.0
 73
     1
  0
TEXT
  5
F1
  8
0
  6
CONTINUOUS
 62
     0
 10
0.0
 20
-0.3664442306
 30
0.0
 40
0.06
  1
info@elocktech.com
 41
0.7
 11
0.0
 21
-0.3974802983
 31
0.0
 73
     1
  0
ENDBLK
  5
EC
  8
0
  0
BLOCK
  8
0
  2
SW_NOTE_2
 70
     0
 10
0.0
 20
0.0
 30
0.0
  3
SW_NOTE_2
  1

  0
TEXT
  5
F6
  8
0
  6
CONTINUOUS
 62
     0
 10
0.0
 20
0.0336224066
 30
0.0
 40
0.065
  1
DIMENSIONS ARE IN INCHES
 41
0.65625
 11
0.0
 21
0.0
 31
0.0
 73
     1
  0
TEXT
  5
F7
  8
0
  6
CONTINUOUS
 62
     0
 10
0.0
 20
-0.0707476694
 30
0.0
 40
0.065
  1
TOLERANCES
 41
0.7
 11
0.0
 21
-0.104370076
 31
0.0
 73
     1
  0
TEXT
  5
F8
  8
0
  6
CONTINUOUS
 62
     0
 10
0.5280572965
 20
-0.0707476694
 30
0.0
 40
0.065
  1
:
 41
0.7
 11
0.5280572965
 21
-0.104370076
 31
0.0
 73
     1
  0
TEXT
  5
F9
  8
0
  6
CONTINUOUS
 62
     0
 10
0.0
 20
-0.1553741643
 30
0.0
 40
0.0625
  1
INCH
 41
0.7
 11
0.0
 21
-0.1877034014
 31
0.0
 73
     1
  0
TEXT
  5
FA
  8
0
  6
CONTINUOUS
 62
     0
 10
0.0
 20
-0.2387074966
 30
0.0
 40
0.0625
  1
X.X = 
 41
0.5833333333
 11
0.0
 21
-0.2710367338
 31
0.0
 73
     1
  0
TEXT
  5
FB
  8
0
  6
CONTINUOUS
 62
     0
 10
0.2167968805
 20
-0.2387074966
 30
0.0
 40
0.0625
  1
%%p
 41
0.7
 11
0.2167968805
 21
-0.2710367338
 31
0.0
 73
     1
  0
TEXT
  5
FC
  8
0
  6
CONTINUOUS
 62
     0
 10
0.2763802039
 20
-0.2387074966
 30
0.0
 40
0.0625
  1
.1
 41
0.7
 11
0.2763802039
 21
-0.2710367338
 31
0.0
 73
     1
  0
TEXT
  5
FD
  8
0
  6
CONTINUOUS
 62
     0
 10
0.0
 20
-0.322040829
 30
0.0
 40
0.0625
  1
X.XX = 
 41
0.6
 11
0.0
 21
-0.3543700661
 31
0.0
 73
     1
  0
TEXT
  5
FE
  8
0
  6
CONTINUOUS
 62
     0
 10
0.2668113411
 20
-0.322040829
 30
0.0
 40
0.0625
  1
%%p
 41
0.7
 11
0.2668113411
 21
-0.3543700661
 31
0.0
 73
     1
  0
TEXT
  5
FF
  8
0
  6
CONTINUOUS
 62
     0
 10
0.3263946828
 20
-0.322040829
 30
0.0
 40
0.0625
  1
.01
 41
0.7
 11
0.3263946828
 21
-0.3543700661
 31
0.0
 73
     1
  0
TEXT
  5
100
  8
0
  6
CONTINUOUS
 62
     0
 10
0.0
 20
-0.4053741613
 30
0.0
 40
0.0625
  1
X.XXX= 
 41
0.7
 11
0.0
 21
-0.4377033984
 31
0.0
 73
     1
  0
TEXT
  5
101
  8
0
  6
CONTINUOUS
 62
     0
 10
0.2937934061
 20
-0.4053741613
 30
0.0
 40
0.0625
  1
%%p
 41
0.7
 11
0.2937934061
 21
-0.4377033984
 31
0.0
 73
     1
  0
TEXT
  5
102
  8
0
  6
CONTINUOUS
 62
     0
 10
0.3533767478
 20
-0.4053741613
 30
0.0
 40
0.0625
  1
.005
 41
0.7
 11
0.3533767478
 21
-0.4377033984
 31
0.0
 73
     1
  0
TEXT
  5
103
  8
0
  6
CONTINUOUS
 62
     0
 10
0.0
 20
-0.5084510746
 30
0.0
 40
0.065
  1
ANGLES
 41
0.7
 11
0.0
 21
-0.5420734813
 31
0.0
 73
     1
  0
TEXT
  5
104
  8
0
  6
CONTINUOUS
 62
     0
 10
0.0
 20
-0.6128211506
 30
0.0
 40
0.065
  1
X
 41
0.7
 11
0.0
 21
-0.6464435572
 31
0.0
 73
     1
  0
TEXT
  5
105
  8
0
  6
CONTINUOUS
 62
     0
 10
0.0521015627
 20
-0.6128211506
 30
0.0
 40
0.065
  1
%%d
 41
0.7
 11
0.0521015627
 21
-0.6464435572
 31
0.0
 73
     1
  0
TEXT
  5
106
  8
0
  6
CONTINUOUS
 62
     0
 10
0.0933765646
 20
-0.6128211506
 30
0.0
 40
0.065
  1
 = 
 41
0.4666666667
 11
0.0933765646
 21
-0.6464435572
 31
0.0
 73
     1
  0
TEXT
  5
107
  8
0
  6
CONTINUOUS
 62
     0
 10
0.1927385451
 20
-0.6128211506
 30
0.0
 40
0.065
  1
%%p
 41
0.7
 11
0.1927385451
 21
-0.6464435572
 31
0.0
 73
     1
  0
TEXT
  5
108
  8
0
  6
CONTINUOUS
 62
     0
 10
0.2546510549
 20
-0.6128211506
 30
0.0
 40
0.065
  1
3
 41
0.7
 11
0.2546510549
 21
-0.6464435572
 31
0.0
 73
     1
  0
TEXT
  5
109
  8
0
  6
CONTINUOUS
 62
     0
 10
0.301877616
 20
-0.6128211506
 30
0.0
 40
0.065
  1
%%d
 41
0.7
 11
0.301877616
 21
-0.6464435572
 31
0.0
 73
     1
  0
TEXT
  5
10A
  8
0
  6
CONTINUOUS
 62
     0
 10
0.0
 20
-0.7171912266
 30
0.0
 40
0.065
  1
X.X
 41
0.7
 11
0.0
 21
-0.7508136332
 31
0.0
 73
     1
  0
TEXT
  5
10B
  8
0
  6
CONTINUOUS
 62
     0
 10
0.1265130218
 20
-0.7171912266
 30
0.0
 40
0.065
  1
%%d
 41
0.7
 11
0.1265130218
 21
-0.7508136332
 31
0.0
 73
     1
  0
TEXT
  5
10C
  8
0
  6
CONTINUOUS
 62
     0
 10
0.1677880284
 20
-0.7171912266
 30
0.0
 40
0.065
  1
 = 
 41
0.4666666667
 11
0.1677880284
 21
-0.7508136332
 31
0.0
 73
     1
  0
TEXT
  5
10D
  8
0
  6
CONTINUOUS
 62
     0
 10
0.2671500089
 20
-0.7171912266
 30
0.0
 40
0.065
  1
%%p
 41
0.7
 11
0.2671500089
 21
-0.7508136332
 31
0.0
 73
     1
  0
TEXT
  5
10E
  8
0
  6
CONTINUOUS
 62
     0
 10
0.3290625186
 20
-0.7171912266
 30
0.0
 40
0.065
  1
1.0
 41
0.7
 11
0.3290625186
 21
-0.7508136332
 31
0.0
 73
     1
  0
TEXT
  5
10F
  8
0
  6
CONTINUOUS
 62
     0
 10
0.4427335188
 20
-0.7171912266
 30
0.0
 40
0.065
  1
%%d
 41
0.7
 11
0.4427335188
 21
-0.7508136332
 31
0.0
 73
     1
  0
TEXT
  5
110
  8
0
  6
CONTINUOUS
 62
     0
 10
0.0
 20
-0.8215613026
 30
0.0
 40
0.065
  1
X.XX
 41
0.7
 11
0.0
 21
-0.8551837092
 31
0.0
 73
     1
  0
TEXT
  5
111
  8
0
  6
CONTINUOUS
 62
     0
 10
0.17861458
 20
-0.8215613026
 30
0.0
 40
0.065
  1
%%d
 41
0.7
 11
0.17861458
 21
-0.8551837092
 31
0.0
 73
     1
  0
TEXT
  5
112
  8
0
  6
CONTINUOUS
 62
     0
 10
0.2198895865
 20
-0.8215613026
 30
0.0
 40
0.065
  1
 = 
 41
0.4666666667
 11
0.2198895865
 21
-0.8551837092
 31
0.0
 73
     1
  0
TEXT
  5
113
  8
0
  6
CONTINUOUS
 62
     0
 10
0.3192515853
 20
-0.8215613026
 30
0.0
 40
0.065
  1
%%p
 41
0.7
 11
0.3192515853
 21
-0.8551837092
 31
0.0
 73
     1
  0
TEXT
  5
114
  8
0
  6
CONTINUOUS
 62
     0
 10
0.3811640768
 20
-0.8215613026
 30
0.0
 40
0.065
  1
.5
 41
0.7
 11
0.3811640768
 21
-0.8551837092
 31
0.0
 73
     1
  0
TEXT
  5
115
  8
0
  6
CONTINUOUS
 62
     0
 10
0.4505876848
 20
-0.8215613026
 30
0.0
 40
0.065
  1
%%d
 41
0.7
 11
0.4505876848
 21
-0.8551837092
 31
0.0
 73
     1
  0
TEXT
  5
116
  8
0
  6
CONTINUOUS
 62
     0
 10
0.0
 20
-0.9061877975
 30
0.0
 40
0.0625
  1
HOLES FOR PEM FSTNRS: 
 41
0.6363636364
 11
0.0
 21
-0.9385170346
 31
0.0
 73
     1
  0
TEXT
  5
117
  8
0
  6
CONTINUOUS
 62
     0
 10
0.0
 20
-0.9895211298
 30
0.0
 40
0.0625
  1
+.003"/-.000"
 41
0.7
 11
0.0
 21
-1.021850367
 31
0.0
 73
     1
  0
ENDBLK
  5
F5
  8
0
  0
BLOCK
  8
0
  2
SW_NOTE_3
 70
     0
 10
0.0
 20
0.0
 30
0.0
  3
SW_NOTE_3
  1

  0
TEXT
  5
122
  8
0
  6
CONTINUOUS
 62
     0
 10
0.0
 20
0.0310360676
 30
0.0
 40
0.06
  1
This drawing and the information contained herein is 
 41
0.6471698113
 11
0.0
 21
0.0
 31
0.0
 73
     1
  0
TEXT
  5
123
  8
0
  6
CONTINUOUS
 62
     0
 10
0.0
 20
-0.0683340069
 30
0.0
 40
0.06
  1
the property of eLock Technologies LLC and shall not 
 41
0.6405660377
 11
0.0
 21
-0.0993700746
 31
0.0
 73
     1
  0
TEXT
  5
124
  8
0
  6
CONTINUOUS
 62
     0
 10
0.0
 20
-0.1677040815
 30
0.0
 40
0.06
  1
be used for any purpose without our written consent.
 41
0.6461538462
 11
0.0
 21
-0.1987401491
 31
0.0
 73
     1
  0
ENDBLK
  5
121
  8
0
  0
BLOCK
  8
0
  2
SW_CENTERMARKSYMBOL_0
 70
     0
 10
0.0
 20
0.0
 30
0.0
  3
SW_CENTERMARKSYMBOL_0
  1

  0
LINE
  5
15D
  8
0
  6
CONTINUOUS
 62
     0
 10
0.0
 20
0.0
 30
0.0
 11
0.0
 21
0.2
 31
0.0
  0
LINE
  5
15E
  8
0
  6
CONTINUOUS
 62
     0
 10
0.0
 20
0.0
 30
0.0
 11
-0.2
 21
0.0
 31
0.0
  0
LINE
  5
15F
  8
0
  6
CONTINUOUS
 62
     0
 10
0.0
 20
0.0
 30
0.0
 11
0.0
 21
-0.2
 31
0.0
  0
LINE
  5
160
  8
0
  6
CONTINUOUS
 62
     0
 10
0.0
 20
0.0
 30
0.0
 11
0.2
 21
0.0
 31
0.0
  0
LINE
  5
161
  8
0
  6
CONTINUOUS
 62
     0
 10
0.0
 20
0.2
 30
0.0
 11
0.0
 21
0.2787401575
 31
0.0
  0
LINE
  5
162
  8
0
  6
CONTINUOUS
 62
     0
 10
-0.2
 20
0.0
 30
0.0
 11
-0.2787401575
 21
0.0
 31
0.0
  0
LINE
  5
163
  8
0
  6
CONTINUOUS
 62
     0
 10
0.0
 20
-0.2
 30
0.0
 11
0.0
 21
-0.2787401575
 31
0.0
  0
LINE
  5
164
  8
0
  6
CONTINUOUS
 62
     0
 10
0.2
 20
0.0
 30
0.0
 11
0.2787401575
 21
0.0
 31
0.0
  0
ENDBLK
  5
15C
  8
0
  0
BLOCK
  8
0
  2
SW_CENTERMARKSYMBOL_1
 70
     0
 10
0.0
 20
0.0
 30
0.0
  3
SW_CENTERMARKSYMBOL_1
  1

  0
LINE
  5
169
  8
0
  6
CONTINUOUS
 62
     0
 10
0.0
 20
0.0
 30
0.0
 11
0.0
 21
0.2
 31
0.0
  0
LINE
  5
16A
  8
0
  6
CONTINUOUS
 62
     0
 10
0.0
 20
0.0
 30
0.0
 11
-0.2
 21
0.0
 31
0.0
  0
LINE
  5
16B
  8
0
  6
CONTINUOUS
 62
     0
 10
0.0
 20
0.0
 30
0.0
 11
0.0
 21
-0.2
 31
0.0
  0
LINE
  5
16C
  8
0
  6
CONTINUOUS
 62
     0
 10
0.0
 20
0.0
 30
0.0
 11
0.2
 21
0.0
 31
0.0
  0
LINE
  5
16D
  8
0
  6
CONTINUOUS
 62
     0
 10
0.0
 20
0.2
 30
0.0
 11
0.0
 21
0.2787401575
 31
0.0
  0
LINE
  5
16E
  8
0
  6
CONTINUOUS
 62
     0
 10
-0.2
 20
0.0
 30
0.0
 11
-0.2787401575
 21
0.0
 31
0.0
  0
LINE
  5
16F
  8
0
  6
CONTINUOUS
 62
     0
 10
0.0
 20
-0.2
 30
0.0
 11
0.0
 21
-0.2787401575
 31
0.0
  0
LINE
  5
170
  8
0
  6
CONTINUOUS
 62
     0
 10
0.2
 20
0.0
 30
0.0
 11
0.2787401575
 21
0.0
 31
0.0
  0
ENDBLK
  5
168
  8
0
  0
BLOCK
  8
0
  2
SW_CENTERMARKSYMBOL_2
 70
     0
 10
0.0
 20
0.0
 30
0.0
  3
SW_CENTERMARKSYMBOL_2
  1

  0
LINE
  5
175
  8
0
  6
CONTINUOUS
 62
     0
 10
0.0
 20
0.0
 30
0.0
 11
0.0
 21
0.2
 31
0.0
  0
LINE
  5
176
  8
0
  6
CONTINUOUS
 62
     0
 10
0.0
 20
0.0
 30
0.0
 11
-0.2
 21
0.0
 31
0.0
  0
LINE
  5
177
  8
0
  6
CONTINUOUS
 62
     0
 10
0.0
 20
0.0
 30
0.0
 11
0.0
 21
-0.2
 31
0.0
  0
LINE
  5
178
  8
0
  6
CONTINUOUS
 62
     0
 10
0.0
 20
0.0
 30
0.0
 11
0.2
 21
0.0
 31
0.0
  0
LINE
  5
179
  8
0
  6
CONTINUOUS
 62
     0
 10
0.0
 20
0.2
 30
0.0
 11
0.0
 21
0.2669291339
 31
0.0
  0
LINE
  5
17A
  8
0
  6
CONTINUOUS
 62
     0
 10
-0.2
 20
0.0
 30
0.0
 11
-0.2669291339
 21
0.0
 31
0.0
  0
LINE
  5
17B
  8
0
  6
CONTINUOUS
 62
     0
 10
0.0
 20
-0.2
 30
0.0
 11
0.0
 21
-0.2669291339
 31
0.0
  0
LINE
  5
17C
  8
0
  6
CONTINUOUS
 62
     0
 10
0.2
 20
0.0
 30
0.0
 11
0.2669291339
 21
0.0
 31
0.0
  0
ENDBLK
  5
174
  8
0
  0
BLOCK
  8
0
  2
SW_CENTERMARKSYMBOL_3
 70
     0
 10
0.0
 20
0.0
 30
0.0
  3
SW_CENTERMARKSYMBOL_3
  1

  0
LINE
  5
181
  8
0
  6
CONTINUOUS
 62
     0
 10
0.0
 20
0.0
 30
0.0
 11
0.0
 21
0.2
 31
0.0
  0
LINE
  5
182
  8
0
  6
CONTINUOUS
 62
     0
 10
0.0
 20
0.0
 30
0.0
 11
-0.2
 21
0.0
 31
0.0
  0
LINE
  5
183
  8
0
  6
CONTINUOUS
 62
     0
 10
0.0
 20
0.0
 30
0.0
 11
0.0
 21
-0.2
 31
0.0
  0
LINE
  5
184
  8
0
  6
CONTINUOUS
 62
     0
 10
0.0
 20
0.0
 30
0.0
 11
0.2
 21
0.0
 31
0.0
  0
LINE
  5
185
  8
0
  6
CONTINUOUS
 62
     0
 10
0.0
 20
0.2
 30
0.0
 11
0.0
 21
0.2669291339
 31
0.0
  0
LINE
  5
186
  8
0
  6
CONTINUOUS
 62
     0
 10
-0.2
 20
0.0
 30
0.0
 11
-0.2669291339
 21
0.0
 31
0.0
  0
LINE
  5
187
  8
0
  6
CONTINUOUS
 62
     0
 10
0.0
 20
-0.2
 30
0.0
 11
0.0
 21
-0.2669291339
 31
0.0
  0
LINE
  5
188
  8
0
  6
CONTINUOUS
 62
     0
 10
0.2
 20
0.0
 30
0.0
 11
0.2669291339
 21
0.0
 31
0.0
  0
ENDBLK
  5
180
  8
0
  0
BLOCK
  8
0
  2
SW_CENTERMARKSYMBOL_4
 70
     0
 10
0.0
 20
0.0
 30
0.0
  3
SW_CENTERMARKSYMBOL_4
  1

  0
LINE
  5
18D
  8
0
  6
CONTINUOUS
 62
     0
 10
0.0
 20
0.0
 30
0.0
 11
0.0
 21
0.2
 31
0.0
  0
LINE
  5
18E
  8
0
  6
CONTINUOUS
 62
     0
 10
0.0
 20
0.0
 30
0.0
 11
-0.2
 21
0.0
 31
0.0
  0
LINE
  5
18F
  8
0
  6
CONTINUOUS
 62
     0
 10
0.0
 20
0.0
 30
0.0
 11
0.0
 21
-0.2
 31
0.0
  0
LINE
  5
190
  8
0
  6
CONTINUOUS
 62
     0
 10
0.0
 20
0.0
 30
0.0
 11
0.2
 21
0.0
 31
0.0
  0
LINE
  5
191
  8
0
  6
CONTINUOUS
 62
     0
 10
0.0
 20
0.2
 30
0.0
 11
0.0
 21
0.2590551181
 31
0.0
  0
LINE
  5
192
  8
0
  6
CONTINUOUS
 62
     0
 10
-0.2
 20
0.0
 30
0.0
 11
-0.2590551181
 21
0.0
 31
0.0
  0
LINE
  5
193
  8
0
  6
CONTINUOUS
 62
     0
 10
0.0
 20
-0.2
 30
0.0
 11
0.0
 21
-0.2590551181
 31
0.0
  0
LINE
  5
194
  8
0
  6
CONTINUOUS
 62
     0
 10
0.2
 20
0.0
 30
0.0
 11
0.2590551181
 21
0.0
 31
0.0
  0
ENDBLK
  5
18C
  8
0
  0
BLOCK
  8
0
  2
SW_CENTERMARKSYMBOL_5
 70
     0
 10
0.0
 20
0.0
 30
0.0
  3
SW_CENTERMARKSYMBOL_5
  1

  0
LINE
  5
199
  8
0
  6
CONTINUOUS
 62
     0
 10
0.0
 20
0.0
 30
0.0
 11
0.0
 21
0.2
 31
0.0
  0
LINE
  5
19A
  8
0
  6
CONTINUOUS
 62
     0
 10
0.0
 20
0.0
 30
0.0
 11
-0.2
 21
0.0
 31
0.0
  0
LINE
  5
19B
  8
0
  6
CONTINUOUS
 62
     0
 10
0.0
 20
0.0
 30
0.0
 11
0.0
 21
-0.2
 31
0.0
  0
LINE
  5
19C
  8
0
  6
CONTINUOUS
 62
     0
 10
0.0
 20
0.0
 30
0.0
 11
0.2
 21
0.0
 31
0.0
  0
LINE
  5
19D
  8
0
  6
CONTINUOUS
 62
     0
 10
0.0
 20
0.2
 30
0.0
 11
0.0
 21
0.2787401575
 31
0.0
  0
LINE
  5
19E
  8
0
  6
CONTINUOUS
 62
     0
 10
-0.2
 20
0.0
 30
0.0
 11
-0.2787401575
 21
0.0
 31
0.0
  0
LINE
  5
19F
  8
0
  6
CONTINUOUS
 62
     0
 10
0.0
 20
-0.2
 30
0.0
 11
0.0
 21
-0.2787401575
 31
0.0
  0
LINE
  5
1A0
  8
0
  6
CONTINUOUS
 62
     0
 10
0.2
 20
0.0
 30
0.0
 11
0.2787401575
 21
0.0
 31
0.0
  0
ENDBLK
  5
198
  8
0
  0
BLOCK
  8
0
  2
SW_CENTERMARKSYMBOL_6
 70
     0
 10
0.0
 20
0.0
 30
0.0
  3
SW_CENTERMARKSYMBOL_6
  1

  0
LINE
  5
1A5
  8
0
  6
CONTINUOUS
 62
     0
 10
0.0
 20
0.0
 30
0.0
 11
0.0
 21
0.2
 31
0.0
  0
LINE
  5
1A6
  8
0
  6
CONTINUOUS
 62
     0
 10
0.0
 20
0.0
 30
0.0
 11
-0.2
 21
0.0
 31
0.0
  0
LINE
  5
1A7
  8
0
  6
CONTINUOUS
 62
     0
 10
0.0
 20
0.0
 30
0.0
 11
0.0
 21
-0.2
 31
0.0
  0
LINE
  5
1A8
  8
0
  6
CONTINUOUS
 62
     0
 10
0.0
 20
0.0
 30
0.0
 11
0.2
 21
0.0
 31
0.0
  0
LINE
  5
1A9
  8
0
  6
CONTINUOUS
 62
     0
 10
0.0
 20
0.2
 30
0.0
 11
0.0
 21
0.2590551181
 31
0.0
  0
LINE
  5
1AA
  8
0
  6
CONTINUOUS
 62
     0
 10
-0.2
 20
0.0
 30
0.0
 11
-0.2590551181
 21
0.0
 31
0.0
  0
LINE
  5
1AB
  8
0
  6
CONTINUOUS
 62
     0
 10
0.0
 20
-0.2
 30
0.0
 11
0.0
 21
-0.2590551181
 31
0.0
  0
LINE
  5
1AC
  8
0
  6
CONTINUOUS
 62
     0
 10
0.2
 20
0.0
 30
0.0
 11
0.2590551181
 21
0.0
 31
0.0
  0
ENDBLK
  5
1A4
  8
0
  0
BLOCK
  8
0
  2
SW_CENTERMARKSYMBOL_7
 70
     0
 10
0.0
 20
0.0
 30
0.0
  3
SW_CENTERMARKSYMBOL_7
  1

  0
LINE
  5
1E9
  8
0
  6
CONTINUOUS
 62
     0
 10
0.0
 20
0.0
 30
0.0
 11
0.0
 21
0.2
 31
0.0
  0
LINE
  5
1EA
  8
0
  6
CONTINUOUS
 62
     0
 10
0.0
 20
0.0
 30
0.0
 11
-0.2
 21
0.0
 31
0.0
  0
LINE
  5
1EB
  8
0
  6
CONTINUOUS
 62
     0
 10
0.0
 20
0.0
 30
0.0
 11
0.0
 21
-0.2
 31
0.0
  0
LINE
  5
1EC
  8
0
  6
CONTINUOUS
 62
     0
 10
0.0
 20
0.0
 30
0.0
 11
0.2
 21
0.0
 31
0.0
  0
LINE
  5
1ED
  8
0
  6
CONTINUOUS
 62
     0
 10
0.0
 20
0.2
 30
0.0
 11
0.0
 21
0.2787401575
 31
0.0
  0
LINE
  5
1EE
  8
0
  6
CONTINUOUS
 62
     0
 10
-0.2
 20
0.0
 30
0.0
 11
-0.2787401575
 21
0.0
 31
0.0
  0
LINE
  5
1EF
  8
0
  6
CONTINUOUS
 62
     0
 10
0.0
 20
-0.2
 30
0.0
 11
0.0
 21
-0.2787401575
 31
0.0
  0
LINE
  5
1F0
  8
0
  6
CONTINUOUS
 62
     0
 10
0.2
 20
0.0
 30
0.0
 11
0.2787401575
 21
0.0
 31
0.0
  0
ENDBLK
  5
1E8
  8
0
  0
BLOCK
  8
0
  2
SW_CENTERMARKSYMBOL_8
 70
     0
 10
0.0
 20
0.0
 30
0.0
  3
SW_CENTERMARKSYMBOL_8
  1

  0
LINE
  5
1F5
  8
0
  6
CONTINUOUS
 62
     0
 10
0.0
 20
0.0
 30
0.0
 11
0.0
 21
0.2
 31
0.0
  0
LINE
  5
1F6
  8
0
  6
CONTINUOUS
 62
     0
 10
0.0
 20
0.0
 30
0.0
 11
-0.2
 21
0.0
 31
0.0
  0
LINE
  5
1F7
  8
0
  6
CONTINUOUS
 62
     0
 10
0.0
 20
0.0
 30
0.0
 11
0.0
 21
-0.2
 31
0.0
  0
LINE
  5
1F8
  8
0
  6
CONTINUOUS
 62
     0
 10
0.0
 20
0.0
 30
0.0
 11
0.2
 21
0.0
 31
0.0
  0
LINE
  5
1F9
  8
0
  6
CONTINUOUS
 62
     0
 10
0.0
 20
0.2
 30
0.0
 11
0.0
 21
0.2787401575
 31
0.0
  0
LINE
  5
1FA
  8
0
  6
CONTINUOUS
 62
     0
 10
-0.2
 20
0.0
 30
0.0
 11
-0.2787401575
 21
0.0
 31
0.0
  0
LINE
  5
1FB
  8
0
  6
CONTINUOUS
 62
     0
 10
0.0
 20
-0.2
 30
0.0
 11
0.0
 21
-0.2787401575
 31
0.0
  0
LINE
  5
1FC
  8
0
  6
CONTINUOUS
 62
     0
 10
0.2
 20
0.0
 30
0.0
 11
0.2787401575
 21
0.0
 31
0.0
  0
ENDBLK
  5
1F4
  8
0
  0
BLOCK
  8
0
  2
SW_CENTERMARKSYMBOL_9
 70
     0
 10
0.0
 20
0.0
 30
0.0
  3
SW_CENTERMARKSYMBOL_9
  1

  0
LINE
  5
201
  8
0
  6
CONTINUOUS
 62
     0
 10
0.0
 20
0.0
 30
0.0
 11
0.0
 21
0.2
 31
0.0
  0
LINE
  5
202
  8
0
  6
CONTINUOUS
 62
     0
 10
0.0
 20
0.0
 30
0.0
 11
-0.2
 21
0.0
 31
0.0
  0
LINE
  5
203
  8
0
  6
CONTINUOUS
 62
     0
 10
0.0
 20
0.0
 30
0.0
 11
0.0
 21
-0.2
 31
0.0
  0
LINE
  5
204
  8
0
  6
CONTINUOUS
 62
     0
 10
0.0
 20
0.0
 30
0.0
 11
0.2
 21
0.0
 31
0.0
  0
LINE
  5
205
  8
0
  6
CONTINUOUS
 62
     0
 10
0.0
 20
0.2
 30
0.0
 11
0.0
 21
0.2669291339
 31
0.0
  0
LINE
  5
206
  8
0
  6
CONTINUOUS
 62
     0
 10
-0.2
 20
0.0
 30
0.0
 11
-0.2669291339
 21
0.0
 31
0.0
  0
LINE
  5
207
  8
0
  6
CONTINUOUS
 62
     0
 10
0.0
 20
-0.2
 30
0.0
 11
0.0
 21
-0.2669291339
 31
0.0
  0
LINE
  5
208
  8
0
  6
CONTINUOUS
 62
     0
 10
0.2
 20
0.0
 30
0.0
 11
0.2669291339
 21
0.0
 31
0.0
  0
ENDBLK
  5
200
  8
0
  0
BLOCK
  8
0
  2
SW_CENTERMARKSYMBOL_10
 70
     0
 10
0.0
 20
0.0
 30
0.0
  3
SW_CENTERMARKSYMBOL_10
  1

  0
LINE
  5
20D
  8
0
  6
CONTINUOUS
 62
     0
 10
0.0
 20
0.0
 30
0.0
 11
0.0
 21
0.2
 31
0.0
  0
LINE
  5
20E
  8
0
  6
CONTINUOUS
 62
     0
 10
0.0
 20
0.0
 30
0.0
 11
-0.2
 21
0.0
 31
0.0
  0
LINE
  5
20F
  8
0
  6
CONTINUOUS
 62
     0
 10
0.0
 20
0.0
 30
0.0
 11
0.0
 21
-0.2
 31
0.0
  0
LINE
  5
210
  8
0
  6
CONTINUOUS
 62
     0
 10
0.0
 20
0.0
 30
0.0
 11
0.2
 21
0.0
 31
0.0
  0
LINE
  5
211
  8
0
  6
CONTINUOUS
 62
     0
 10
0.0
 20
0.2
 30
0.0
 11
0.0
 21
0.2669291339
 31
0.0
  0
LINE
  5
212
  8
0
  6
CONTINUOUS
 62
     0
 10
-0.2
 20
0.0
 30
0.0
 11
-0.2669291339
 21
0.0
 31
0.0
  0
LINE
  5
213
  8
0
  6
CONTINUOUS
 62
     0
 10
0.0
 20
-0.2
 30
0.0
 11
0.0
 21
-0.2669291339
 31
0.0
  0
LINE
  5
214
  8
0
  6
CONTINUOUS
 62
     0
 10
0.2
 20
0.0
 30
0.0
 11
0.2669291339
 21
0.0
 31
0.0
  0
ENDBLK
  5
20C
  8
0
  0
BLOCK
  8
0
  2
SW_CENTERMARKSYMBOL_11
 70
     0
 10
0.0
 20
0.0
 30
0.0
  3
SW_CENTERMARKSYMBOL_11
  1

  0
LINE
  5
219
  8
0
  6
CONTINUOUS
 62
     0
 10
0.0
 20
0.0
 30
0.0
 11
0.0
 21
0.2
 31
0.0
  0
LINE
  5
21A
  8
0
  6
CONTINUOUS
 62
     0
 10
0.0
 20
0.0
 30
0.0
 11
-0.2
 21
0.0
 31
0.0
  0
LINE
  5
21B
  8
0
  6
CONTINUOUS
 62
     0
 10
0.0
 20
0.0
 30
0.0
 11
0.0
 21
-0.2
 31
0.0
  0
LINE
  5
21C
  8
0
  6
CONTINUOUS
 62
     0
 10
0.0
 20
0.0
 30
0.0
 11
0.2
 21
0.0
 31
0.0
  0
LINE
  5
21D
  8
0
  6
CONTINUOUS
 62
     0
 10
0.0
 20
0.2
 30
0.0
 11
0.0
 21
0.2590551181
 31
0.0
  0
LINE
  5
21E
  8
0
  6
CONTINUOUS
 62
     0
 10
-0.2
 20
0.0
 30
0.0
 11
-0.2590551181
 21
0.0
 31
0.0
  0
LINE
  5
21F
  8
0
  6
CONTINUOUS
 62
     0
 10
0.0
 20
-0.2
 30
0.0
 11
0.0
 21
-0.2590551181
 31
0.0
  0
LINE
  5
220
  8
0
  6
CONTINUOUS
 62
     0
 10
0.2
 20
0.0
 30
0.0
 11
0.2590551181
 21
0.0
 31
0.0
  0
ENDBLK
  5
218
  8
0
  0
BLOCK
  8
0
  2
SW_CENTERMARKSYMBOL_12
 70
     0
 10
0.0
 20
0.0
 30
0.0
  3
SW_CENTERMARKSYMBOL_12
  1

  0
LINE
  5
225
  8
0
  6
CONTINUOUS
 62
     0
 10
0.0
 20
0.0
 30
0.0
 11
0.0
 21
0.2
 31
0.0
  0
LINE
  5
226
  8
0
  6
CONTINUOUS
 62
     0
 10
0.0
 20
0.0
 30
0.0
 11
-0.2
 21
0.0
 31
0.0
  0
LINE
  5
227
  8
0
  6
CONTINUOUS
 62
     0
 10
0.0
 20
0.0
 30
0.0
 11
0.0
 21
-0.2
 31
0.0
  0
LINE
  5
228
  8
0
  6
CONTINUOUS
 62
     0
 10
0.0
 20
0.0
 30
0.0
 11
0.2
 21
0.0
 31
0.0
  0
LINE
  5
229
  8
0
  6
CONTINUOUS
 62
     0
 10
0.0
 20
0.2
 30
0.0
 11
0.0
 21
0.2787401575
 31
0.0
  0
LINE
  5
22A
  8
0
  6
CONTINUOUS
 62
     0
 10
-0.2
 20
0.0
 30
0.0
 11
-0.2787401575
 21
0.0
 31
0.0
  0
LINE
  5
22B
  8
0
  6
CONTINUOUS
 62
     0
 10
0.0
 20
-0.2
 30
0.0
 11
0.0
 21
-0.2787401575
 31
0.0
  0
LINE
  5
22C
  8
0
  6
CONTINUOUS
 62
     0
 10
0.2
 20
0.0
 30
0.0
 11
0.2787401575
 21
0.0
 31
0.0
  0
ENDBLK
  5
224
  8
0
  0
BLOCK
  8
0
  2
SW_CENTERMARKSYMBOL_13
 70
     0
 10
0.0
 20
0.0
 30
0.0
  3
SW_CENTERMARKSYMBOL_13
  1

  0
LINE
  5
231
  8
0
  6
CONTINUOUS
 62
     0
 10
0.0
 20
0.0
 30
0.0
 11
0.0
 21
0.2
 31
0.0
  0
LINE
  5
232
  8
0
  6
CONTINUOUS
 62
     0
 10
0.0
 20
0.0
 30
0.0
 11
-0.2
 21
0.0
 31
0.0
  0
LINE
  5
233
  8
0
  6
CONTINUOUS
 62
     0
 10
0.0
 20
0.0
 30
0.0
 11
0.0
 21
-0.2
 31
0.0
  0
LINE
  5
234
  8
0
  6
CONTINUOUS
 62
     0
 10
0.0
 20
0.0
 30
0.0
 11
0.2
 21
0.0
 31
0.0
  0
LINE
  5
235
  8
0
  6
CONTINUOUS
 62
     0
 10
0.0
 20
0.2
 30
0.0
 11
0.0
 21
0.2590551181
 31
0.0
  0
LINE
  5
236
  8
0
  6
CONTINUOUS
 62
     0
 10
-0.2
 20
0.0
 30
0.0
 11
-0.2590551181
 21
0.0
 31
0.0
  0
LINE
  5
237
  8
0
  6
CONTINUOUS
 62
     0
 10
0.0
 20
-0.2
 30
0.0
 11
0.0
 21
-0.2590551181
 31
0.0
  0
LINE
  5
238
  8
0
  6
CONTINUOUS
 62
     0
 10
0.2
 20
0.0
 30
0.0
 11
0.2590551181
 21
0.0
 31
0.0
  0
ENDBLK
  5
230
  8
0
  0
BLOCK
  8
0
  2
SW_CENTERMARKSYMBOL_14
 70
     0
 10
0.0
 20
0.0
 30
0.0
  3
SW_CENTERMARKSYMBOL_14
  1

  0
LINE
  5
23D
  8
0
  6
CONTINUOUS
 62
     0
 10
0.0
 20
0.0
 30
0.0
 11
0.0
 21
0.2
 31
0.0
  0
LINE
  5
23E
  8
0
  6
CONTINUOUS
 62
     0
 10
0.0
 20
0.0
 30
0.0
 11
-0.2
 21
0.0
 31
0.0
  0
LINE
  5
23F
  8
0
  6
CONTINUOUS
 62
     0
 10
0.0
 20
0.0
 30
0.0
 11
0.0
 21
-0.2
 31
0.0
  0
LINE
  5
240
  8
0
  6
CONTINUOUS
 62
     0
 10
0.0
 20
0.0
 30
0.0
 11
0.2
 21
0.0
 31
0.0
  0
LINE
  5
241
  8
0
  6
CONTINUOUS
 62
     0
 10
0.0
 20
0.2
 30
0.0
 11
0.0
 21
0.2787401575
 31
0.0
  0
LINE
  5
242
  8
0
  6
CONTINUOUS
 62
     0
 10
-0.2
 20
0.0
 30
0.0
 11
-0.2787401575
 21
0.0
 31
0.0
  0
LINE
  5
243
  8
0
  6
CONTINUOUS
 62
     0
 10
0.0
 20
-0.2
 30
0.0
 11
0.0
 21
-0.2787401575
 31
0.0
  0
LINE
  5
244
  8
0
  6
CONTINUOUS
 62
     0
 10
0.2
 20
0.0
 30
0.0
 11
0.2787401575
 21
0.0
 31
0.0
  0
ENDBLK
  5
23C
  8
0
  0
BLOCK
  8
0
  2
SW_CENTERMARKSYMBOL_15
 70
     0
 10
0.0
 20
0.0
 30
0.0
  3
SW_CENTERMARKSYMBOL_15
  1

  0
LINE
  5
249
  8
0
  6
CONTINUOUS
 62
     0
 10
0.0
 20
0.0
 30
0.0
 11
0.0
 21
0.2
 31
0.0
  0
LINE
  5
24A
  8
0
  6
CONTINUOUS
 62
     0
 10
0.0
 20
0.0
 30
0.0
 11
-0.2
 21
0.0
 31
0.0
  0
LINE
  5
24B
  8
0
  6
CONTINUOUS
 62
     0
 10
0.0
 20
0.0
 30
0.0
 11
0.0
 21
-0.2
 31
0.0
  0
LINE
  5
24C
  8
0
  6
CONTINUOUS
 62
     0
 10
0.0
 20
0.0
 30
0.0
 11
0.2
 21
0.0
 31
0.0
  0
LINE
  5
24D
  8
0
  6
CONTINUOUS
 62
     0
 10
0.0
 20
0.2
 30
0.0
 11
0.0
 21
0.2787401575
 31
0.0
  0
LINE
  5
24E
  8
0
  6
CONTINUOUS
 62
     0
 10
-0.2
 20
0.0
 30
0.0
 11
-0.2787401575
 21
0.0
 31
0.0
  0
LINE
  5
24F
  8
0
  6
CONTINUOUS
 62
     0
 10
0.0
 20
-0.2
 30
0.0
 11
0.0
 21
-0.2787401575
 31
0.0
  0
LINE
  5
250
  8
0
  6
CONTINUOUS
 62
     0
 10
0.2
 20
0.0
 30
0.0
 11
0.2787401575
 21
0.0
 31
0.0
  0
ENDBLK
  5
248
  8
0
  0
BLOCK
  8
0
  2
SW_CENTERMARKSYMBOL_16
 70
     0
 10
0.0
 20
0.0
 30
0.0
  3
SW_CENTERMARKSYMBOL_16
  1

  0
LINE
  5
255
  8
0
  6
CONTINUOUS
 62
     0
 10
0.0
 20
0.0
 30
0.0
 11
0.0
 21
0.2
 31
0.0
  0
LINE
  5
256
  8
0
  6
CONTINUOUS
 62
     0
 10
0.0
 20
0.0
 30
0.0
 11
-0.2
 21
0.0
 31
0.0
  0
LINE
  5
257
  8
0
  6
CONTINUOUS
 62
     0
 10
0.0
 20
0.0
 30
0.0
 11
0.0
 21
-0.2
 31
0.0
  0
LINE
  5
258
  8
0
  6
CONTINUOUS
 62
     0
 10
0.0
 20
0.0
 30
0.0
 11
0.2
 21
0.0
 31
0.0
  0
LINE
  5
259
  8
0
  6
CONTINUOUS
 62
     0
 10
0.0
 20
0.2
 30
0.0
 11
0.0
 21
0.2669291339
 31
0.0
  0
LINE
  5
25A
  8
0
  6
CONTINUOUS
 62
     0
 10
-0.2
 20
0.0
 30
0.0
 11
-0.2669291339
 21
0.0
 31
0.0
  0
LINE
  5
25B
  8
0
  6
CONTINUOUS
 62
     0
 10
0.0
 20
-0.2
 30
0.0
 11
0.0
 21
-0.2669291339
 31
0.0
  0
LINE
  5
25C
  8
0
  6
CONTINUOUS
 62
     0
 10
0.2
 20
0.0
 30
0.0
 11
0.2669291339
 21
0.0
 31
0.0
  0
ENDBLK
  5
254
  8
0
  0
BLOCK
  8
0
  2
SW_CENTERMARKSYMBOL_17
 70
     0
 10
0.0
 20
0.0
 30
0.0
  3
SW_CENTERMARKSYMBOL_17
  1

  0
LINE
  5
261
  8
0
  6
CONTINUOUS
 62
     0
 10
0.0
 20
0.0
 30
0.0
 11
0.0
 21
0.2
 31
0.0
  0
LINE
  5
262
  8
0
  6
CONTINUOUS
 62
     0
 10
0.0
 20
0.0
 30
0.0
 11
-0.2
 21
0.0
 31
0.0
  0
LINE
  5
263
  8
0
  6
CONTINUOUS
 62
     0
 10
0.0
 20
0.0
 30
0.0
 11
0.0
 21
-0.2
 31
0.0
  0
LINE
  5
264
  8
0
  6
CONTINUOUS
 62
     0
 10
0.0
 20
0.0
 30
0.0
 11
0.2
 21
0.0
 31
0.0
  0
LINE
  5
265
  8
0
  6
CONTINUOUS
 62
     0
 10
0.0
 20
0.2
 30
0.0
 11
0.0
 21
0.2669291339
 31
0.0
  0
LINE
  5
266
  8
0
  6
CONTINUOUS
 62
     0
 10
-0.2
 20
0.0
 30
0.0
 11
-0.2669291339
 21
0.0
 31
0.0
  0
LINE
  5
267
  8
0
  6
CONTINUOUS
 62
     0
 10
0.0
 20
-0.2
 30
0.0
 11
0.0
 21
-0.2669291339
 31
0.0
  0
LINE
  5
268
  8
0
  6
CONTINUOUS
 62
     0
 10
0.2
 20
0.0
 30
0.0
 11
0.2669291339
 21
0.0
 31
0.0
  0
ENDBLK
  5
260
  8
0
  0
BLOCK
  8
0
  2
SW_CENTERMARKSYMBOL_18
 70
     0
 10
0.0
 20
0.0
 30
0.0
  3
SW_CENTERMARKSYMBOL_18
  1

  0
LINE
  5
26D
  8
0
  6
CONTINUOUS
 62
     0
 10
0.0
 20
0.0
 30
0.0
 11
0.0
 21
0.2
 31
0.0
  0
LINE
  5
26E
  8
0
  6
CONTINUOUS
 62
     0
 10
0.0
 20
0.0
 30
0.0
 11
-0.2
 21
0.0
 31
0.0
  0
LINE
  5
26F
  8
0
  6
CONTINUOUS
 62
     0
 10
0.0
 20
0.0
 30
0.0
 11
0.0
 21
-0.2
 31
0.0
  0
LINE
  5
270
  8
0
  6
CONTINUOUS
 62
     0
 10
0.0
 20
0.0
 30
0.0
 11
0.2
 21
0.0
 31
0.0
  0
LINE
  5
271
  8
0
  6
CONTINUOUS
 62
     0
 10
0.0
 20
0.2
 30
0.0
 11
0.0
 21
0.2590551181
 31
0.0
  0
LINE
  5
272
  8
0
  6
CONTINUOUS
 62
     0
 10
-0.2
 20
0.0
 30
0.0
 11
-0.2590551181
 21
0.0
 31
0.0
  0
LINE
  5
273
  8
0
  6
CONTINUOUS
 62
     0
 10
0.0
 20
-0.2
 30
0.0
 11
0.0
 21
-0.2590551181
 31
0.0
  0
LINE
  5
274
  8
0
  6
CONTINUOUS
 62
     0
 10
0.2
 20
0.0
 30
0.0
 11
0.2590551181
 21
0.0
 31
0.0
  0
ENDBLK
  5
26C
  8
0
  0
BLOCK
  8
0
  2
SW_CENTERMARKSYMBOL_19
 70
     0
 10
0.0
 20
0.0
 30
0.0
  3
SW_CENTERMARKSYMBOL_19
  1

  0
LINE
  5
279
  8
0
  6
CONTINUOUS
 62
     0
 10
0.0
 20
0.0
 30
0.0
 11
0.0
 21
0.2
 31
0.0
  0
LINE
  5
27A
  8
0
  6
CONTINUOUS
 62
     0
 10
0.0
 20
0.0
 30
0.0
 11
-0.2
 21
0.0
 31
0.0
  0
LINE
  5
27B
  8
0
  6
CONTINUOUS
 62
     0
 10
0.0
 20
0.0
 30
0.0
 11
0.0
 21
-0.2
 31
0.0
  0
LINE
  5
27C
  8
0
  6
CONTINUOUS
 62
     0
 10
0.0
 20
0.0
 30
0.0
 11
0.2
 21
0.0
 31
0.0
  0
LINE
  5
27D
  8
0
  6
CONTINUOUS
 62
     0
 10
0.0
 20
0.2
 30
0.0
 11
0.0
 21
0.2787401575
 31
0.0
  0
LINE
  5
27E
  8
0
  6
CONTINUOUS
 62
     0
 10
-0.2
 20
0.0
 30
0.0
 11
-0.2787401575
 21
0.0
 31
0.0
  0
LINE
  5
27F
  8
0
  6
CONTINUOUS
 62
     0
 10
0.0
 20
-0.2
 30
0.0
 11
0.0
 21
-0.2787401575
 31
0.0
  0
LINE
  5
280
  8
0
  6
CONTINUOUS
 62
     0
 10
0.2
 20
0.0
 30
0.0
 11
0.2787401575
 21
0.0
 31
0.0
  0
ENDBLK
  5
278
  8
0
  0
BLOCK
  8
0
  2
SW_CENTERMARKSYMBOL_20
 70
     0
 10
0.0
 20
0.0
 30
0.0
  3
SW_CENTERMARKSYMBOL_20
  1

  0
LINE
  5
285
  8
0
  6
CONTINUOUS
 62
     0
 10
0.0
 20
0.0
 30
0.0
 11
0.0
 21
0.2
 31
0.0
  0
LINE
  5
286
  8
0
  6
CONTINUOUS
 62
     0
 10
0.0
 20
0.0
 30
0.0
 11
-0.2
 21
0.0
 31
0.0
  0
LINE
  5
287
  8
0
  6
CONTINUOUS
 62
     0
 10
0.0
 20
0.0
 30
0.0
 11
0.0
 21
-0.2
 31
0.0
  0
LINE
  5
288
  8
0
  6
CONTINUOUS
 62
     0
 10
0.0
 20
0.0
 30
0.0
 11
0.2
 21
0.0
 31
0.0
  0
LINE
  5
289
  8
0
  6
CONTINUOUS
 62
     0
 10
0.0
 20
0.2
 30
0.0
 11
0.0
 21
0.2590551181
 31
0.0
  0
LINE
  5
28A
  8
0
  6
CONTINUOUS
 62
     0
 10
-0.2
 20
0.0
 30
0.0
 11
-0.2590551181
 21
0.0
 31
0.0
  0
LINE
  5
28B
  8
0
  6
CONTINUOUS
 62
     0
 10
0.0
 20
-0.2
 30
0.0
 11
0.0
 21
-0.2590551181
 31
0.0
  0
LINE
  5
28C
  8
0
  6
CONTINUOUS
 62
     0
 10
0.2
 20
0.0
 30
0.0
 11
0.2590551181
 21
0.0
 31
0.0
  0
ENDBLK
  5
284
  8
0
  0
ENDSEC
  0
SECTION
  2
ENTITIES
  0
LINE
  5
74
  8
0
  6
CONTINUOUS
 62
     7
 10
0.6262516046
 20
10.6420731707
 30
0.0
 11
16.3762516046
 21
10.6420731707
 31
0.0
  0
LINE
  5
75
  8
0
  6
CONTINUOUS
 62
     7
 10
0.6262516046
 20
10.6420731707
 30
0.0
 11
0.6262516046
 21
0.3920731707
 31
0.0
  0
LINE
  5
76
  8
0
  6
CONTINUOUS
 62
     7
 10
16.3762516046
 20
0.3920731707
 30
0.0
 11
0.6262516046
 21
0.3920731707
 31
0.0
  0
LINE
  5
77
  8
0
  6
CONTINUOUS
 62
     7
 10
16.3762516046
 20
0.3920731707
 30
0.0
 11
16.3762516046
 21
10.6420731707
 31
0.0
  0
LINE
  5
78
  8
0
  6
CONTINUOUS
 62
     7
 10
16.3762516046
 20
8.0752921748
 30
0.0
 11
16.5012516046
 21
8.0752921748
 31
0.0
  0
LINE
  5
79
  8
0
  6
CONTINUOUS
 62
     7
 10
16.3762516046
 20
5.5127921748
 30
0.0
 11
16.5012516046
 21
5.5127921748
 31
0.0
  0
LINE
  5
7A
  8
0
  6
CONTINUOUS
 62
     7
 10
16.3762516046
 20
5.5127921748
 30
0.0
 11
16.4434330337
 21
5.5368018253
 31
0.0
  0
LINE
  5
7B
  8
0
  6
CONTINUOUS
 62
     7
 10
16.3762516046
 20
5.5127921748
 30
0.0
 11
16.4434330337
 21
5.4902136493
 31
0.0
  0
LINE
  5
7C
  8
0
  6
CONTINUOUS
 62
     7
 10
16.4434330337
 20
5.5368018253
 30
0.0
 11
16.4434330337
 21
5.4902136493
 31
0.0
  0
LINE
  5
7D
  8
0
  6
CONTINUOUS
 62
     7
 10
16.3762516046
 20
5.5127921748
 30
0.0
 11
16.4434330337
 21
5.5218303331
 31
0.0
  0
LINE
  5
7E
  8
0
  6
CONTINUOUS
 62
     7
 10
16.3762516046
 20
5.5127921748
 30
0.0
 11
16.4434330337
 21
5.5024840548
 31
0.0
  0
LINE
  5
7F
  8
0
  6
CONTINUOUS
 62
     7
 10
16.3762516046
 20
2.9502921748
 30
0.0
 11
16.5012516046
 21
2.9502921748
 31
0.0
  0
LINE
  5
80
  8
0
  6
CONTINUOUS
 62
     7
 10
0.6262516046
 20
2.9545731707
 30
0.0
 11
0.5012516046
 21
2.9545731707
 31
0.0
  0
LINE
  5
81
  8
0
  6
CONTINUOUS
 62
     7
 10
0.6262516046
 20
5.5170731707
 30
0.0
 11
0.5590701755
 21
5.5067650507
 31
0.0
  0
LINE
  5
82
  8
0
  6
CONTINUOUS
 62
     7
 10
0.6262516046
 20
5.5170731707
 30
0.0
 11
0.5590701755
 21
5.5261113291
 31
0.0
  0
LINE
  5
83
  8
0
  6
CONTINUOUS
 62
     7
 10
0.5590701755
 20
5.5410828212
 30
0.0
 11
0.5590701755
 21
5.4944946453
 31
0.0
  0
LINE
  5
84
  8
0
  6
CONTINUOUS
 62
     7
 10
0.6262516046
 20
5.5170731707
 30
0.0
 11
0.5590701755
 21
5.4944946453
 31
0.0
  0
LINE
  5
85
  8
0
  6
CONTINUOUS
 62
     7
 10
0.6262516046
 20
5.5170731707
 30
0.0
 11
0.5590701755
 21
5.5410828212
 31
0.0
  0
LINE
  5
86
  8
0
  6
CONTINUOUS
 62
     7
 10
0.6262516046
 20
5.5170731707
 30
0.0
 11
0.5012516046
 21
5.5170731707
 31
0.0
  0
LINE
  5
87
  8
0
  6
CONTINUOUS
 62
     7
 10
0.6262516046
 20
8.0795731707
 30
0.0
 11
0.5012516046
 21
8.0795731707
 31
0.0
  0
LINE
  5
88
  8
0
  6
CONTINUOUS
 62
     7
 10
10.5280281445
 20
0.8908775122
 30
0.0
 11
10.5280281445
 21
2.3578999973
 31
0.0
  0
LINE
  5
89
  8
0
  6
CONTINUOUS
 62
     7
 10
9.4256892151
 20
2.3578999973
 30
0.0
 11
16.3762516046
 21
2.3578999973
 31
0.0
  0
LINE
  5
8A
  8
0
  6
CONTINUOUS
 62
     7
 10
11.925959856
 20
2.3578999973
 30
0.0
 11
11.925959856
 21
0.3920731707
 31
0.0
  0
LINE
  5
8B
  8
0
  6
CONTINUOUS
 62
     7
 10
13.617531609
 20
2.3578999973
 30
0.0
 11
13.617531609
 21
0.3920731707
 31
0.0
  0
LINE
  5
8C
  8
0
  6
CONTINUOUS
 62
     7
 10
13.617531609
 20
0.6049590101
 30
0.0
 11
16.3762516046
 21
0.6049590101
 31
0.0
  0
LINE
  5
8D
  8
0
  6
CONTINUOUS
 62
     7
 10
13.617531609
 20
1.1119362457
 30
0.0
 11
16.3762516046
 21
1.1119362457
 31
0.0
  0
LINE
  5
8E
  8
0
  6
CONTINUOUS
 62
     7
 10
13.617531609
 20
1.6021464109
 30
0.0
 11
16.3762516046
 21
1.6021464109
 31
0.0
  0
LINE
  5
8F
  8
0
  6
CONTINUOUS
 62
     7
 10
14.0130763566
 20
1.1119362457
 30
0.0
 11
14.0130763566
 21
0.6049590101
 31
0.0
  0
LINE
  5
90
  8
0
  6
CONTINUOUS
 62
     7
 10
14.4406681222
 20
0.6049590101
 30
0.0
 11
14.4406681222
 21
0.3920731707
 31
0.0
  0
LINE
  5
91
  8
0
  6
CONTINUOUS
 62
     7
 10
15.8043163091
 20
1.1119362457
 30
0.0
 11
15.8043163091
 21
0.6049590101
 31
0.0
  0
LINE
  5
92
  8
0
  6
CONTINUOUS
 62
     7
 10
15.4125802677
 20
0.6049590101
 30
0.0
 11
15.4125802677
 21
0.3920731707
 31
0.0
  0
LINE
  5
93
  8
0
  6
CONTINUOUS
 62
     7
 10
9.4256892151
 20
1.4776865062
 30
0.0
 11
10.5280281445
 21
1.4776865062
 31
0.0
  0
LINE
  5
94
  8
0
  6
CONTINUOUS
 62
     7
 10
11.925959856
 20
1.7939211366
 30
0.0
 11
13.617531609
 21
1.7939211366
 31
0.0
  0
LINE
  5
95
  8
0
  6
CONTINUOUS
 62
     7
 10
11.925959856
 20
1.9814211366
 30
0.0
 11
13.617531609
 21
1.9814211366
 31
0.0
  0
LINE
  5
96
  8
0
  6
CONTINUOUS
 62
     7
 10
11.925959856
 20
2.1689211366
 30
0.0
 11
13.617531609
 21
2.1689211366
 31
0.0
  0
LINE
  5
97
  8
0
  6
CONTINUOUS
 62
     7
 10
13.617531609
 20
1.2314211366
 30
0.0
 11
11.925959856
 21
1.2314211366
 31
0.0
  0
LINE
  5
98
  8
0
  6
CONTINUOUS
 62
     7
 10
13.1384826434
 20
2.3578999973
 30
0.0
 11
13.1384826434
 21
1.2314211366
 31
0.0
  0
LINE
  5
99
  8
0
  6
CONTINUOUS
 62
     7
 10
12.6699554388
 20
2.3578999973
 30
0.0
 11
12.6699554388
 21
1.2314211366
 31
0.0
  0
LINE
  5
9A
  8
0
  6
CONTINUOUS
 62
     7
 10
9.4256892151
 20
0.8908775122
 30
0.0
 11
11.925959856
 21
0.8908775122
 31
0.0
  0
LINE
  5
9B
  8
0
  6
CONTINUOUS
 62
     7
 10
9.4256892151
 20
0.3920731707
 30
0.0
 11
9.4256892151
 21
2.3578999973
 31
0.0
  0
LINE
  5
9C
  8
0
  6
CONTINUOUS
 62
     7
 10
9.4256892151
 20
1.1842820092
 30
0.0
 11
10.5280281445
 21
1.1842820092
 31
0.0
  0
LINE
  5
9D
  8
0
  6
CONTINUOUS
 62
     7
 10
9.4256892151
 20
1.7710910032
 30
0.0
 11
10.5280281445
 21
1.7710910032
 31
0.0
  0
LINE
  5
9E
  8
0
  6
CONTINUOUS
 62
     7
 10
11.925959856
 20
2.2020813496
 30
0.0
 11
10.5280281445
 21
2.2020813496
 31
0.0
  0
LINE
  5
9F
  8
0
  6
CONTINUOUS
 62
     7
 10
13.617531609
 20
1.6064211366
 30
0.0
 11
11.925959856
 21
1.6064211366
 31
0.0
  0
LINE
  5
A0
  8
0
  6
CONTINUOUS
 62
     7
 10
13.617531609
 20
1.4189211366
 30
0.0
 11
11.925959856
 21
1.4189211366
 31
0.0
  0
LINE
  5
A1
  8
0
  6
CONTINUOUS
 62
     7
 10
9.4256892151
 20
2.0644955003
 30
0.0
 11
10.5280281445
 21
2.0644955003
 31
0.0
  0
LINE
  5
A2
  8
0
  6
CONTINUOUS
 62
     7
 10
14.4072516046
 20
0.3920731707
 30
0.0
 11
14.4072516046
 21
0.3072739649
 31
0.0
  0
LINE
  5
A3
  8
0
  6
CONTINUOUS
 62
     7
 10
12.4385016046
 20
0.3920731707
 30
0.0
 11
12.4385016046
 21
0.3072739649
 31
0.0
  0
LINE
  5
A4
  8
0
  6
CONTINUOUS
 62
     7
 10
10.4697516046
 20
0.3920731707
 30
0.0
 11
10.4697516046
 21
0.3072739649
 31
0.0
  0
LINE
  5
A5
  8
0
  6
CONTINUOUS
 62
     7
 10
8.5010016046
 20
0.3920731707
 30
0.0
 11
8.5010016046
 21
0.3072739649
 31
0.0
  0
LINE
  5
A6
  8
0
  6
CONTINUOUS
 62
     7
 10
6.5322516046
 20
0.3920731707
 30
0.0
 11
6.5322516046
 21
0.3072739649
 31
0.0
  0
LINE
  5
A7
  8
0
  6
CONTINUOUS
 62
     7
 10
4.5635016046
 20
0.3920731707
 30
0.0
 11
4.5635016046
 21
0.3072739649
 31
0.0
  0
LINE
  5
A8
  8
0
  6
CONTINUOUS
 62
     7
 10
2.5947516046
 20
0.3920731707
 30
0.0
 11
2.5947516046
 21
0.3072739649
 31
0.0
  0
LINE
  5
A9
  8
0
  6
CONTINUOUS
 62
     7
 10
2.5947516046
 20
10.6420731707
 30
0.0
 11
2.5947516046
 21
10.7268723765
 31
0.0
  0
LINE
  5
AA
  8
0
  6
CONTINUOUS
 62
     7
 10
4.5635016046
 20
10.6420731707
 30
0.0
 11
4.5635016046
 21
10.7268723765
 31
0.0
  0
LINE
  5
AB
  8
0
  6
CONTINUOUS
 62
     7
 10
6.5322516046
 20
10.6420731707
 30
0.0
 11
6.5322516046
 21
10.7268723765
 31
0.0
  0
LINE
  5
AC
  8
0
  6
CONTINUOUS
 62
     7
 10
8.5010016046
 20
10.6420731707
 30
0.0
 11
8.5010016046
 21
10.7268723765
 31
0.0
  0
LINE
  5
AD
  8
0
  6
CONTINUOUS
 62
     7
 10
10.4697516046
 20
10.6420731707
 30
0.0
 11
10.4697516046
 21
10.7268723765
 31
0.0
  0
LINE
  5
AE
  8
0
  6
CONTINUOUS
 62
     7
 10
12.4385016046
 20
10.6420731707
 30
0.0
 11
12.4385016046
 21
10.7268723765
 31
0.0
  0
LINE
  5
AF
  8
0
  6
CONTINUOUS
 62
     7
 10
14.4072516046
 20
10.6420731707
 30
0.0
 11
14.4072516046
 21
10.7268723765
 31
0.0
  0
LINE
  5
B0
  8
0
  6
CONTINUOUS
 62
     7
 10
8.5010016046
 20
10.6420731707
 30
0.0
 11
8.4877504872
 21
10.6840054626
 31
0.0
  0
LINE
  5
B1
  8
0
  6
CONTINUOUS
 62
     7
 10
8.5010016046
 20
10.6420731707
 30
0.0
 11
8.5135565785
 21
10.6840054626
 31
0.0
  0
LINE
  5
B2
  8
0
  6
CONTINUOUS
 62
     7
 10
8.5135565785
 20
10.6840054626
 30
0.0
 11
8.4877504872
 21
10.6840054626
 31
0.0
  0
LINE
  5
B3
  8
0
  6
CONTINUOUS
 62
     7
 10
8.4939630647
 20
10.6840054626
 30
0.0
 11
8.5010016046
 21
10.6420731707
 31
0.0
  0
LINE
  5
B4
  8
0
  6
CONTINUOUS
 62
     7
 10
8.5059103292
 20
10.6840054626
 30
0.0
 11
8.5010016046
 21
10.6420731707
 31
0.0
  0
LINE
  5
B5
  8
0
  6
CONTINUOUS
 62
     7
 10
8.5010016046
 20
0.3920731707
 30
0.0
 11
8.5135565785
 21
0.3575
 31
0.0
  0
LINE
  5
B6
  8
0
  6
CONTINUOUS
 62
     7
 10
8.5135565785
 20
0.3575
 30
0.0
 11
8.4877504872
 21
0.3575
 31
0.0
  0
LINE
  5
B7
  8
0
  6
CONTINUOUS
 62
     7
 10
8.4877504872
 20
0.3575
 30
0.0
 11
8.5010016046
 21
0.3920731707
 31
0.0
  0
TEXT
  5
B8
  8
0
  6
CONTINUOUS
 62
     7
 10
16.4913158734
 20
9.4186439694
 30
0.0
 40
0.09375
  1
D
 41
0.7
 11
16.4913158734
 21
9.3701501137
 31
0.0
 73
     1
  0
TEXT
  5
B9
  8
0
  6
CONTINUOUS
 62
     7
 10
16.4711826244
 20
6.8327233652
 30
0.0
 40
0.09375
  1
C
 41
0.7
 11
16.4711826244
 21
6.7842295095
 31
0.0
 73
     1
  0
TEXT
  5
BA
  8
0
  6
CONTINUOUS
 62
     7
 10
16.5114787596
 20
4.3067318307
 30
0.0
 40
0.09375
  1
B
 41
0.7
 11
16.5114787596
 21
4.2582379751
 31
0.0
 73
     1
  0
TEXT
  5
BB
  8
0
  6
CONTINUOUS
 62
     7
 10
16.4820809255
 20
1.7002694153
 30
0.0
 40
0.09375
  1
A
 41
0.7
 11
16.4820809255
 21
1.6517755596
 31
0.0
 73
     1
  0
TEXT
  5
BC
  8
0
  6
CONTINUOUS
 62
     7
 10
0.4260099495
 20
1.6834938526
 30
0.0
 40
0.09375
  1
A
 41
0.7
 11
0.4260099495
 21
1.6349999969
 31
0.0
 73
     1
  0
TEXT
  5
BD
  8
0
  6
CONTINUOUS
 62
     7
 10
0.4264017314
 20
4.3208892568
 30
0.0
 40
0.09375
  1
B
 41
0.7
 11
0.4264017314
 21
4.2723954011
 31
0.0
 73
     1
  0
TEXT
  5
BE
  8
0
  6
CONTINUOUS
 62
     7
 10
0.427314415
 20
6.8379875794
 30
0.0
 40
0.09375
  1
C
 41
0.7
 11
0.427314415
 21
6.7894937237
 31
0.0
 73
     1
  0
TEXT
  5
BF
  8
0
  6
CONTINUOUS
 62
     7
 10
0.42861048
 20
9.3851911182
 30
0.0
 40
0.09375
  1
D
 41
0.7
 11
0.42861048
 21
9.3366972626
 31
0.0
 73
     1
  0
TEXT
  5
C0
  8
0
  6
CONTINUOUS
 62
     7
 10
15.4083167374
 20
0.2290157671
 30
0.0
 40
0.09375
  1
1
 41
0.7
 11
15.4083167374
 21
0.1805219114
 31
0.0
 73
     1
  0
TEXT
  5
C1
  8
0
  6
CONTINUOUS
 62
     7
 10
13.352296777
 20
0.2400828902
 30
0.0
 40
0.09375
  1
2
 41
0.7
 11
13.352296777
 21
0.1915890345
 31
0.0
 73
     1
  0
TEXT
  5
C2
  8
0
  6
CONTINUOUS
 62
     7
 10
11.3787703324
 20
0.2392629393
 30
0.0
 40
0.09375
  1
3
 41
0.7
 11
11.3787703324
 21
0.1907690836
 31
0.0
 73
     1
  0
TEXT
  5
C3
  8
0
  6
CONTINUOUS
 62
     7
 10
9.4701249316
 20
0.2413675069
 30
0.0
 40
0.09375
  1
4
 41
0.7
 11
9.4701249316
 21
0.1928736512
 31
0.0
 73
     1
  0
TEXT
  5
C4
  8
0
  6
CONTINUOUS
 62
     7
 10
7.4851155555
 20
0.2382301798
 30
0.0
 40
0.09375
  1
5
 41
0.7
 11
7.4851155555
 21
0.1897363241
 31
0.0
 73
     1
  0
TEXT
  5
C5
  8
0
  6
CONTINUOUS
 62
     7
 10
5.5188252386
 20
0.2412991735
 30
0.0
 40
0.09375
  1
6
 41
0.7
 11
5.5188252386
 21
0.1928053178
 31
0.0
 73
     1
  0
TEXT
  5
C6
  8
0
  6
CONTINUOUS
 62
     7
 10
3.5574266754
 20
0.2409047703
 30
0.0
 40
0.09375
  1
7
 41
0.7
 11
3.5574266754
 21
0.1924109146
 31
0.0
 73
     1
  0
TEXT
  5
C7
  8
0
  6
CONTINUOUS
 62
     7
 10
1.5267744527
 20
0.2406065073
 30
0.0
 40
0.09375
  1
8
 41
0.7
 11
1.5267744527
 21
0.1921126517
 31
0.0
 73
     1
  0
TEXT
  5
C8
  8
0
  6
CONTINUOUS
 62
     7
 10
1.5090888689
 20
10.7591420116
 30
0.0
 40
0.09375
  1
8
 41
0.7
 11
1.5090888689
 21
10.710648156
 31
0.0
 73
     1
  0
TEXT
  5
C9
  8
0
  6
CONTINUOUS
 62
     7
 10
3.5509870273
 20
10.7563010526
 30
0.0
 40
0.09375
  1
7
 41
0.7
 11
3.5509870273
 21
10.7078071969
 31
0.0
 73
     1
  0
TEXT
  5
CA
  8
0
  6
CONTINUOUS
 62
     7
 10
5.4986876861
 20
10.7643922858
 30
0.0
 40
0.09375
  1
6
 41
0.7
 11
5.4986876861
 21
10.7158984302
 31
0.0
 73
     1
  0
TEXT
  5
CB
  8
0
  6
CONTINUOUS
 62
     7
 10
7.4786946819
 20
10.7649288432
 30
0.0
 40
0.09375
  1
5
 41
0.7
 11
7.4786946819
 21
10.7164349875
 31
0.0
 73
     1
  0
TEXT
  5
CC
  8
0
  6
CONTINUOUS
 62
     7
 10
9.464298725
 20
10.7632995
 30
0.0
 40
0.09375
  1
4
 41
0.7
 11
9.464298725
 21
10.7148056443
 31
0.0
 73
     1
  0
TEXT
  5
CD
  8
0
  6
CONTINUOUS
 62
     7
 10
11.432728105
 20
10.7571660189
 30
0.0
 40
0.09375
  1
3
 41
0.7
 11
11.432728105
 21
10.7086721632
 31
0.0
 73
     1
  0
TEXT
  5
CE
  8
0
  6
CONTINUOUS
 62
     7
 10
13.4009949841
 20
10.7638458929
 30
0.0
 40
0.09375
  1
2
 41
0.7
 11
13.4009949841
 21
10.7153520372
 31
0.0
 73
     1
  0
TEXT
  5
CF
  8
0
  6
CONTINUOUS
 62
     7
 10
15.4273970005
 20
10.7577124119
 30
0.0
 40
0.09375
  1
1
 41
0.7
 11
15.4273970005
 21
10.7092185562
 31
0.0
 73
     1
  0
TEXT
  5
D0
  8
0
  6
CONTINUOUS
 62
     7
 10
11.9706040402
 20
2.0514631268
 30
0.0
 40
0.065
  1
DRAWN
 41
0.7
 11
11.9706040402
 21
2.0178407202
 31
0.0
 73
     1
  0
TEXT
  5
D1
  8
0
  6
CONTINUOUS
 62
     7
 10
11.9727349997
 20
1.8591029123
 30
0.0
 40
0.065
  1
CHECKED
 41
0.7
 11
11.9727349997
 21
1.8254805057
 31
0.0
 73
     1
  0
TEXT
  5
D2
  8
0
  6
CONTINUOUS
 62
     7
 10
11.969841739
 20
1.6765831821
 30
0.0
 40
0.065
  1
ENG APPR.
 41
0.7
 11
11.969841739
 21
1.6429607754
 31
0.0
 73
     1
  0
TEXT
  5
D3
  8
0
  6
CONTINUOUS
 62
     7
 10
11.9747900555
 20
1.4893658459
 30
0.0
 40
0.065
  1
MFG APPR.
 41
0.7
 11
11.9747900555
 21
1.4557434393
 31
0.0
 73
     1
  0
TEXT
  5
D4
  8
0
  6
CONTINUOUS
 62
     7
 10
11.9731657507
 20
1.3034431715
 30
0.0
 40
0.065
  1
Q.A.
 41
0.7
 11
11.9731657507
 21
1.2698207649
 31
0.0
 73
     1
  0
TEXT
  5
D5
  8
0
  6
CONTINUOUS
 62
     7
 10
11.9740393075
 20
1.137524318
 30
0.0
 40
0.065
  1
SPECIAL INSTRUCTIONS
 41
0.7
 11
11.9740393075
 21
1.1039019114
 31
0.0
 73
     1
  0
TEXT
  5
D6
  8
0
  6
CONTINUOUS
 62
     7
 10
13.274475668
 20
2.2387129154
 30
0.0
 40
0.065
  1
DATE
 41
0.7
 11
13.274475668
 21
2.2050905088
 31
0.0
 73
     1
  0
TEXT
  5
D7
  8
0
  6
CONTINUOUS
 62
     7
 10
12.7827020976
 20
2.2404491309
 30
0.0
 40
0.065
  1
NAME
 41
0.7
 11
12.7827020976
 21
2.2068267243
 31
0.0
 73
     1
  0
TEXT
  5
D8
  8
0
  6
CONTINUOUS
 62
     7
 10
13.6391180897
 20
1.489270037
 30
0.0
 40
0.1
  1
DESCRIPTION
 41
0.7
 11
13.6391180897
 21
1.4375432576
 31
0.0
 73
     1
  0
TEXT
  5
D9
  8
0
  6
CONTINUOUS
 62
     7
 10
13.6982827868
 20
1.0100913537
 30
0.0
 40
0.1
  1
SIZE
 41
0.7
 11
13.6982827868
 21
0.9583645743
 31
0.0
 73
     1
  0
TEXT
  5
DA
  8
0
  6
CONTINUOUS
 62
     7
 10
13.7061728678
 20
0.751264095
 30
0.0
 40
0.25
  1
B
 41
0.7
 11
13.7061728678
 21
0.6219471465
 31
0.0
 73
     1
  0
TEXT
  5
DB
  8
0
  6
CONTINUOUS
 62
     7
 10
14.0447816944
 20
1.0086925347
 30
0.0
 40
0.1
  1
PART  NO.
 41
0.6222222222
 11
14.0447816944
 21
0.9569657553
 31
0.0
 73
     1
  0
TEXT
  5
DC
  8
0
  6
CONTINUOUS
 62
     7
 10
15.974082703
 20
1.0047863044
 30
0.0
 40
0.1
  1
REV
 41
0.7
 11
15.974082703
 21
0.953059525
 31
0.0
 73
     1
  0
TEXT
  5
DD
  8
0
  6
CONTINUOUS
 62
     7
 10
13.7049385694
 20
0.4749187933
 30
0.0
 40
0.1
  1
SCALE: 2:1
 41
0.7
 11
13.7049385694
 21
0.4231920139
 31
0.0
 73
     1
  0
TEXT
  5
DE
  8
FORMAT
 62
     7
 10
15.9346235221
 20
0.7567434701
 30
0.0
 40
0.25
  1
A 
 41
0.7
 11
15.9346235221
 21
0.6274265216
 31
0.0
 73
     1
  0
TEXT
  5
DF
  8
0
  6
CONTINUOUS
 62
     7
 10
12.8037422345
 20
2.0577454095
 30
0.0
 40
0.075
  1
SGN
 41
0.7
 11
12.8037422345
 21
2.018950325
 31
0.0
 73
     1
  0
TEXT
  5
E0
  8
FORMAT
 62
     7
 10
12.8465470848
 20
1.8700281522
 30
0.0
 40
0.075
  1
HE
 41
0.7
 11
12.8465470848
 21
1.8312330676
 31
0.0
 73
     1
  0
TEXT
  5
E1
  8
FORMAT
 62
     7
 10
13.2045683815
 20
1.8652606222
 30
0.0
 40
0.075
  1
9/29/14
 41
0.7
 11
13.2045683815
 21
1.8264655376
 31
0.0
 73
     1
  0
TEXT
  5
E2
  8
0
  6
CONTINUOUS
 62
     7
 10
13.1748113924
 20
2.0537484692
 30
0.0
 40
0.075
  1
08/19/09
 41
0.7
 11
13.1748113924
 21
2.0149533847
 31
0.0
 73
     1
  0
TEXT
  5
E3
  8
0
  6
CONTINUOUS
 62
     7
 10
15.5034524529
 20
0.4752439586
 30
0.0
 40
0.1
  1
SHEET 1 OF 1
 41
0.6125
 11
15.5034524529
 21
0.4235171792
 31
0.0
 73
     1
  0
INSERT
  5
E9
  8
0
  6
CONTINUOUS
 62
     7
  2
SW_NOTE_0
 10
14.6430848191
 20
0.4987923157
 30
0.0
  0
INSERT
  5
F2
  8
0
  6
CONTINUOUS
 62
     7
  2
SW_NOTE_1
 10
15.2880090363
 20
2.157589203
 30
0.0
  0
INSERT
  5
118
  8
0
  6
CONTINUOUS
 62
     7
  2
SW_NOTE_2
 10
10.579915881
 20
2.0569035612
 30
0.0
  0
TEXT
  5
119
  8
0
  6
CONTINUOUS
 62
     7
 10
10.5725856511
 20
2.2757142538
 30
0.0
 40
0.07
  1
UNLESS OTHERWISE SPECIFIED:
 41
0.6740740741
 11
10.5725856511
 21
2.2395055082
 31
0.0
 73
     1
  0
TEXT
  5
11A
  8
0
  6
CONTINUOUS
 62
     7
 10
9.4579931059
 20
1.1221959317
 30
0.0
 40
0.06
  1
SURFACE AREA
 41
0.7
 11
9.4579931059
 21
1.0911598641
 31
0.0
 73
     1
  0
TEXT
  5
11B
  8
0
  6
CONTINUOUS
 62
     7
 10
9.4631410421
 20
1.4149449332
 30
0.0
 40
0.06
  1
WEIGHT
 41
0.7
 11
9.4631410421
 21
1.3839088655
 31
0.0
 73
     1
  0
TEXT
  5
11C
  8
0
  6
CONTINUOUS
 62
     7
 10
9.4624476928
 20
1.7117990064
 30
0.0
 40
0.06
  1
FINISH
 41
0.7
 11
9.4624476928
 21
1.6807629388
 31
0.0
 73
     1
  0
TEXT
  5
11D
  8
0
  6
CONTINUOUS
 62
     7
 10
9.4579931059
 20
1.9960055672
 30
0.0
 40
0.0625
  1
THICKNESS
 41
0.7
 11
9.4579931059
 21
1.9636763301
 31
0.0
 73
     1
  0
TEXT
  5
11E
  8
0
  6
CONTINUOUS
 62
     7
 10
9.4579931059
 20
2.299373622
 30
0.0
 40
0.06
  1
MATERIAL
 41
0.7
 11
9.4579931059
 21
2.2683375544
 31
0.0
 73
     1
  0
INSERT
  5
125
  8
0
  6
CONTINUOUS
 62
     7
  2
SW_NOTE_3
 10
9.6815699806
 20
0.7004346939
 30
0.0
  0
LINE
  5
126
  8
0
  6
CONTINUOUS
 62
     7
 10
3.5823449783
 20
5.6397899204
 30
0.0
 11
3.5823449783
 21
5.7972702354
 31
0.0
  0
LINE
  5
127
  8
0
  6
CONTINUOUS
 62
     7
 10
3.5823449783
 20
5.6397899204
 30
0.0
 11
3.2232898602
 21
5.6397899204
 31
0.0
  0
LINE
  5
128
  8
0
  6
CONTINUOUS
 62
     7
 10
3.2232898602
 20
5.6397899204
 30
0.0
 11
3.2232898602
 21
5.7972702354
 31
0.0
  0
LINE
  5
129
  8
0
  6
CONTINUOUS
 62
     7
 10
3.5823449783
 20
5.7972702354
 30
0.0
 11
3.2232898602
 21
5.7972702354
 31
0.0
  0
LINE
  5
12A
  8
0
  6
CONTINUOUS
 62
     7
 10
4.7516363169
 20
5.6004198417
 30
0.0
 11
4.7516363169
 21
5.7972702354
 31
0.0
  0
LINE
  5
12B
  8
0
  6
CONTINUOUS
 62
     7
 10
4.1610851358
 20
5.6004198417
 30
0.0
 11
4.1610851358
 21
5.7972702354
 31
0.0
  0
LINE
  5
12C
  8
0
  6
CONTINUOUS
 62
     7
 10
4.7516363169
 20
5.6004198417
 30
0.0
 11
4.1610851358
 21
5.6004198417
 31
0.0
  0
LINE
  5
12D
  8
0
  6
CONTINUOUS
 62
     7
 10
3.990218994
 20
5.6791599992
 30
0.0
 11
3.5823449783
 21
5.6791599992
 31
0.0
  0
LINE
  5
12E
  8
0
  6
CONTINUOUS
 62
     7
 10
3.2232898602
 20
5.6791599992
 30
0.0
 11
2.742187498
 21
5.6791599992
 31
0.0
  0
LINE
  5
12F
  8
0
  6
CONTINUOUS
 62
     7
 10
2.742187498
 20
5.6791599992
 30
0.0
 11
2.742187498
 21
5.7972702354
 31
0.0
  0
LINE
  5
130
  8
0
  6
CONTINUOUS
 62
     7
 10
3.990218994
 20
5.6791599992
 30
0.0
 11
3.990218994
 21
5.7972702354
 31
0.0
  0
LINE
  5
131
  8
0
  6
CONTINUOUS
 62
     7
 10
2.6673843484
 20
6.1909710228
 30
0.0
 11
2.6673843484
 21
5.8760103929
 31
0.0
  0
LINE
  5
132
  8
0
  6
CONTINUOUS
 62
     7
 10
2.6673843484
 20
6.1909710228
 30
0.0
 11
4.6358882854
 21
6.1909710228
 31
0.0
  0
LINE
  5
133
  8
0
  6
CONTINUOUS
 62
     7
 10
4.6358882854
 20
6.1909710228
 30
0.0
 11
4.6358882854
 21
5.8760103929
 31
0.0
  0
LINE
  5
134
  8
0
  6
CONTINUOUS
 62
     7
 10
2.6673843484
 20
5.8760103929
 30
0.0
 11
4.6358882854
 21
5.8760103929
 31
0.0
  0
LINE
  5
135
  8
0
  6
CONTINUOUS
 62
     7
 10
2.4917937972
 20
5.8760103929
 30
0.0
 11
2.4917937972
 21
5.7972702354
 31
0.0
  0
LINE
  5
136
  8
0
  6
CONTINUOUS
 62
     7
 10
5.8500615137
 20
5.8760103929
 30
0.0
 11
5.8500615137
 21
5.7972702354
 31
0.0
  0
LINE
  5
137
  8
0
  6
CONTINUOUS
 62
     7
 10
2.4917937972
 20
5.7972702354
 30
0.0
 11
5.8500615137
 21
5.7972702354
 31
0.0
  0
LINE
  5
138
  8
0
  6
CONTINUOUS
 62
     7
 10
2.4917937972
 20
5.8760103929
 30
0.0
 11
5.8500615137
 21
5.8760103929
 31
0.0
  0
LINE
  5
139
  8
0
  6
CONTINUOUS
 62
     7
 10
7.4878567893
 20
5.8760103929
 30
0.0
 11
7.4878567893
 21
5.7972702354
 31
0.0
  0
LINE
  5
13A
  8
0
  6
CONTINUOUS
 62
     7
 10
5.8500615137
 20
5.7972702354
 30
0.0
 11
7.4878567893
 21
5.7972702354
 31
0.0
  0
LINE
  5
13B
  8
0
  6
CONTINUOUS
 62
     7
 10
5.8500615137
 20
5.8760103929
 30
0.0
 11
7.4878567893
 21
5.8760103929
 31
0.0
  0
LINE
  5
13C
  8
0
  6
CONTINUOUS
 62
     7
 10
2.1768331673
 20
5.8760103929
 30
0.0
 11
2.1768331673
 21
5.7972702354
 31
0.0
  0
LINE
  5
13D
  8
0
  6
CONTINUOUS
 62
     7
 10
2.1768331673
 20
5.7972702354
 30
0.0
 11
2.4917937972
 21
5.7972702354
 31
0.0
  0
LINE
  5
13E
  8
0
  6
CONTINUOUS
 62
     7
 10
2.1768331673
 20
5.8760103929
 30
0.0
 11
2.4917937972
 21
5.8760103929
 31
0.0
  0
LINE
  5
13F
  8
0
  6
CONTINUOUS
 62
     7
 10
7.621715057
 20
5.8760103929
 30
0.0
 11
7.621715057
 21
5.7972702354
 31
0.0
  0
LINE
  5
140
  8
0
  6
CONTINUOUS
 62
     7
 10
7.4878567893
 20
5.7972702354
 30
0.0
 11
7.621715057
 21
5.7972702354
 31
0.0
  0
LINE
  5
141
  8
0
  6
CONTINUOUS
 62
     7
 10
7.4878567893
 20
5.8760103929
 30
0.0
 11
7.621715057
 21
5.8760103929
 31
0.0
  0
LINE
  5
142
  8
0
  6
CONTINUOUS
 62
     7
 10
4.1610851358
 20
9.7059055118
 30
0.0
 11
4.1610851358
 21
9.7956692913
 31
0.0
  0
LINE
  5
143
  8
0
  6
CONTINUOUS
 62
     7
 10
4.1610851358
 20
9.7956692913
 30
0.0
 11
4.7516363169
 21
9.7956692913
 31
0.0
  0
LINE
  5
144
  8
0
  6
CONTINUOUS
 62
     7
 10
4.7516363169
 20
9.7956692913
 30
0.0
 11
4.7516363169
 21
9.7059055118
 31
0.0
  0
LINE
  5
145
  8
0
  6
CONTINUOUS
 62
     7
 10
2.6673843484
 20
7.3043307087
 30
0.0
 11
4.6358882854
 21
7.3043307087
 31
0.0
  0
LINE
  5
146
  8
0
  6
CONTINUOUS
 62
     7
 10
4.6358882854
 20
9.2728346457
 30
0.0
 11
2.6673843484
 21
9.2728346457
 31
0.0
  0
LINE
  5
147
  8
0
  6
CONTINUOUS
 62
     7
 10
4.6358882854
 20
7.3043307087
 30
0.0
 11
4.6358882854
 21
9.2728346457
 31
0.0
  0
LINE
  5
148
  8
0
  6
CONTINUOUS
 62
     7
 10
2.6673843484
 20
9.2728346457
 30
0.0
 11
2.6673843484
 21
7.3043307087
 31
0.0
  0
CIRCLE
  5
149
  8
0
  6
CONTINUOUS
 62
     7
 10
2.4288016712
 20
8.0397637795
 30
0.0
 40
0.0590551181102361
  0
CIRCLE
  5
14A
  8
0
  6
CONTINUOUS
 62
     7
 10
7.4028174192
 20
9.1138159155
 30
0.0
 40
0.0590551181102352
  0
CIRCLE
  5
14B
  8
0
  6
CONTINUOUS
 62
     7
 10
7.3728961594
 20
8.4657844194
 30
0.0
 40
0.0669291338582685
  0
CIRCLE
  5
14C
  8
0
  6
CONTINUOUS
 62
     7
 10
7.4028174192
 20
9.3933434745
 30
0.0
 40
0.0787401574803148
  0
LINE
  5
14D
  8
0
  6
CONTINUOUS
 62
     7
 10
6.873683561
 20
9.7059055118
 30
0.0
 11
2.3658095452
 21
9.7059055118
 31
0.0
  0
LINE
  5
14E
  8
0
  6
CONTINUOUS
 62
     7
 10
7.621715057
 20
7.5877952756
 30
0.0
 11
7.621715057
 21
9.5484251969
 31
0.0
  0
LINE
  5
14F
  8
0
  6
CONTINUOUS
 62
     7
 10
7.4878567893
 20
7.5688976378
 30
0.0
 11
7.621715057
 21
7.5877952756
 31
0.0
  0
LINE
  5
150
  8
0
  6
CONTINUOUS
 62
     7
 10
5.8500615137
 20
7.3043307087
 30
0.0
 11
7.4878567893
 21
7.5688976378
 31
0.0
  0
LINE
  5
151
  8
0
  6
CONTINUOUS
 62
     7
 10
2.4917937972
 20
7.3043307087
 30
0.0
 11
2.6673843484
 21
7.3043307087
 31
0.0
  0
LINE
  5
152
  8
0
  6
CONTINUOUS
 62
     7
 10
4.6358882854
 20
7.3043307087
 30
0.0
 11
5.8500615137
 21
7.3043307087
 31
0.0
  0
LINE
  5
153
  8
0
  6
CONTINUOUS
 62
     7
 10
2.1768331673
 20
7.6035433071
 30
0.0
 11
2.4917937972
 21
7.3043307087
 31
0.0
  0
LINE
  5
154
  8
0
  6
CONTINUOUS
 62
     7
 10
2.1768331673
 20
9.5169291339
 30
0.0
 11
2.1768331673
 21
7.6035433071
 31
0.0
  0
LINE
  5
155
  8
0
  6
CONTINUOUS
 62
     7
 10
2.3658095452
 20
9.7059055118
 30
0.0
 11
2.1768331673
 21
9.5169291339
 31
0.0
  0
CIRCLE
  5
156
  8
0
  6
CONTINUOUS
 62
     7
 10
7.4028174192
 20
7.7437371753
 30
0.0
 40
0.0787401574803157
  0
CIRCLE
  5
157
  8
0
  6
CONTINUOUS
 62
     7
 10
7.3728961594
 20
8.7689340257
 30
0.0
 40
0.0669291338582667
  0
CIRCLE
  5
158
  8
0
  6
CONTINUOUS
 62
     7
 10
2.4288016712
 20
7.7625984252
 30
0.0
 40
0.0787401574803148
  0
LINE
  5
159
  8
0
  6
CONTINUOUS
 62
     7
 10
7.621715057
 20
9.5484251969
 30
0.0
 11
6.873683561
 21
9.7059055118
 31
0.0
  0
INSERT
  5
165
  8
0
  6
CONTINUOUS
 62
     7
  2
SW_CENTERMARKSYMBOL_0
 10
7.4028174192
 20
9.3933434745
 30
0.0
  0
INSERT
  5
171
  8
0
  6
CONTINUOUS
 62
     7
  2
SW_CENTERMARKSYMBOL_1
 10
7.4028174192
 20
7.7437371753
 30
0.0
  0
INSERT
  5
17D
  8
0
  6
CONTINUOUS
 62
     7
  2
SW_CENTERMARKSYMBOL_2
 10
7.3728961594
 20
8.4657844194
 30
0.0
  0
INSERT
  5
189
  8
0
  6
CONTINUOUS
 62
     7
  2
SW_CENTERMARKSYMBOL_3
 10
7.3728961594
 20
8.7689340257
 30
0.0
  0
INSERT
  5
195
  8
0
  6
CONTINUOUS
 62
     7
  2
SW_CENTERMARKSYMBOL_4
 10
7.4028174192
 20
9.1138159155
 30
0.0
  0
INSERT
  5
1A1
  8
0
  6
CONTINUOUS
 62
     7
  2
SW_CENTERMARKSYMBOL_5
 10
2.4288016712
 20
7.7625984252
 30
0.0
  0
INSERT
  5
1AD
  8
0
  6
CONTINUOUS
 62
     7
  2
SW_CENTERMARKSYMBOL_6
 10
2.4288016712
 20
8.0397637795
 30
0.0
  0
LINE
  5
1AE
  8
0
  6
CONTINUOUS
 62
     7
 10
11.3656254344
 20
5.6397899204
 30
0.0
 11
11.3656254344
 21
5.7972702354
 31
0.0
  0
LINE
  5
1AF
  8
0
  6
CONTINUOUS
 62
     7
 10
11.1766490564
 20
5.6397899204
 30
0.0
 11
11.1766490564
 21
5.7972702354
 31
0.0
  0
LINE
  5
1B0
  8
0
  6
CONTINUOUS
 62
     7
 10
11.3656254344
 20
5.6397899204
 30
0.0
 11
11.1766490564
 21
5.6397899204
 31
0.0
  0
LINE
  5
1B1
  8
0
  6
CONTINUOUS
 62
     7
 10
13.6679876391
 20
5.6004198417
 30
0.0
 11
13.6679876391
 21
5.7972702354
 31
0.0
  0
LINE
  5
1B2
  8
0
  6
CONTINUOUS
 62
     7
 10
13.2506648045
 20
5.6004198417
 30
0.0
 11
13.2506648045
 21
5.7972702354
 31
0.0
  0
LINE
  5
1B3
  8
0
  6
CONTINUOUS
 62
     7
 10
13.6679876391
 20
5.7972702354
 30
0.0
 11
13.5782238596
 21
5.7972702354
 31
0.0
  0
LINE
  5
1B4
  8
0
  6
CONTINUOUS
 62
     7
 10
13.6679876391
 20
5.6004198417
 30
0.0
 11
13.2506648045
 21
5.6004198417
 31
0.0
  0
LINE
  5
1B5
  8
0
  6
CONTINUOUS
 62
     7
 10
13.2506648045
 20
5.6791599992
 30
0.0
 11
12.2868852769
 21
5.6791599992
 31
0.0
  0
LINE
  5
1B6
  8
0
  6
CONTINUOUS
 62
     7
 10
12.2868852769
 20
5.6791599992
 30
0.0
 11
12.2868852769
 21
5.7972702354
 31
0.0
  0
LINE
  5
1B7
  8
0
  6
CONTINUOUS
 62
     7
 10
11.1766490564
 20
6.1909710228
 30
0.0
 11
11.1766490564
 21
5.8760103929
 31
0.0
  0
LINE
  5
1B8
  8
0
  6
CONTINUOUS
 62
     7
 10
11.1766490564
 20
6.1909710228
 30
0.0
 11
13.1451529935
 21
6.1909710228
 31
0.0
  0
LINE
  5
1B9
  8
0
  6
CONTINUOUS
 62
     7
 10
13.1451529935
 20
6.1909710228
 30
0.0
 11
13.1451529935
 21
5.8760103929
 31
0.0
  0
LINE
  5
1BA
  8
0
  6
CONTINUOUS
 62
     7
 10
13.4207435446
 20
5.8760103929
 30
0.0
 11
13.4207435446
 21
5.7972702354
 31
0.0
  0
LINE
  5
1BB
  8
0
  6
CONTINUOUS
 62
     7
 10
13.4207435446
 20
5.8760103929
 30
0.0
 11
13.5782238596
 21
5.8760103929
 31
0.0
  0
LINE
  5
1BC
  8
0
  6
CONTINUOUS
 62
     7
 10
13.5782238596
 20
5.8760103929
 30
0.0
 11
13.5782238596
 21
5.7972702354
 31
0.0
  0
LINE
  5
1BD
  8
0
  6
CONTINUOUS
 62
     7
 10
13.4207435446
 20
5.7972702354
 30
0.0
 11
13.5782238596
 21
5.7972702354
 31
0.0
  0
LINE
  5
1BE
  8
0
  6
CONTINUOUS
 62
     7
 10
11.4601136234
 20
5.8760103929
 30
0.0
 11
11.4601136234
 21
5.7972702354
 31
0.0
  0
LINE
  5
1BF
  8
0
  6
CONTINUOUS
 62
     7
 10
11.4601136234
 20
5.7972702354
 30
0.0
 11
13.4207435446
 21
5.7972702354
 31
0.0
  0
LINE
  5
1C0
  8
0
  6
CONTINUOUS
 62
     7
 10
11.4601136234
 20
5.8760103929
 30
0.0
 11
13.4207435446
 21
5.8760103929
 31
0.0
  0
LINE
  5
1C1
  8
0
  6
CONTINUOUS
 62
     7
 10
11.4412159856
 20
5.8760103929
 30
0.0
 11
11.4412159856
 21
5.7972702354
 31
0.0
  0
LINE
  5
1C2
  8
0
  6
CONTINUOUS
 62
     7
 10
11.4412159856
 20
5.7972702354
 30
0.0
 11
11.4601136234
 21
5.7972702354
 31
0.0
  0
LINE
  5
1C3
  8
0
  6
CONTINUOUS
 62
     7
 10
11.4412159856
 20
5.8760103929
 30
0.0
 11
11.4601136234
 21
5.8760103929
 31
0.0
  0
LINE
  5
1C4
  8
0
  6
CONTINUOUS
 62
     7
 10
11.1766490564
 20
5.8760103929
 30
0.0
 11
11.1766490564
 21
5.7972702354
 31
0.0
  0
LINE
  5
1C5
  8
0
  6
CONTINUOUS
 62
     7
 10
11.1766490564
 20
5.7972702354
 30
0.0
 11
11.4412159856
 21
5.7972702354
 31
0.0
  0
LINE
  5
1C6
  8
0
  6
CONTINUOUS
 62
     7
 10
11.1766490564
 20
5.8760103929
 30
0.0
 11
11.4412159856
 21
5.8760103929
 31
0.0
  0
LINE
  5
1C7
  8
0
  6
CONTINUOUS
 62
     7
 10
3.3968415898
 20
4.1044888937
 30
0.0
 11
3.7558967079
 21
4.1044888937
 31
0.0
  0
LINE
  5
1C8
  8
0
  6
CONTINUOUS
 62
     7
 10
3.3968415898
 20
4.2934652716
 30
0.0
 11
3.3968415898
 21
4.1044888937
 31
0.0
  0
LINE
  5
1C9
  8
0
  6
CONTINUOUS
 62
     7
 10
3.7558967079
 20
4.2934652716
 30
0.0
 11
3.3968415898
 21
4.2934652716
 31
0.0
  0
LINE
  5
1CA
  8
0
  6
CONTINUOUS
 62
     7
 10
3.7558967079
 20
4.1044888937
 30
0.0
 11
3.7558967079
 21
4.2934652716
 31
0.0
  0
LINE
  5
1CB
  8
0
  6
CONTINUOUS
 62
     7
 10
4.3346368653
 20
1.802126689
 30
0.0
 11
4.9251880464
 21
1.802126689
 31
0.0
  0
LINE
  5
1CC
  8
0
  6
CONTINUOUS
 62
     7
 10
4.3346368653
 20
2.2194495236
 30
0.0
 11
4.3346368653
 21
1.802126689
 31
0.0
  0
LINE
  5
1CD
  8
0
  6
CONTINUOUS
 62
     7
 10
4.9251880464
 20
2.2194495236
 30
0.0
 11
4.3346368653
 21
2.2194495236
 31
0.0
  0
LINE
  5
1CE
  8
0
  6
CONTINUOUS
 62
     7
 10
4.9251880464
 20
1.802126689
 30
0.0
 11
4.9251880464
 21
2.2194495236
 31
0.0
  0
LINE
  5
1CF
  8
0
  6
CONTINUOUS
 62
     7
 10
2.9157392276
 20
3.1832290512
 30
0.0
 11
2.9157392276
 21
1.8918904685
 31
0.0
  0
LINE
  5
1D0
  8
0
  6
CONTINUOUS
 62
     7
 10
4.1637707236
 20
3.1832290512
 30
0.0
 11
2.9157392276
 21
3.1832290512
 31
0.0
  0
LINE
  5
1D1
  8
0
  6
CONTINUOUS
 62
     7
 10
4.1637707236
 20
1.8918904685
 30
0.0
 11
4.1637707236
 21
3.1832290512
 31
0.0
  0
LINE
  5
1D2
  8
0
  6
CONTINUOUS
 62
     7
 10
2.9157392276
 20
1.8918904685
 30
0.0
 11
4.1637707236
 21
1.8918904685
 31
0.0
  0
CIRCLE
  5
1D3
  8
0
  6
CONTINUOUS
 62
     7
 10
7.546447889
 20
2.8288619546
 30
0.0
 40
0.0669291338582676
  0
CIRCLE
  5
1D4
  8
0
  6
CONTINUOUS
 62
     7
 10
7.546447889
 20
3.1320115609
 30
0.0
 40
0.0669291338582676
  0
CIRCLE
  5
1D5
  8
0
  6
CONTINUOUS
 62
     7
 10
7.5763691488
 20
3.854058805
 30
0.0
 40
0.0787401574803148
  0
CIRCLE
  5
1D6
  8
0
  6
CONTINUOUS
 62
     7
 10
7.5763691488
 20
2.2044525058
 30
0.0
 40
0.0787401574803148
  0
LINE
  5
1D7
  8
0
  6
CONTINUOUS
 62
     7
 10
2.3503848968
 20
2.0808668464
 30
0.0
 11
2.3503848968
 21
3.9942526732
 31
0.0
  0
LINE
  5
1D8
  8
0
  6
CONTINUOUS
 62
     7
 10
2.3503848968
 20
3.9942526732
 30
0.0
 11
2.6653455268
 21
4.2934652716
 31
0.0
  0
LINE
  5
1D9
  8
0
  6
CONTINUOUS
 62
     7
 10
2.6653455268
 20
4.2934652716
 30
0.0
 11
3.3968415898
 21
4.2934652716
 31
0.0
  0
LINE
  5
1DA
  8
0
  6
CONTINUOUS
 62
     7
 10
3.7558967079
 20
4.2934652716
 30
0.0
 11
6.0236132433
 21
4.2934652716
 31
0.0
  0
LINE
  5
1DB
  8
0
  6
CONTINUOUS
 62
     7
 10
6.0236132433
 20
4.2934652716
 30
0.0
 11
7.6614085189
 21
4.0288983425
 31
0.0
  0
LINE
  5
1DC
  8
0
  6
CONTINUOUS
 62
     7
 10
2.5393612748
 20
1.8918904685
 30
0.0
 11
2.3503848968
 21
2.0808668464
 31
0.0
  0
LINE
  5
1DD
  8
0
  6
CONTINUOUS
 62
     7
 10
7.0472352905
 20
1.8918904685
 30
0.0
 11
4.9251880464
 21
1.8918904685
 31
0.0
  0
LINE
  5
1DE
  8
0
  6
CONTINUOUS
 62
     7
 10
4.3346368653
 20
1.8918904685
 30
0.0
 11
4.1637707236
 21
1.8918904685
 31
0.0
  0
LINE
  5
1DF
  8
0
  6
CONTINUOUS
 62
     7
 10
2.9157392276
 20
1.8918904685
 30
0.0
 11
2.5393612748
 21
1.8918904685
 31
0.0
  0
LINE
  5
1E0
  8
0
  6
CONTINUOUS
 62
     7
 10
7.7952667866
 20
2.0493707834
 30
0.0
 11
7.0472352905
 21
1.8918904685
 31
0.0
  0
LINE
  5
1E1
  8
0
  6
CONTINUOUS
 62
     7
 10
7.7952667866
 20
4.0100007047
 30
0.0
 11
7.7952667866
 21
2.0493707834
 31
0.0
  0
LINE
  5
1E2
  8
0
  6
CONTINUOUS
 62
     7
 10
7.6614085189
 20
4.0288983425
 30
0.0
 11
7.7952667866
 21
4.0100007047
 31
0.0
  0
CIRCLE
  5
1E3
  8
0
  6
CONTINUOUS
 62
     7
 10
2.6023534008
 20
3.5580322008
 30
0.0
 40
0.0590551181102361
  0
CIRCLE
  5
1E4
  8
0
  6
CONTINUOUS
 62
     7
 10
2.6023534008
 20
3.8351975551
 30
0.0
 40
0.0787401574803148
  0
CIRCLE
  5
1E5
  8
0
  6
CONTINUOUS
 62
     7
 10
7.5763691488
 20
2.4839800648
 30
0.0
 40
0.0590551181102366
  0
INSERT
  5
1F1
  8
0
  6
CONTINUOUS
 62
     7
  2
SW_CENTERMARKSYMBOL_7
 10
7.5763691488
 20
2.2044525058
 30
0.0
  0
INSERT
  5
1FD
  8
0
  6
CONTINUOUS
 62
     7
  2
SW_CENTERMARKSYMBOL_8
 10
7.5763691488
 20
3.854058805
 30
0.0
  0
INSERT
  5
209
  8
0
  6
CONTINUOUS
 62
     7
  2
SW_CENTERMARKSYMBOL_9
 10
7.546447889
 20
3.1320115609
 30
0.0
  0
INSERT
  5
215
  8
0
  6
CONTINUOUS
 62
     7
  2
SW_CENTERMARKSYMBOL_10
 10
7.546447889
 20
2.8288619546
 30
0.0
  0
INSERT
  5
221
  8
0
  6
CONTINUOUS
 62
     7
  2
SW_CENTERMARKSYMBOL_11
 10
7.5763691488
 20
2.4839800648
 30
0.0
  0
INSERT
  5
22D
  8
0
  6
CONTINUOUS
 62
     7
  2
SW_CENTERMARKSYMBOL_12
 10
2.6023534008
 20
3.8351975551
 30
0.0
  0
INSERT
  5
239
  8
0
  6
CONTINUOUS
 62
     7
  2
SW_CENTERMARKSYMBOL_13
 10
2.6023534008
 20
3.5580322008
 30
0.0
  0
INSERT
  5
245
  8
0
  6
CONTINUOUS
 62
     7
  2
SW_CENTERMARKSYMBOL_14
 10
7.5763691488
 20
2.2044525058
 30
0.0
  0
INSERT
  5
251
  8
0
  6
CONTINUOUS
 62
     7
  2
SW_CENTERMARKSYMBOL_15
 10
7.5763691488
 20
3.854058805
 30
0.0
  0
INSERT
  5
25D
  8
0
  6
CONTINUOUS
 62
     7
  2
SW_CENTERMARKSYMBOL_16
 10
7.546447889
 20
3.1320115609
 30
0.0
  0
INSERT
  5
269
  8
0
  6
CONTINUOUS
 62
     7
  2
SW_CENTERMARKSYMBOL_17
 10
7.546447889
 20
2.8288619546
 30
0.0
  0
INSERT
  5
275
  8
0
  6
CONTINUOUS
 62
     7
  2
SW_CENTERMARKSYMBOL_18
 10
7.5763691488
 20
2.4839800648
 30
0.0
  0
INSERT
  5
281
  8
0
  6
CONTINUOUS
 62
     7
  2
SW_CENTERMARKSYMBOL_19
 10
2.6023534008
 20
3.8351975551
 30
0.0
  0
INSERT
  5
28D
  8
0
  6
CONTINUOUS
 62
     7
  2
SW_CENTERMARKSYMBOL_20
 10
2.6023534008
 20
3.5580322008
 30
0.0
  0
ENDSEC
  0
EOF
