  0
SECTION
  2
HEADER
  9
$ACADVER
  1
AC1009
  9
$DWGCODEPAGE
  3
ansi_1252
  9
$INSBASE
 10
0.0
 20
0.0
 30
0.0
  9
$EXTMIN
 10
0.0
 20
0.0
 30
0.0
  9
$EXTMAX
 10
431.8
 20
279.4
 30
0.0
  9
$LIMMIN
 10
0.0
 20
0.0
  9
$LIMMAX
 10
431.8
 20
279.4
  9
$ORTHOMODE
 70
     0
  9
$REGENMODE
 70
     1
  9
$FILLMODE
 70
     1
  9
$QTEXTMODE
 70
     0
  9
$MIRRTEXT
 70
     1
  9
$DRAGMODE
 70
     2
  9
$LTSCALE
 40
1.0
  9
$OSMODE
 70
    37
  9
$ATTMODE
 70
     1
  9
$TEXTSIZE
 40
3.175
  9
$TRACEWID
 40
1.0
  9
$TEXTSTYLE
  7
STANDARD
  9
$CLAYER
  8
0
  9
$CELTYPE
  6
BYLAYER
  9
$CECOLOR
 62
   256
  9
$DIMSCALE
 40
1.0
  9
$DIMASZ
 40
3.302
  9
$DIMEXO
 40
1.27
  9
$DIMDLI
 40
3.75
  9
$DIMRND
 40
0.0
  9
$DIMDLE
 40
0.0
  9
$DIMEXE
 40
3.175
  9
$DIMTP
 40
0.0
  9
$DIMTM
 40
0.0
  9
$DIMTXT
 40
3.175
  9
$DIMCEN
 40
2.5
  9
$DIMTSZ
 40
0.0
  9
$DIMTOL
 70
     0
  9
$DIMLIM
 70
     0
  9
$DIMTIH
 70
     1
  9
$DIMTOH
 70
     1
  9
$DIMSE1
 70
     0
  9
$DIMSE2
 70
     0
  9
$DIMTAD
 70
     0
  9
$DIMZIN
 70
     0
  9
$DIMBLK
  1

  9
$DIMASO
 70
     1
  9
$DIMSHO
 70
     1
  9
$DIMPOST
  1

  9
$DIMAPOST
  1

  9
$DIMALT
 70
     0
  9
$DIMALTD
 70
     3
  9
$DIMALTF
 40
0.0393700787
  9
$DIMLFAC
 40
0.5
  9
$DIMTOFL
 70
     1
  9
$DIMTVP
 40
0.0
  9
$DIMTIX
 70
     0
  9
$DIMSOXD
 70
     0
  9
$DIMSAH
 70
     0
  9
$DIMBLK1
  1

  9
$DIMBLK2
  1

  9
$DIMSTYLE
  2
ISO-25
  9
$DIMCLRD
 70
     0
  9
$DIMCLRE
 70
     0
  9
$DIMCLRT
 70
     0
  9
$DIMTFAC
 40
1.0
  9
$DIMGAP
 40
1.524
  9
$LUNITS
 70
     2
  9
$LUPREC
 70
     2
  9
$SKETCHINC
 40
1.0
  9
$FILLETRAD
 40
10.0
  9
$AUNITS
 70
     0
  9
$AUPREC
 70
     2
  9
$MENU
  1
.
  9
$ELEVATION
 40
0.0
  9
$PELEVATION
 40
0.0
  9
$THICKNESS
 40
0.0
  9
$LIMCHECK
 70
     0
  9
$CHAMFERA
 40
0.0
  9
$CHAMFERB
 40
0.0
  9
$SKPOLY
 70
     0
  9
$TDCREATE
 40
2458079.69360147
  9
$TDUPDATE
 40
2458079.693603287
  9
$TDINDWG
 40
0.0000000116
  9
$TDUSRTIMER
 40
0.0000000116
  9
$USRTIMER
 70
     1
  9
$ANGBASE
 50
0.0
  9
$ANGDIR
 70
     0
  9
$PDMODE
 70
     0
  9
$PDSIZE
 40
-1.0
  9
$PLINEWID
 40
0.0
  9
$COORDS
 70
     1
  9
$SPLFRAME
 70
     0
  9
$SPLINETYPE
 70
     6
  9
$SPLINESEGS
 70
     8
  9
$ATTDIA
 70
     0
  9
$ATTREQ
 70
     1
  9
$HANDLING
 70
     1
  9
$HANDSEED
  5
2BA
  9
$SURFTAB1
 70
     6
  9
$SURFTAB2
 70
     6
  9
$SURFTYPE
 70
     6
  9
$SURFU
 70
     6
  9
$SURFV
 70
     6
  9
$UCSNAME
  2

  9
$UCSORG
 10
0.0
 20
0.0
 30
0.0
  9
$UCSXDIR
 10
1.0
 20
0.0
 30
0.0
  9
$UCSYDIR
 10
0.0
 20
1.0
 30
0.0
  9
$PUCSNAME
  2

  9
$PUCSORG
 10
0.0
 20
0.0
 30
0.0
  9
$PUCSXDIR
 10
1.0
 20
0.0
 30
0.0
  9
$PUCSYDIR
 10
0.0
 20
1.0
 30
0.0
  9
$USERI1
 70
     0
  9
$USERI2
 70
     0
  9
$USERI3
 70
     0
  9
$USERI4
 70
     0
  9
$USERI5
 70
     0
  9
$USERR1
 40
0.0
  9
$USERR2
 40
0.0
  9
$USERR3
 40
0.0
  9
$USERR4
 40
0.0
  9
$USERR5
 40
0.0
  9
$WORLDVIEW
 70
     1
  9
$SHADEDGE
 70
     3
  9
$SHADEDIF
 70
    70
  9
$TILEMODE
 70
     1
  9
$MAXACTVP
 70
    64
  9
$PLIMCHECK
 70
     0
  9
$PEXTMIN
 10
1.0000000000E+20
 20
1.0000000000E+20
 30
1.0000000000E+20
  9
$PEXTMAX
 10
-1.0000000000E+20
 20
-1.0000000000E+20
 30
-1.0000000000E+20
  9
$PLIMMIN
 10
0.0
 20
0.0
  9
$PLIMMAX
 10
420.0
 20
297.0
  9
$UNITMODE
 70
     0
  9
$VISRETAIN
 70
     1
  9
$PLINEGEN
 70
     0
  9
$PSLTSCALE
 70
     1
  0
ENDSEC
  0
SECTION
  2
TABLES
  0
TABLE
  2
VPORT
 70
     1
  0
VPORT
  2
*ACTIVE
 70
     0
 10
0.0
 20
0.0
 11
1.0
 21
1.0
 12
215.9
 22
139.7
 13
0.0
 23
0.0
 14
10.0
 24
10.0
 15
10.0
 25
10.0
 16
0.0
 26
0.0
 36
1.0
 17
0.0
 27
0.0
 37
0.0
 40
279.4
 41
1.5454545455
 42
50.0
 43
0.0
 44
0.0
 50
0.0
 51
0.0
 71
     0
 72
  2000
 73
     1
 74
     3
 75
     0
 76
     0
 77
     0
 78
     0
  0
ENDTAB
  0
TABLE
  2
LTYPE
 70
     6
  0
LTYPE
  2
CONTINUOUS
 70
     0
  3
Solid line
 72
    65
 73
     0
 40
0.0
  0
LTYPE
  2
HIDDEN
 70
     0
  3
Hidden __ __ __ __ __ __ __ __ __ __ __ __ __ __
 72
    65
 73
     2
 40
1.905
 49
1.27
 49
-0.635
  0
LTYPE
  2
PHANTOM
 70
     0
  3
Phantom ______  __  __  ______  __  __  ______
 72
    65
 73
     6
 40
12.7
 49
6.35
 49
-1.27
 49
1.27
 49
-1.27
 49
1.27
 49
-1.27
  0
LTYPE
  2
CENTER
 70
     0
  3
Center ____ _ ____ _ ____ _ ____ _ ____ _ ____
 72
    65
 73
     4
 40
10.16
 49
6.35
 49
-1.27
 49
1.27
 49
-1.27
  0
LTYPE
  2
CENTERX2
 70
     0
  3
Center (2x) ________  __  ________  __  _____
 72
    65
 73
     4
 40
20.32
 49
12.7
 49
-2.54
 49
2.54
 49
-2.54
  0
LTYPE
  2
DOT2
 70
     0
  3
Dot (.5x) ........................................
 72
    65
 73
     2
 40
0.635
 49
0.0
 49
-0.635
  0
ENDTAB
  0
TABLE
  2
LAYER
 70
     2
  0
LAYER
  2
0
 70
     0
 62
     7
  6
CONTINUOUS
  0
LAYER
  2
FORMAT
 70
     0
 62
     7
  6
CONTINUOUS
  0
ENDTAB
  0
TABLE
  2
STYLE
 70
     1
  0
STYLE
  2
STANDARD
 70
     0
 40
0.0
 41
1.0
 50
0.0
 71
     0
 42
3.175
  3
txt
  4

  0
ENDTAB
  0
TABLE
  2
VIEW
 70
     0
  0
ENDTAB
  0
TABLE
  2
UCS
 70
     0
  0
ENDTAB
  0
TABLE
  2
APPID
 70
     1
  0
APPID
  2
ACAD
 70
     0
  0
ENDTAB
  0
TABLE
  2
DIMSTYLE
 70
     5
  0
DIMSTYLE
  2
ISO-25
 70
     0
  3

  4

  5

  6

  7

 40
1.0
 41
2.5
 42
0.625
 43
3.75
 44
1.25
 45
0.0
 46
0.0
 47
0.0
 48
0.0
140
2.5
141
2.5
142
0.0
143
0.0393700787
144
1.0
145
0.0
146
1.0
147
0.625
 71
     0
 72
     0
 73
     0
 74
     0
 75
     0
 76
     0
 77
     1
 78
     8
170
     0
171
     3
172
     1
173
     0
174
     0
175
     0
176
     0
177
     0
178
     0
  0
DIMSTYLE
  2
SLDDIMSTYLE0
 70
     0
  3

  4

  5

  6

  7

 40
1.0
 41
3.302
 42
0.0625
 43
0.38
 44
0.0
 45
0.000000001
 46
0.0
 47
0.0
 48
0.0
140
3.175
141
0.09
142
0.0
143
25.4
144
0.5
145
0.0
146
1.0
147
0.79375
 71
     0
 72
     0
 73
     1
 74
     1
 75
     0
 76
     0
 77
     0
 78
    12
170
     0
171
     2
172
     0
173
     1
174
     0
175
     0
176
     0
177
     0
178
     0
  0
DIMSTYLE
  2
SLDDIMSTYLE1
 70
     0
  3

  4

  5

  6

  7

 40
1.0
 41
3.302
 42
0.0625
 43
0.38
 44
0.0
 45
0.000000001
 46
0.0
 47
0.0
 48
0.0
140
3.175
141
0.09
142
0.0
143
25.4
144
0.5
145
0.0
146
1.0
147
0.79375
 71
     0
 72
     0
 73
     1
 74
     1
 75
     0
 76
     0
 77
     0
 78
     4
170
     0
171
     2
172
     0
173
     1
174
     0
175
     0
176
     0
177
     0
178
     0
  0
DIMSTYLE
  2
SLDDIMSTYLE2
 70
     0
  3

  4

  5

  6

  7

 40
1.0
 41
3.302
 42
0.0625
 43
0.38
 44
0.0
 45
0.000000001
 46
0.0
 47
0.0
 48
0.0
140
3.175
141
0.0
142
0.0
143
25.4
144
0.5
145
0.0
146
1.0
147
0.79375
 71
     0
 72
     0
 73
     1
 74
     1
 75
     0
 76
     0
 77
     0
 78
    12
170
     0
171
     2
172
     0
173
     1
174
     0
175
     0
176
     0
177
     0
178
     0
  0
DIMSTYLE
  2
SLDDIMSTYLE3
 70
     0
  3

  4

  5

  6

  7

 40
1.0
 41
3.302
 42
0.0625
 43
0.38
 44
0.0
 45
0.000000001
 46
0.0
 47
0.0
 48
0.0
140
3.175
141
0.0
142
0.0
143
25.4
144
0.5
145
0.0
146
1.0
147
0.79375
 71
     0
 72
     0
 73
     1
 74
     1
 75
     0
 76
     0
 77
     0
 78
     4
170
     0
171
     2
172
     0
173
     1
174
     0
175
     0
176
     0
177
     0
178
     0
  0
ENDTAB
  0
ENDSEC
  0
SECTION
  2
BLOCKS
  0
BLOCK
  8
0
  2
$MODEL_SPACE
 70
     0
 10
0.0
 20
0.0
 30
0.0
  3
$MODEL_SPACE
  1

  0
ENDBLK
  5
21
  8
0
  0
BLOCK
 67
     1
  8
0
  2
$PAPER_SPACE
 70
     0
 10
0.0
 20
0.0
 30
0.0
  3
$PAPER_SPACE
  1

  0
ENDBLK
  5
1D
 67
     1
  8
0
  0
BLOCK
  8
0
  2
SW_NOTE_0
 70
     0
 10
0.0
 20
0.0
 30
0.0
  3
SW_NOTE_0
  1

  0
TEXT
  5
E7
  8
0
  6
CONTINUOUS
 62
     0
 10
0.0
 20
0.8211626229
 30
0.0
 40
1.5875
  1
DO NOT SCALE
 41
0.6416666667
 11
0.0
 21
0.0
 31
0.0
 73
     1
  0
TEXT
  5
E8
  8
0
  6
CONTINUOUS
 62
     0
 10
2.4749571458
 20
-1.2955040182
 30
0.0
 40
1.5875
  1
DRAWING
 41
0.7
 11
2.4749571458
 21
-2.1166666411
 31
0.0
 73
     1
  0
ENDBLK
  5
E6
  8
0
  0
BLOCK
  8
0
  2
SW_NOTE_1
 70
     0
 10
0.0
 20
0.0
 30
0.0
  3
SW_NOTE_1
  1

  0
TEXT
  5
ED
  8
0
  6
CONTINUOUS
 62
     0
 10
0.0
 20
0.788316118
 30
0.0
 40
1.524
  1
800 HEINZ AVENUE SUITE 11
 41
0.644
 11
0.0
 21
0.0
 31
0.0
 73
     1
  0
TEXT
  5
EE
  8
0
  6
CONTINUOUS
 62
     0
 10
0.0
 20
-1.7356837761
 30
0.0
 40
1.524
  1
BERKELEY CA 94710 USA
 41
0.65
 11
0.0
 21
-2.523999894
 31
0.0
 73
     1
  0
TEXT
  5
EF
  8
0
  6
CONTINUOUS
 62
     0
 10
0.0
 20
-4.2596836701
 30
0.0
 40
1.524
  1
TEL: (510) 549-2853
 41
0.6631578947
 11
0.0
 21
-5.0479997881
 31
0.0
 73
     1
  0
TEXT
  5
F0
  8
0
  6
CONTINUOUS
 62
     0
 10
0.0
 20
-6.7836835641
 30
0.0
 40
1.524
  1
FAX: (510) 549-9157
 41
0.6631578947
 11
0.0
 21
-7.5719996821
 31
0.0
 73
     1
  0
TEXT
  5
F1
  8
0
  6
CONTINUOUS
 62
     0
 10
0.0
 20
-9.3076834582
 30
0.0
 40
1.524
  1
info@elocktech.com
 41
0.7
 11
0.0
 21
-10.0959995762
 31
0.0
 73
     1
  0
ENDBLK
  5
EC
  8
0
  0
BLOCK
  8
0
  2
SW_NOTE_2
 70
     0
 10
0.0
 20
0.0
 30
0.0
  3
SW_NOTE_2
  1

  0
TEXT
  5
F6
  8
0
  6
CONTINUOUS
 62
     0
 10
0.0
 20
0.8540091278
 30
0.0
 40
1.651
  1
DIMENSIONS ARE IN INCHES
 41
0.65625
 11
0.0
 21
0.0
 31
0.0
 73
     1
  0
TEXT
  5
F7
  8
0
  6
CONTINUOUS
 62
     0
 10
0.0
 20
-1.796990802
 30
0.0
 40
1.651
  1
TOLERANCES
 41
0.7
 11
0.0
 21
-2.6509999298
 31
0.0
 73
     1
  0
TEXT
  5
F8
  8
0
  6
CONTINUOUS
 62
     0
 10
13.4126553312
 20
-1.796990802
 30
0.0
 40
1.651
  1
:
 41
0.7
 11
13.4126553312
 21
-2.6509999298
 31
0.0
 73
     1
  0
TEXT
  5
F9
  8
0
  6
CONTINUOUS
 62
     0
 10
0.0
 20
-3.9465037733
 30
0.0
 40
1.5875
  1
INCH
 41
0.7
 11
0.0
 21
-4.7676663962
 31
0.0
 73
     1
  0
TEXT
  5
FA
  8
0
  6
CONTINUOUS
 62
     0
 10
0.0
 20
-6.0631704144
 30
0.0
 40
1.5875
  1
X.X = 
 41
0.5833333333
 11
0.0
 21
-6.8843330373
 31
0.0
 73
     1
  0
TEXT
  5
FB
  8
0
  6
CONTINUOUS
 62
     0
 10
5.5066407658
 20
-6.0631704144
 30
0.0
 40
1.5875
  1
%%p
 41
0.7
 11
5.5066407658
 21
-6.8843330373
 31
0.0
 73
     1
  0
TEXT
  5
FC
  8
0
  6
CONTINUOUS
 62
     0
 10
7.020057179
 20
-6.0631704144
 30
0.0
 40
1.5875
  1
.1
 41
0.7
 11
7.020057179
 21
-6.8843330373
 31
0.0
 73
     1
  0
TEXT
  5
FD
  8
0
  6
CONTINUOUS
 62
     0
 10
0.0
 20
-8.1798370555
 30
0.0
 40
1.5875
  1
X.XX = 
 41
0.6
 11
0.0
 21
-9.0009996784
 31
0.0
 73
     1
  0
TEXT
  5
FE
  8
0
  6
CONTINUOUS
 62
     0
 10
6.7770080641
 20
-8.1798370555
 30
0.0
 40
1.5875
  1
%%p
 41
0.7
 11
6.7770080641
 21
-9.0009996784
 31
0.0
 73
     1
  0
TEXT
  5
FF
  8
0
  6
CONTINUOUS
 62
     0
 10
8.290424943
 20
-8.1798370555
 30
0.0
 40
1.5875
  1
.01
 41
0.7
 11
8.290424943
 21
-9.0009996784
 31
0.0
 73
     1
  0
TEXT
  5
100
  8
0
  6
CONTINUOUS
 62
     0
 10
0.0
 20
-10.2965036966
 30
0.0
 40
1.5875
  1
X.XXX= 
 41
0.7
 11
0.0
 21
-11.1176663195
 31
0.0
 73
     1
  0
TEXT
  5
101
  8
0
  6
CONTINUOUS
 62
     0
 10
7.4623525143
 20
-10.2965036966
 30
0.0
 40
1.5875
  1
%%p
 41
0.7
 11
7.4623525143
 21
-11.1176663195
 31
0.0
 73
     1
  0
TEXT
  5
102
  8
0
  6
CONTINUOUS
 62
     0
 10
8.9757693931
 20
-10.2965036966
 30
0.0
 40
1.5875
  1
.005
 41
0.7
 11
8.9757693931
 21
-11.1176663195
 31
0.0
 73
     1
  0
TEXT
  5
103
  8
0
  6
CONTINUOUS
 62
     0
 10
0.0
 20
-12.9146572961
 30
0.0
 40
1.651
  1
ANGLES
 41
0.7
 11
0.0
 21
-13.7686664239
 31
0.0
 73
     1
  0
TEXT
  5
104
  8
0
  6
CONTINUOUS
 62
     0
 10
0.0
 20
-15.5656572258
 30
0.0
 40
1.651
  1
X
 41
0.7
 11
0.0
 21
-16.4196663536
 31
0.0
 73
     1
  0
TEXT
  5
105
  8
0
  6
CONTINUOUS
 62
     0
 10
1.3233796926
 20
-15.5656572258
 30
0.0
 40
1.651
  1
%%d
 41
0.7
 11
1.3233796926
 21
-16.4196663536
 31
0.0
 73
     1
  0
TEXT
  5
106
  8
0
  6
CONTINUOUS
 62
     0
 10
2.3717647418
 20
-15.5656572258
 30
0.0
 40
1.651
  1
 = 
 41
0.4666666667
 11
2.3717647418
 21
-16.4196663536
 31
0.0
 73
     1
  0
TEXT
  5
107
  8
0
  6
CONTINUOUS
 62
     0
 10
4.8955590464
 20
-15.5656572258
 30
0.0
 40
1.651
  1
%%p
 41
0.7
 11
4.8955590464
 21
-16.4196663536
 31
0.0
 73
     1
  0
TEXT
  5
108
  8
0
  6
CONTINUOUS
 62
     0
 10
6.4681367949
 20
-15.5656572258
 30
0.0
 40
1.651
  1
3
 41
0.7
 11
6.4681367949
 21
-16.4196663536
 31
0.0
 73
     1
  0
TEXT
  5
109
  8
0
  6
CONTINUOUS
 62
     0
 10
7.6676914468
 20
-15.5656572258
 30
0.0
 40
1.651
  1
%%d
 41
0.7
 11
7.6676914468
 21
-16.4196663536
 31
0.0
 73
     1
  0
TEXT
  5
10A
  8
0
  6
CONTINUOUS
 62
     0
 10
0.0
 20
-18.2166571556
 30
0.0
 40
1.651
  1
X.X
 41
0.7
 11
0.0
 21
-19.0706662834
 31
0.0
 73
     1
  0
TEXT
  5
10B
  8
0
  6
CONTINUOUS
 62
     0
 10
3.2134307548
 20
-18.2166571556
 30
0.0
 40
1.651
  1
%%d
 41
0.7
 11
3.2134307548
 21
-19.0706662834
 31
0.0
 73
     1
  0
TEXT
  5
10C
  8
0
  6
CONTINUOUS
 62
     0
 10
4.2618159205
 20
-18.2166571556
 30
0.0
 40
1.651
  1
 = 
 41
0.4666666667
 11
4.2618159205
 21
-19.0706662834
 31
0.0
 73
     1
  0
TEXT
  5
10D
  8
0
  6
CONTINUOUS
 62
     0
 10
6.7856102251
 20
-18.2166571556
 30
0.0
 40
1.651
  1
%%p
 41
0.7
 11
6.7856102251
 21
-19.0706662834
 31
0.0
 73
     1
  0
TEXT
  5
10E
  8
0
  6
CONTINUOUS
 62
     0
 10
8.3581879735
 20
-18.2166571556
 30
0.0
 40
1.651
  1
1.0
 41
0.7
 11
8.3581879735
 21
-19.0706662834
 31
0.0
 73
     1
  0
TEXT
  5
10F
  8
0
  6
CONTINUOUS
 62
     0
 10
11.2454313785
 20
-18.2166571556
 30
0.0
 40
1.651
  1
%%d
 41
0.7
 11
11.2454313785
 21
-19.0706662834
 31
0.0
 73
     1
  0
TEXT
  5
110
  8
0
  6
CONTINUOUS
 62
     0
 10
0.0
 20
-20.8676570853
 30
0.0
 40
1.651
  1
X.XX
 41
0.7
 11
0.0
 21
-21.7216662131
 31
0.0
 73
     1
  0
TEXT
  5
111
  8
0
  6
CONTINUOUS
 62
     0
 10
4.536810331
 20
-20.8676570853
 30
0.0
 40
1.651
  1
%%d
 41
0.7
 11
4.536810331
 21
-21.7216662131
 31
0.0
 73
     1
  0
TEXT
  5
112
  8
0
  6
CONTINUOUS
 62
     0
 10
5.5851954967
 20
-20.8676570853
 30
0.0
 40
1.651
  1
 = 
 41
0.4666666667
 11
5.5851954967
 21
-21.7216662131
 31
0.0
 73
     1
  0
TEXT
  5
113
  8
0
  6
CONTINUOUS
 62
     0
 10
8.1089902669
 20
-20.8676570853
 30
0.0
 40
1.651
  1
%%p
 41
0.7
 11
8.1089902669
 21
-21.7216662131
 31
0.0
 73
     1
  0
TEXT
  5
114
  8
0
  6
CONTINUOUS
 62
     0
 10
9.6815675497
 20
-20.8676570853
 30
0.0
 40
1.651
  1
.5
 41
0.7
 11
9.6815675497
 21
-21.7216662131
 31
0.0
 73
     1
  0
TEXT
  5
115
  8
0
  6
CONTINUOUS
 62
     0
 10
11.4449271932
 20
-20.8676570853
 30
0.0
 40
1.651
  1
%%d
 41
0.7
 11
11.4449271932
 21
-21.7216662131
 31
0.0
 73
     1
  0
TEXT
  5
116
  8
0
  6
CONTINUOUS
 62
     0
 10
0.0
 20
-23.0171700567
 30
0.0
 40
1.5875
  1
HOLES FOR PEM FSTNRS: 
 41
0.6363636364
 11
0.0
 21
-23.8383326796
 31
0.0
 73
     1
  0
TEXT
  5
117
  8
0
  6
CONTINUOUS
 62
     0
 10
0.0
 20
-25.1338366978
 30
0.0
 40
1.5875
  1
+.003"/-.000"
 41
0.7
 11
0.0
 21
-25.9549993207
 31
0.0
 73
     1
  0
ENDBLK
  5
F5
  8
0
  0
BLOCK
  8
0
  2
SW_NOTE_3
 70
     0
 10
0.0
 20
0.0
 30
0.0
  3
SW_NOTE_3
  1

  0
TEXT
  5
122
  8
0
  6
CONTINUOUS
 62
     0
 10
0.0
 20
0.788316118
 30
0.0
 40
1.524
  1
This drawing and the information contained herein is 
 41
0.6471698113
 11
0.0
 21
0.0
 31
0.0
 73
     1
  0
TEXT
  5
123
  8
0
  6
CONTINUOUS
 62
     0
 10
0.0
 20
-1.7356837761
 30
0.0
 40
1.524
  1
the property of eLock Technologies LLC and shall not 
 41
0.6405660377
 11
0.0
 21
-2.523999894
 31
0.0
 73
     1
  0
TEXT
  5
124
  8
0
  6
CONTINUOUS
 62
     0
 10
0.0
 20
-4.2596836701
 30
0.0
 40
1.524
  1
be used for any purpose without our written consent.
 41
0.6461538462
 11
0.0
 21
-5.0479997881
 31
0.0
 73
     1
  0
ENDBLK
  5
121
  8
0
  0
BLOCK
  8
0
  2
_D
 70
     0
 10
0.0
 20
0.0
 30
0.0
  3
_D
  1

  0
SOLID
  5
15F
  8
0
  6
CONTINUOUS
 62
     7
 10
55.2915624485
 20
258.81
 30
0.0
 11
58.5935624485
 21
258.302
 31
0.0
 12
58.5935624485
 22
259.318
 32
0.0
 13
58.5935624485
 23
259.318
 33
0.0
  0
SOLID
  5
160
  8
0
  6
CONTINUOUS
 62
     7
 10
193.5915624485
 20
258.81
 30
0.0
 11
190.2895624485
 21
259.318
 31
0.0
 12
190.2895624485
 22
258.302
 32
0.0
 13
190.2895624485
 23
258.302
 33
0.0
  0
LINE
  5
161
  8
0
  6
CONTINUOUS
 62
     7
 10
55.2915624485
 20
243.0
 30
0.0
 11
55.2915624485
 21
261.985
 31
0.0
  0
LINE
  5
162
  8
0
  6
CONTINUOUS
 62
     7
 10
193.5915624485
 20
243.8
 30
0.0
 11
193.5915624485
 21
261.985
 31
0.0
  0
LINE
  5
163
  8
0
  6
CONTINUOUS
 62
     7
 10
55.2915624485
 20
258.81
 30
0.0
 11
118.4681534618
 21
258.81
 31
0.0
  0
LINE
  5
164
  8
0
  6
CONTINUOUS
 62
     7
 10
193.5915624485
 20
258.81
 30
0.0
 11
129.0250282586
 21
258.81
 31
0.0
  0
TEXT
  5
165
  8
0
  6
CONTINUOUS
 62
     7
 10
118.4681534618
 20
257.9321692692
 30
-2.5
 40
3.175
  1
69.15
 41
0.7
 11
118.4681534618
 21
256.2898440235
 31
-2.5
 73
     1
  0
ENDBLK
  5
15E
  8
0
  0
BLOCK
  8
0
  2
_D_1
 70
     0
 10
0.0
 20
0.0
 30
0.0
  3
_D_1
  1

  0
SOLID
  5
16B
  8
0
  6
CONTINUOUS
 62
     7
 10
233.5915624485
 20
246.53
 30
0.0
 11
233.0835624485
 21
243.228
 31
0.0
 12
234.0995624485
 22
243.228
 32
0.0
 13
234.0995624485
 23
243.228
 33
0.0
  0
SOLID
  5
16C
  8
0
  6
CONTINUOUS
 62
     7
 10
233.5915624485
 20
185.53
 30
0.0
 11
234.0995624485
 21
188.832
 31
0.0
 12
233.0835624485
 22
188.832
 32
0.0
 13
233.0835624485
 23
188.832
 33
0.0
  0
LINE
  5
16D
  8
0
  6
CONTINUOUS
 62
     7
 10
175.8615624485
 20
246.53
 30
0.0
 11
236.7665624485
 21
246.53
 31
0.0
  0
LINE
  5
16E
  8
0
  6
CONTINUOUS
 62
     7
 10
149.8615624485
 20
185.53
 30
0.0
 11
236.7665624485
 21
185.53
 31
0.0
  0
LINE
  5
16F
  8
0
  6
CONTINUOUS
 62
     7
 10
233.5915624485
 20
246.53
 30
0.0
 11
233.5915624485
 21
216.9870478591
 31
0.0
  0
LINE
  5
170
  8
0
  6
CONTINUOUS
 62
     7
 10
233.5915624485
 20
185.53
 30
0.0
 11
233.5915624485
 21
211.9467352076
 31
0.0
  0
TEXT
  5
171
  8
0
  6
CONTINUOUS
 62
     7
 10
228.3131250501
 20
213.5890608026
 30
-2.5
 40
3.175
  1
30.50
 41
0.7
 11
228.3131250501
 21
211.9467355568
 31
-2.5
 73
     1
  0
ENDBLK
  5
16A
  8
0
  0
BLOCK
  8
0
  2
_D_2
 70
     0
 10
0.0
 20
0.0
 30
0.0
  3
_D_2
  1

  0
SOLID
  5
177
  8
0
  6
CONTINUOUS
 62
     7
 10
189.9701068921
 20
238.0989431149
 30
0.0
 11
193.0456805594
 21
236.7942919673
 31
0.0
 12
193.2956069775
 22
237.7790725446
 32
0.0
 13
193.2956069775
 23
237.7790725446
 33
0.0
  0
LINE
  5
178
  8
0
  6
CONTINUOUS
 62
     7
 10
189.9701068921
 20
238.0989431149
 30
0.0
 11
210.2275458558
 21
232.9578291682
 31
0.0
  0
LINE
  5
179
  8
0
  6
CONTINUOUS
 62
     7
 10
210.2275458558
 20
232.9578291682
 30
0.0
 11
216.5775458558
 21
232.9578291682
 31
0.0
  0
TEXT
  5
17A
  8
0
  6
CONTINUOUS
 62
     7
 10
216.5775458558
 20
232.0474287482
 30
-2.5
 40
3.175
  1
%%c
 41
0.7
 11
216.5775458558
 21
230.4051035024
 31
-2.5
 73
     1
  0
TEXT
  5
17B
  8
0
  6
CONTINUOUS
 62
     7
 10
221.3658426186
 20
232.095935695
 30
-2.5
 40
3.175
  1
2
 41
0.7
 11
221.3658426186
 21
230.4536104492
 31
-2.5
 73
     1
  0
ENDBLK
  5
176
  8
0
  0
BLOCK
  8
0
  2
_D_3
 70
     0
 10
0.0
 20
0.0
 30
0.0
  3
_D_3
  1

  0
SOLID
  5
181
  8
0
  6
CONTINUOUS
 62
     7
 10
189.4862154334
 20
231.1248850561
 30
0.0
 11
192.5644262628
 21
229.8264682934
 31
0.0
 12
192.8123568121
 22
230.8117532485
 32
0.0
 13
192.8123568121
 23
230.8117532485
 33
0.0
  0
LINE
  5
182
  8
0
  6
CONTINUOUS
 62
     7
 10
189.4862154334
 20
231.1248850561
 30
0.0
 11
207.2950806862
 21
226.6435807174
 31
0.0
  0
LINE
  5
183
  8
0
  6
CONTINUOUS
 62
     7
 10
207.2950806862
 20
226.6435807174
 30
0.0
 11
213.6450806862
 21
226.6435807174
 31
0.0
  0
TEXT
  5
184
  8
0
  6
CONTINUOUS
 62
     7
 10
213.6450806862
 20
225.7331802975
 30
-2.5
 40
3.175
  1
%%c
 41
0.7
 11
213.6450806862
 21
224.0908550517
 31
-2.5
 73
     1
  0
TEXT
  5
185
  8
0
  6
CONTINUOUS
 62
     7
 10
218.4333774491
 20
225.7816872442
 30
-2.5
 40
3.175
  1
1.50
 41
0.7
 11
218.4333774491
 21
224.1393619985
 31
-2.5
 73
     1
  0
ENDBLK
  5
180
  8
0
  0
BLOCK
  8
0
  2
SW_CENTERMARKSYMBOL_0
 70
     0
 10
0.0
 20
0.0
 30
0.0
  3
SW_CENTERMARKSYMBOL_0
  1

  0
LINE
  5
189
  8
0
  6
CONTINUOUS
 62
     0
 10
0.0
 20
0.0
 30
0.0
 11
0.0
 21
5.08
 31
0.0
  0
LINE
  5
18A
  8
0
  6
CONTINUOUS
 62
     0
 10
0.0
 20
0.0
 30
0.0
 11
-5.08
 21
0.0
 31
0.0
  0
LINE
  5
18B
  8
0
  6
CONTINUOUS
 62
     0
 10
0.0
 20
0.0
 30
0.0
 11
0.0
 21
-5.08
 31
0.0
  0
LINE
  5
18C
  8
0
  6
CONTINUOUS
 62
     0
 10
0.0
 20
0.0
 30
0.0
 11
5.08
 21
0.0
 31
0.0
  0
LINE
  5
18D
  8
0
  6
CONTINUOUS
 62
     0
 10
0.0
 20
5.08
 30
0.0
 11
0.0
 21
7.08
 31
0.0
  0
LINE
  5
18E
  8
0
  6
CONTINUOUS
 62
     0
 10
-5.08
 20
0.0
 30
0.0
 11
-7.08
 21
0.0
 31
0.0
  0
LINE
  5
18F
  8
0
  6
CONTINUOUS
 62
     0
 10
0.0
 20
-5.08
 30
0.0
 11
0.0
 21
-7.08
 31
0.0
  0
LINE
  5
190
  8
0
  6
CONTINUOUS
 62
     0
 10
5.08
 20
0.0
 30
0.0
 11
7.08
 21
0.0
 31
0.0
  0
ENDBLK
  5
188
  8
0
  0
BLOCK
  8
0
  2
SW_CENTERMARKSYMBOL_1
 70
     0
 10
0.0
 20
0.0
 30
0.0
  3
SW_CENTERMARKSYMBOL_1
  1

  0
LINE
  5
195
  8
0
  6
CONTINUOUS
 62
     0
 10
0.0
 20
0.0
 30
0.0
 11
0.0
 21
5.08
 31
0.0
  0
LINE
  5
196
  8
0
  6
CONTINUOUS
 62
     0
 10
0.0
 20
0.0
 30
0.0
 11
-5.08
 21
0.0
 31
0.0
  0
LINE
  5
197
  8
0
  6
CONTINUOUS
 62
     0
 10
0.0
 20
0.0
 30
0.0
 11
0.0
 21
-5.08
 31
0.0
  0
LINE
  5
198
  8
0
  6
CONTINUOUS
 62
     0
 10
0.0
 20
0.0
 30
0.0
 11
5.08
 21
0.0
 31
0.0
  0
LINE
  5
199
  8
0
  6
CONTINUOUS
 62
     0
 10
0.0
 20
5.08
 30
0.0
 11
0.0
 21
7.08
 31
0.0
  0
LINE
  5
19A
  8
0
  6
CONTINUOUS
 62
     0
 10
-5.08
 20
0.0
 30
0.0
 11
-7.08
 21
0.0
 31
0.0
  0
LINE
  5
19B
  8
0
  6
CONTINUOUS
 62
     0
 10
0.0
 20
-5.08
 30
0.0
 11
0.0
 21
-7.08
 31
0.0
  0
LINE
  5
19C
  8
0
  6
CONTINUOUS
 62
     0
 10
5.08
 20
0.0
 30
0.0
 11
7.08
 21
0.0
 31
0.0
  0
ENDBLK
  5
194
  8
0
  0
BLOCK
  8
0
  2
SW_CENTERMARKSYMBOL_2
 70
     0
 10
0.0
 20
0.0
 30
0.0
  3
SW_CENTERMARKSYMBOL_2
  1

  0
LINE
  5
1A1
  8
0
  6
CONTINUOUS
 62
     0
 10
0.0
 20
0.0
 30
0.0
 11
0.0
 21
5.08
 31
0.0
  0
LINE
  5
1A2
  8
0
  6
CONTINUOUS
 62
     0
 10
0.0
 20
0.0
 30
0.0
 11
-5.08
 21
0.0
 31
0.0
  0
LINE
  5
1A3
  8
0
  6
CONTINUOUS
 62
     0
 10
0.0
 20
0.0
 30
0.0
 11
0.0
 21
-5.08
 31
0.0
  0
LINE
  5
1A4
  8
0
  6
CONTINUOUS
 62
     0
 10
0.0
 20
0.0
 30
0.0
 11
5.08
 21
0.0
 31
0.0
  0
LINE
  5
1A5
  8
0
  6
CONTINUOUS
 62
     0
 10
0.0
 20
5.08
 30
0.0
 11
0.0
 21
6.78
 31
0.0
  0
LINE
  5
1A6
  8
0
  6
CONTINUOUS
 62
     0
 10
-5.08
 20
0.0
 30
0.0
 11
-6.78
 21
0.0
 31
0.0
  0
LINE
  5
1A7
  8
0
  6
CONTINUOUS
 62
     0
 10
0.0
 20
-5.08
 30
0.0
 11
0.0
 21
-6.78
 31
0.0
  0
LINE
  5
1A8
  8
0
  6
CONTINUOUS
 62
     0
 10
5.08
 20
0.0
 30
0.0
 11
6.78
 21
0.0
 31
0.0
  0
ENDBLK
  5
1A0
  8
0
  0
BLOCK
  8
0
  2
SW_CENTERMARKSYMBOL_3
 70
     0
 10
0.0
 20
0.0
 30
0.0
  3
SW_CENTERMARKSYMBOL_3
  1

  0
LINE
  5
1AD
  8
0
  6
CONTINUOUS
 62
     0
 10
0.0
 20
0.0
 30
0.0
 11
0.0
 21
5.08
 31
0.0
  0
LINE
  5
1AE
  8
0
  6
CONTINUOUS
 62
     0
 10
0.0
 20
0.0
 30
0.0
 11
-5.08
 21
0.0
 31
0.0
  0
LINE
  5
1AF
  8
0
  6
CONTINUOUS
 62
     0
 10
0.0
 20
0.0
 30
0.0
 11
0.0
 21
-5.08
 31
0.0
  0
LINE
  5
1B0
  8
0
  6
CONTINUOUS
 62
     0
 10
0.0
 20
0.0
 30
0.0
 11
5.08
 21
0.0
 31
0.0
  0
LINE
  5
1B1
  8
0
  6
CONTINUOUS
 62
     0
 10
0.0
 20
5.08
 30
0.0
 11
0.0
 21
6.78
 31
0.0
  0
LINE
  5
1B2
  8
0
  6
CONTINUOUS
 62
     0
 10
-5.08
 20
0.0
 30
0.0
 11
-6.78
 21
0.0
 31
0.0
  0
LINE
  5
1B3
  8
0
  6
CONTINUOUS
 62
     0
 10
0.0
 20
-5.08
 30
0.0
 11
0.0
 21
-6.78
 31
0.0
  0
LINE
  5
1B4
  8
0
  6
CONTINUOUS
 62
     0
 10
5.08
 20
0.0
 30
0.0
 11
6.78
 21
0.0
 31
0.0
  0
ENDBLK
  5
1AC
  8
0
  0
BLOCK
  8
0
  2
SW_CENTERMARKSYMBOL_4
 70
     0
 10
0.0
 20
0.0
 30
0.0
  3
SW_CENTERMARKSYMBOL_4
  1

  0
LINE
  5
1B9
  8
0
  6
CONTINUOUS
 62
     0
 10
0.0
 20
0.0
 30
0.0
 11
0.0
 21
5.08
 31
0.0
  0
LINE
  5
1BA
  8
0
  6
CONTINUOUS
 62
     0
 10
0.0
 20
0.0
 30
0.0
 11
-5.08
 21
0.0
 31
0.0
  0
LINE
  5
1BB
  8
0
  6
CONTINUOUS
 62
     0
 10
0.0
 20
0.0
 30
0.0
 11
0.0
 21
-5.08
 31
0.0
  0
LINE
  5
1BC
  8
0
  6
CONTINUOUS
 62
     0
 10
0.0
 20
0.0
 30
0.0
 11
5.08
 21
0.0
 31
0.0
  0
LINE
  5
1BD
  8
0
  6
CONTINUOUS
 62
     0
 10
0.0
 20
5.08
 30
0.0
 11
0.0
 21
6.58
 31
0.0
  0
LINE
  5
1BE
  8
0
  6
CONTINUOUS
 62
     0
 10
-5.08
 20
0.0
 30
0.0
 11
-6.58
 21
0.0
 31
0.0
  0
LINE
  5
1BF
  8
0
  6
CONTINUOUS
 62
     0
 10
0.0
 20
-5.08
 30
0.0
 11
0.0
 21
-6.58
 31
0.0
  0
LINE
  5
1C0
  8
0
  6
CONTINUOUS
 62
     0
 10
5.08
 20
0.0
 30
0.0
 11
6.58
 21
0.0
 31
0.0
  0
ENDBLK
  5
1B8
  8
0
  0
BLOCK
  8
0
  2
SW_CENTERMARKSYMBOL_5
 70
     0
 10
0.0
 20
0.0
 30
0.0
  3
SW_CENTERMARKSYMBOL_5
  1

  0
LINE
  5
1C5
  8
0
  6
CONTINUOUS
 62
     0
 10
0.0
 20
0.0
 30
0.0
 11
0.0
 21
5.08
 31
0.0
  0
LINE
  5
1C6
  8
0
  6
CONTINUOUS
 62
     0
 10
0.0
 20
0.0
 30
0.0
 11
-5.08
 21
0.0
 31
0.0
  0
LINE
  5
1C7
  8
0
  6
CONTINUOUS
 62
     0
 10
0.0
 20
0.0
 30
0.0
 11
0.0
 21
-5.08
 31
0.0
  0
LINE
  5
1C8
  8
0
  6
CONTINUOUS
 62
     0
 10
0.0
 20
0.0
 30
0.0
 11
5.08
 21
0.0
 31
0.0
  0
LINE
  5
1C9
  8
0
  6
CONTINUOUS
 62
     0
 10
0.0
 20
5.08
 30
0.0
 11
0.0
 21
7.08
 31
0.0
  0
LINE
  5
1CA
  8
0
  6
CONTINUOUS
 62
     0
 10
-5.08
 20
0.0
 30
0.0
 11
-7.08
 21
0.0
 31
0.0
  0
LINE
  5
1CB
  8
0
  6
CONTINUOUS
 62
     0
 10
0.0
 20
-5.08
 30
0.0
 11
0.0
 21
-7.08
 31
0.0
  0
LINE
  5
1CC
  8
0
  6
CONTINUOUS
 62
     0
 10
5.08
 20
0.0
 30
0.0
 11
7.08
 21
0.0
 31
0.0
  0
ENDBLK
  5
1C4
  8
0
  0
BLOCK
  8
0
  2
SW_CENTERMARKSYMBOL_6
 70
     0
 10
0.0
 20
0.0
 30
0.0
  3
SW_CENTERMARKSYMBOL_6
  1

  0
LINE
  5
1D1
  8
0
  6
CONTINUOUS
 62
     0
 10
0.0
 20
0.0
 30
0.0
 11
0.0
 21
5.08
 31
0.0
  0
LINE
  5
1D2
  8
0
  6
CONTINUOUS
 62
     0
 10
0.0
 20
0.0
 30
0.0
 11
-5.08
 21
0.0
 31
0.0
  0
LINE
  5
1D3
  8
0
  6
CONTINUOUS
 62
     0
 10
0.0
 20
0.0
 30
0.0
 11
0.0
 21
-5.08
 31
0.0
  0
LINE
  5
1D4
  8
0
  6
CONTINUOUS
 62
     0
 10
0.0
 20
0.0
 30
0.0
 11
5.08
 21
0.0
 31
0.0
  0
LINE
  5
1D5
  8
0
  6
CONTINUOUS
 62
     0
 10
0.0
 20
5.08
 30
0.0
 11
0.0
 21
6.58
 31
0.0
  0
LINE
  5
1D6
  8
0
  6
CONTINUOUS
 62
     0
 10
-5.08
 20
0.0
 30
0.0
 11
-6.58
 21
0.0
 31
0.0
  0
LINE
  5
1D7
  8
0
  6
CONTINUOUS
 62
     0
 10
0.0
 20
-5.08
 30
0.0
 11
0.0
 21
-6.58
 31
0.0
  0
LINE
  5
1D8
  8
0
  6
CONTINUOUS
 62
     0
 10
5.08
 20
0.0
 30
0.0
 11
6.58
 21
0.0
 31
0.0
  0
ENDBLK
  5
1D0
  8
0
  0
BLOCK
  8
0
  2
SW_CENTERMARKSYMBOL_7
 70
     0
 10
0.0
 20
0.0
 30
0.0
  3
SW_CENTERMARKSYMBOL_7
  1

  0
LINE
  5
215
  8
0
  6
CONTINUOUS
 62
     0
 10
0.0
 20
0.0
 30
0.0
 11
0.0
 21
5.08
 31
0.0
  0
LINE
  5
216
  8
0
  6
CONTINUOUS
 62
     0
 10
0.0
 20
0.0
 30
0.0
 11
-5.08
 21
0.0
 31
0.0
  0
LINE
  5
217
  8
0
  6
CONTINUOUS
 62
     0
 10
0.0
 20
0.0
 30
0.0
 11
0.0
 21
-5.08
 31
0.0
  0
LINE
  5
218
  8
0
  6
CONTINUOUS
 62
     0
 10
0.0
 20
0.0
 30
0.0
 11
5.08
 21
0.0
 31
0.0
  0
LINE
  5
219
  8
0
  6
CONTINUOUS
 62
     0
 10
0.0
 20
5.08
 30
0.0
 11
0.0
 21
7.08
 31
0.0
  0
LINE
  5
21A
  8
0
  6
CONTINUOUS
 62
     0
 10
-5.08
 20
0.0
 30
0.0
 11
-7.08
 21
0.0
 31
0.0
  0
LINE
  5
21B
  8
0
  6
CONTINUOUS
 62
     0
 10
0.0
 20
-5.08
 30
0.0
 11
0.0
 21
-7.08
 31
0.0
  0
LINE
  5
21C
  8
0
  6
CONTINUOUS
 62
     0
 10
5.08
 20
0.0
 30
0.0
 11
7.08
 21
0.0
 31
0.0
  0
ENDBLK
  5
214
  8
0
  0
BLOCK
  8
0
  2
SW_CENTERMARKSYMBOL_8
 70
     0
 10
0.0
 20
0.0
 30
0.0
  3
SW_CENTERMARKSYMBOL_8
  1

  0
LINE
  5
221
  8
0
  6
CONTINUOUS
 62
     0
 10
0.0
 20
0.0
 30
0.0
 11
0.0
 21
5.08
 31
0.0
  0
LINE
  5
222
  8
0
  6
CONTINUOUS
 62
     0
 10
0.0
 20
0.0
 30
0.0
 11
-5.08
 21
0.0
 31
0.0
  0
LINE
  5
223
  8
0
  6
CONTINUOUS
 62
     0
 10
0.0
 20
0.0
 30
0.0
 11
0.0
 21
-5.08
 31
0.0
  0
LINE
  5
224
  8
0
  6
CONTINUOUS
 62
     0
 10
0.0
 20
0.0
 30
0.0
 11
5.08
 21
0.0
 31
0.0
  0
LINE
  5
225
  8
0
  6
CONTINUOUS
 62
     0
 10
0.0
 20
5.08
 30
0.0
 11
0.0
 21
7.08
 31
0.0
  0
LINE
  5
226
  8
0
  6
CONTINUOUS
 62
     0
 10
-5.08
 20
0.0
 30
0.0
 11
-7.08
 21
0.0
 31
0.0
  0
LINE
  5
227
  8
0
  6
CONTINUOUS
 62
     0
 10
0.0
 20
-5.08
 30
0.0
 11
0.0
 21
-7.08
 31
0.0
  0
LINE
  5
228
  8
0
  6
CONTINUOUS
 62
     0
 10
5.08
 20
0.0
 30
0.0
 11
7.08
 21
0.0
 31
0.0
  0
ENDBLK
  5
220
  8
0
  0
BLOCK
  8
0
  2
SW_CENTERMARKSYMBOL_9
 70
     0
 10
0.0
 20
0.0
 30
0.0
  3
SW_CENTERMARKSYMBOL_9
  1

  0
LINE
  5
22D
  8
0
  6
CONTINUOUS
 62
     0
 10
0.0
 20
0.0
 30
0.0
 11
0.0
 21
5.08
 31
0.0
  0
LINE
  5
22E
  8
0
  6
CONTINUOUS
 62
     0
 10
0.0
 20
0.0
 30
0.0
 11
-5.08
 21
0.0
 31
0.0
  0
LINE
  5
22F
  8
0
  6
CONTINUOUS
 62
     0
 10
0.0
 20
0.0
 30
0.0
 11
0.0
 21
-5.08
 31
0.0
  0
LINE
  5
230
  8
0
  6
CONTINUOUS
 62
     0
 10
0.0
 20
0.0
 30
0.0
 11
5.08
 21
0.0
 31
0.0
  0
LINE
  5
231
  8
0
  6
CONTINUOUS
 62
     0
 10
0.0
 20
5.08
 30
0.0
 11
0.0
 21
6.78
 31
0.0
  0
LINE
  5
232
  8
0
  6
CONTINUOUS
 62
     0
 10
-5.08
 20
0.0
 30
0.0
 11
-6.78
 21
0.0
 31
0.0
  0
LINE
  5
233
  8
0
  6
CONTINUOUS
 62
     0
 10
0.0
 20
-5.08
 30
0.0
 11
0.0
 21
-6.78
 31
0.0
  0
LINE
  5
234
  8
0
  6
CONTINUOUS
 62
     0
 10
5.08
 20
0.0
 30
0.0
 11
6.78
 21
0.0
 31
0.0
  0
ENDBLK
  5
22C
  8
0
  0
BLOCK
  8
0
  2
SW_CENTERMARKSYMBOL_10
 70
     0
 10
0.0
 20
0.0
 30
0.0
  3
SW_CENTERMARKSYMBOL_10
  1

  0
LINE
  5
239
  8
0
  6
CONTINUOUS
 62
     0
 10
0.0
 20
0.0
 30
0.0
 11
0.0
 21
5.08
 31
0.0
  0
LINE
  5
23A
  8
0
  6
CONTINUOUS
 62
     0
 10
0.0
 20
0.0
 30
0.0
 11
-5.08
 21
0.0
 31
0.0
  0
LINE
  5
23B
  8
0
  6
CONTINUOUS
 62
     0
 10
0.0
 20
0.0
 30
0.0
 11
0.0
 21
-5.08
 31
0.0
  0
LINE
  5
23C
  8
0
  6
CONTINUOUS
 62
     0
 10
0.0
 20
0.0
 30
0.0
 11
5.08
 21
0.0
 31
0.0
  0
LINE
  5
23D
  8
0
  6
CONTINUOUS
 62
     0
 10
0.0
 20
5.08
 30
0.0
 11
0.0
 21
6.78
 31
0.0
  0
LINE
  5
23E
  8
0
  6
CONTINUOUS
 62
     0
 10
-5.08
 20
0.0
 30
0.0
 11
-6.78
 21
0.0
 31
0.0
  0
LINE
  5
23F
  8
0
  6
CONTINUOUS
 62
     0
 10
0.0
 20
-5.08
 30
0.0
 11
0.0
 21
-6.78
 31
0.0
  0
LINE
  5
240
  8
0
  6
CONTINUOUS
 62
     0
 10
5.08
 20
0.0
 30
0.0
 11
6.78
 21
0.0
 31
0.0
  0
ENDBLK
  5
238
  8
0
  0
BLOCK
  8
0
  2
SW_CENTERMARKSYMBOL_11
 70
     0
 10
0.0
 20
0.0
 30
0.0
  3
SW_CENTERMARKSYMBOL_11
  1

  0
LINE
  5
245
  8
0
  6
CONTINUOUS
 62
     0
 10
0.0
 20
0.0
 30
0.0
 11
0.0
 21
5.08
 31
0.0
  0
LINE
  5
246
  8
0
  6
CONTINUOUS
 62
     0
 10
0.0
 20
0.0
 30
0.0
 11
-5.08
 21
0.0
 31
0.0
  0
LINE
  5
247
  8
0
  6
CONTINUOUS
 62
     0
 10
0.0
 20
0.0
 30
0.0
 11
0.0
 21
-5.08
 31
0.0
  0
LINE
  5
248
  8
0
  6
CONTINUOUS
 62
     0
 10
0.0
 20
0.0
 30
0.0
 11
5.08
 21
0.0
 31
0.0
  0
LINE
  5
249
  8
0
  6
CONTINUOUS
 62
     0
 10
0.0
 20
5.08
 30
0.0
 11
0.0
 21
6.58
 31
0.0
  0
LINE
  5
24A
  8
0
  6
CONTINUOUS
 62
     0
 10
-5.08
 20
0.0
 30
0.0
 11
-6.58
 21
0.0
 31
0.0
  0
LINE
  5
24B
  8
0
  6
CONTINUOUS
 62
     0
 10
0.0
 20
-5.08
 30
0.0
 11
0.0
 21
-6.58
 31
0.0
  0
LINE
  5
24C
  8
0
  6
CONTINUOUS
 62
     0
 10
5.08
 20
0.0
 30
0.0
 11
6.58
 21
0.0
 31
0.0
  0
ENDBLK
  5
244
  8
0
  0
BLOCK
  8
0
  2
SW_CENTERMARKSYMBOL_12
 70
     0
 10
0.0
 20
0.0
 30
0.0
  3
SW_CENTERMARKSYMBOL_12
  1

  0
LINE
  5
251
  8
0
  6
CONTINUOUS
 62
     0
 10
0.0
 20
0.0
 30
0.0
 11
0.0
 21
5.08
 31
0.0
  0
LINE
  5
252
  8
0
  6
CONTINUOUS
 62
     0
 10
0.0
 20
0.0
 30
0.0
 11
-5.08
 21
0.0
 31
0.0
  0
LINE
  5
253
  8
0
  6
CONTINUOUS
 62
     0
 10
0.0
 20
0.0
 30
0.0
 11
0.0
 21
-5.08
 31
0.0
  0
LINE
  5
254
  8
0
  6
CONTINUOUS
 62
     0
 10
0.0
 20
0.0
 30
0.0
 11
5.08
 21
0.0
 31
0.0
  0
LINE
  5
255
  8
0
  6
CONTINUOUS
 62
     0
 10
0.0
 20
5.08
 30
0.0
 11
0.0
 21
7.08
 31
0.0
  0
LINE
  5
256
  8
0
  6
CONTINUOUS
 62
     0
 10
-5.08
 20
0.0
 30
0.0
 11
-7.08
 21
0.0
 31
0.0
  0
LINE
  5
257
  8
0
  6
CONTINUOUS
 62
     0
 10
0.0
 20
-5.08
 30
0.0
 11
0.0
 21
-7.08
 31
0.0
  0
LINE
  5
258
  8
0
  6
CONTINUOUS
 62
     0
 10
5.08
 20
0.0
 30
0.0
 11
7.08
 21
0.0
 31
0.0
  0
ENDBLK
  5
250
  8
0
  0
BLOCK
  8
0
  2
SW_CENTERMARKSYMBOL_13
 70
     0
 10
0.0
 20
0.0
 30
0.0
  3
SW_CENTERMARKSYMBOL_13
  1

  0
LINE
  5
25D
  8
0
  6
CONTINUOUS
 62
     0
 10
0.0
 20
0.0
 30
0.0
 11
0.0
 21
5.08
 31
0.0
  0
LINE
  5
25E
  8
0
  6
CONTINUOUS
 62
     0
 10
0.0
 20
0.0
 30
0.0
 11
-5.08
 21
0.0
 31
0.0
  0
LINE
  5
25F
  8
0
  6
CONTINUOUS
 62
     0
 10
0.0
 20
0.0
 30
0.0
 11
0.0
 21
-5.08
 31
0.0
  0
LINE
  5
260
  8
0
  6
CONTINUOUS
 62
     0
 10
0.0
 20
0.0
 30
0.0
 11
5.08
 21
0.0
 31
0.0
  0
LINE
  5
261
  8
0
  6
CONTINUOUS
 62
     0
 10
0.0
 20
5.08
 30
0.0
 11
0.0
 21
6.58
 31
0.0
  0
LINE
  5
262
  8
0
  6
CONTINUOUS
 62
     0
 10
-5.08
 20
0.0
 30
0.0
 11
-6.58
 21
0.0
 31
0.0
  0
LINE
  5
263
  8
0
  6
CONTINUOUS
 62
     0
 10
0.0
 20
-5.08
 30
0.0
 11
0.0
 21
-6.58
 31
0.0
  0
LINE
  5
264
  8
0
  6
CONTINUOUS
 62
     0
 10
5.08
 20
0.0
 30
0.0
 11
6.58
 21
0.0
 31
0.0
  0
ENDBLK
  5
25C
  8
0
  0
BLOCK
  8
0
  2
SW_CENTERMARKSYMBOL_14
 70
     0
 10
0.0
 20
0.0
 30
0.0
  3
SW_CENTERMARKSYMBOL_14
  1

  0
LINE
  5
269
  8
0
  6
CONTINUOUS
 62
     0
 10
0.0
 20
0.0
 30
0.0
 11
0.0
 21
5.08
 31
0.0
  0
LINE
  5
26A
  8
0
  6
CONTINUOUS
 62
     0
 10
0.0
 20
0.0
 30
0.0
 11
-5.08
 21
0.0
 31
0.0
  0
LINE
  5
26B
  8
0
  6
CONTINUOUS
 62
     0
 10
0.0
 20
0.0
 30
0.0
 11
0.0
 21
-5.08
 31
0.0
  0
LINE
  5
26C
  8
0
  6
CONTINUOUS
 62
     0
 10
0.0
 20
0.0
 30
0.0
 11
5.08
 21
0.0
 31
0.0
  0
LINE
  5
26D
  8
0
  6
CONTINUOUS
 62
     0
 10
0.0
 20
5.08
 30
0.0
 11
0.0
 21
7.08
 31
0.0
  0
LINE
  5
26E
  8
0
  6
CONTINUOUS
 62
     0
 10
-5.08
 20
0.0
 30
0.0
 11
-7.08
 21
0.0
 31
0.0
  0
LINE
  5
26F
  8
0
  6
CONTINUOUS
 62
     0
 10
0.0
 20
-5.08
 30
0.0
 11
0.0
 21
-7.08
 31
0.0
  0
LINE
  5
270
  8
0
  6
CONTINUOUS
 62
     0
 10
5.08
 20
0.0
 30
0.0
 11
7.08
 21
0.0
 31
0.0
  0
ENDBLK
  5
268
  8
0
  0
BLOCK
  8
0
  2
SW_CENTERMARKSYMBOL_15
 70
     0
 10
0.0
 20
0.0
 30
0.0
  3
SW_CENTERMARKSYMBOL_15
  1

  0
LINE
  5
275
  8
0
  6
CONTINUOUS
 62
     0
 10
0.0
 20
0.0
 30
0.0
 11
0.0
 21
5.08
 31
0.0
  0
LINE
  5
276
  8
0
  6
CONTINUOUS
 62
     0
 10
0.0
 20
0.0
 30
0.0
 11
-5.08
 21
0.0
 31
0.0
  0
LINE
  5
277
  8
0
  6
CONTINUOUS
 62
     0
 10
0.0
 20
0.0
 30
0.0
 11
0.0
 21
-5.08
 31
0.0
  0
LINE
  5
278
  8
0
  6
CONTINUOUS
 62
     0
 10
0.0
 20
0.0
 30
0.0
 11
5.08
 21
0.0
 31
0.0
  0
LINE
  5
279
  8
0
  6
CONTINUOUS
 62
     0
 10
0.0
 20
5.08
 30
0.0
 11
0.0
 21
7.08
 31
0.0
  0
LINE
  5
27A
  8
0
  6
CONTINUOUS
 62
     0
 10
-5.08
 20
0.0
 30
0.0
 11
-7.08
 21
0.0
 31
0.0
  0
LINE
  5
27B
  8
0
  6
CONTINUOUS
 62
     0
 10
0.0
 20
-5.08
 30
0.0
 11
0.0
 21
-7.08
 31
0.0
  0
LINE
  5
27C
  8
0
  6
CONTINUOUS
 62
     0
 10
5.08
 20
0.0
 30
0.0
 11
7.08
 21
0.0
 31
0.0
  0
ENDBLK
  5
274
  8
0
  0
BLOCK
  8
0
  2
SW_CENTERMARKSYMBOL_16
 70
     0
 10
0.0
 20
0.0
 30
0.0
  3
SW_CENTERMARKSYMBOL_16
  1

  0
LINE
  5
281
  8
0
  6
CONTINUOUS
 62
     0
 10
0.0
 20
0.0
 30
0.0
 11
0.0
 21
5.08
 31
0.0
  0
LINE
  5
282
  8
0
  6
CONTINUOUS
 62
     0
 10
0.0
 20
0.0
 30
0.0
 11
-5.08
 21
0.0
 31
0.0
  0
LINE
  5
283
  8
0
  6
CONTINUOUS
 62
     0
 10
0.0
 20
0.0
 30
0.0
 11
0.0
 21
-5.08
 31
0.0
  0
LINE
  5
284
  8
0
  6
CONTINUOUS
 62
     0
 10
0.0
 20
0.0
 30
0.0
 11
5.08
 21
0.0
 31
0.0
  0
LINE
  5
285
  8
0
  6
CONTINUOUS
 62
     0
 10
0.0
 20
5.08
 30
0.0
 11
0.0
 21
6.78
 31
0.0
  0
LINE
  5
286
  8
0
  6
CONTINUOUS
 62
     0
 10
-5.08
 20
0.0
 30
0.0
 11
-6.78
 21
0.0
 31
0.0
  0
LINE
  5
287
  8
0
  6
CONTINUOUS
 62
     0
 10
0.0
 20
-5.08
 30
0.0
 11
0.0
 21
-6.78
 31
0.0
  0
LINE
  5
288
  8
0
  6
CONTINUOUS
 62
     0
 10
5.08
 20
0.0
 30
0.0
 11
6.78
 21
0.0
 31
0.0
  0
ENDBLK
  5
280
  8
0
  0
BLOCK
  8
0
  2
SW_CENTERMARKSYMBOL_17
 70
     0
 10
0.0
 20
0.0
 30
0.0
  3
SW_CENTERMARKSYMBOL_17
  1

  0
LINE
  5
28D
  8
0
  6
CONTINUOUS
 62
     0
 10
0.0
 20
0.0
 30
0.0
 11
0.0
 21
5.08
 31
0.0
  0
LINE
  5
28E
  8
0
  6
CONTINUOUS
 62
     0
 10
0.0
 20
0.0
 30
0.0
 11
-5.08
 21
0.0
 31
0.0
  0
LINE
  5
28F
  8
0
  6
CONTINUOUS
 62
     0
 10
0.0
 20
0.0
 30
0.0
 11
0.0
 21
-5.08
 31
0.0
  0
LINE
  5
290
  8
0
  6
CONTINUOUS
 62
     0
 10
0.0
 20
0.0
 30
0.0
 11
5.08
 21
0.0
 31
0.0
  0
LINE
  5
291
  8
0
  6
CONTINUOUS
 62
     0
 10
0.0
 20
5.08
 30
0.0
 11
0.0
 21
6.78
 31
0.0
  0
LINE
  5
292
  8
0
  6
CONTINUOUS
 62
     0
 10
-5.08
 20
0.0
 30
0.0
 11
-6.78
 21
0.0
 31
0.0
  0
LINE
  5
293
  8
0
  6
CONTINUOUS
 62
     0
 10
0.0
 20
-5.08
 30
0.0
 11
0.0
 21
-6.78
 31
0.0
  0
LINE
  5
294
  8
0
  6
CONTINUOUS
 62
     0
 10
5.08
 20
0.0
 30
0.0
 11
6.78
 21
0.0
 31
0.0
  0
ENDBLK
  5
28C
  8
0
  0
BLOCK
  8
0
  2
SW_CENTERMARKSYMBOL_18
 70
     0
 10
0.0
 20
0.0
 30
0.0
  3
SW_CENTERMARKSYMBOL_18
  1

  0
LINE
  5
299
  8
0
  6
CONTINUOUS
 62
     0
 10
0.0
 20
0.0
 30
0.0
 11
0.0
 21
5.08
 31
0.0
  0
LINE
  5
29A
  8
0
  6
CONTINUOUS
 62
     0
 10
0.0
 20
0.0
 30
0.0
 11
-5.08
 21
0.0
 31
0.0
  0
LINE
  5
29B
  8
0
  6
CONTINUOUS
 62
     0
 10
0.0
 20
0.0
 30
0.0
 11
0.0
 21
-5.08
 31
0.0
  0
LINE
  5
29C
  8
0
  6
CONTINUOUS
 62
     0
 10
0.0
 20
0.0
 30
0.0
 11
5.08
 21
0.0
 31
0.0
  0
LINE
  5
29D
  8
0
  6
CONTINUOUS
 62
     0
 10
0.0
 20
5.08
 30
0.0
 11
0.0
 21
6.58
 31
0.0
  0
LINE
  5
29E
  8
0
  6
CONTINUOUS
 62
     0
 10
-5.08
 20
0.0
 30
0.0
 11
-6.58
 21
0.0
 31
0.0
  0
LINE
  5
29F
  8
0
  6
CONTINUOUS
 62
     0
 10
0.0
 20
-5.08
 30
0.0
 11
0.0
 21
-6.58
 31
0.0
  0
LINE
  5
2A0
  8
0
  6
CONTINUOUS
 62
     0
 10
5.08
 20
0.0
 30
0.0
 11
6.58
 21
0.0
 31
0.0
  0
ENDBLK
  5
298
  8
0
  0
BLOCK
  8
0
  2
SW_CENTERMARKSYMBOL_19
 70
     0
 10
0.0
 20
0.0
 30
0.0
  3
SW_CENTERMARKSYMBOL_19
  1

  0
LINE
  5
2A5
  8
0
  6
CONTINUOUS
 62
     0
 10
0.0
 20
0.0
 30
0.0
 11
0.0
 21
5.08
 31
0.0
  0
LINE
  5
2A6
  8
0
  6
CONTINUOUS
 62
     0
 10
0.0
 20
0.0
 30
0.0
 11
-5.08
 21
0.0
 31
0.0
  0
LINE
  5
2A7
  8
0
  6
CONTINUOUS
 62
     0
 10
0.0
 20
0.0
 30
0.0
 11
0.0
 21
-5.08
 31
0.0
  0
LINE
  5
2A8
  8
0
  6
CONTINUOUS
 62
     0
 10
0.0
 20
0.0
 30
0.0
 11
5.08
 21
0.0
 31
0.0
  0
LINE
  5
2A9
  8
0
  6
CONTINUOUS
 62
     0
 10
0.0
 20
5.08
 30
0.0
 11
0.0
 21
7.08
 31
0.0
  0
LINE
  5
2AA
  8
0
  6
CONTINUOUS
 62
     0
 10
-5.08
 20
0.0
 30
0.0
 11
-7.08
 21
0.0
 31
0.0
  0
LINE
  5
2AB
  8
0
  6
CONTINUOUS
 62
     0
 10
0.0
 20
-5.08
 30
0.0
 11
0.0
 21
-7.08
 31
0.0
  0
LINE
  5
2AC
  8
0
  6
CONTINUOUS
 62
     0
 10
5.08
 20
0.0
 30
0.0
 11
7.08
 21
0.0
 31
0.0
  0
ENDBLK
  5
2A4
  8
0
  0
BLOCK
  8
0
  2
SW_CENTERMARKSYMBOL_20
 70
     0
 10
0.0
 20
0.0
 30
0.0
  3
SW_CENTERMARKSYMBOL_20
  1

  0
LINE
  5
2B1
  8
0
  6
CONTINUOUS
 62
     0
 10
0.0
 20
0.0
 30
0.0
 11
0.0
 21
5.08
 31
0.0
  0
LINE
  5
2B2
  8
0
  6
CONTINUOUS
 62
     0
 10
0.0
 20
0.0
 30
0.0
 11
-5.08
 21
0.0
 31
0.0
  0
LINE
  5
2B3
  8
0
  6
CONTINUOUS
 62
     0
 10
0.0
 20
0.0
 30
0.0
 11
0.0
 21
-5.08
 31
0.0
  0
LINE
  5
2B4
  8
0
  6
CONTINUOUS
 62
     0
 10
0.0
 20
0.0
 30
0.0
 11
5.08
 21
0.0
 31
0.0
  0
LINE
  5
2B5
  8
0
  6
CONTINUOUS
 62
     0
 10
0.0
 20
5.08
 30
0.0
 11
0.0
 21
6.58
 31
0.0
  0
LINE
  5
2B6
  8
0
  6
CONTINUOUS
 62
     0
 10
-5.08
 20
0.0
 30
0.0
 11
-6.58
 21
0.0
 31
0.0
  0
LINE
  5
2B7
  8
0
  6
CONTINUOUS
 62
     0
 10
0.0
 20
-5.08
 30
0.0
 11
0.0
 21
-6.58
 31
0.0
  0
LINE
  5
2B8
  8
0
  6
CONTINUOUS
 62
     0
 10
5.08
 20
0.0
 30
0.0
 11
6.58
 21
0.0
 31
0.0
  0
ENDBLK
  5
2B0
  8
0
  0
ENDSEC
  0
SECTION
  2
ENTITIES
  0
LINE
  5
74
  8
0
  6
CONTINUOUS
 62
     7
 10
15.9067907574
 20
270.3086585366
 30
0.0
 11
415.9567907574
 21
270.3086585366
 31
0.0
  0
LINE
  5
75
  8
0
  6
CONTINUOUS
 62
     7
 10
15.9067907574
 20
270.3086585366
 30
0.0
 11
15.9067907574
 21
9.9586585366
 31
0.0
  0
LINE
  5
76
  8
0
  6
CONTINUOUS
 62
     7
 10
415.9567907574
 20
9.9586585366
 30
0.0
 11
15.9067907574
 21
9.9586585366
 31
0.0
  0
LINE
  5
77
  8
0
  6
CONTINUOUS
 62
     7
 10
415.9567907574
 20
9.9586585366
 30
0.0
 11
415.9567907574
 21
270.3086585366
 31
0.0
  0
LINE
  5
78
  8
0
  6
CONTINUOUS
 62
     7
 10
415.9567907574
 20
205.1124212398
 30
0.0
 11
419.1317907574
 21
205.1124212398
 31
0.0
  0
LINE
  5
79
  8
0
  6
CONTINUOUS
 62
     7
 10
415.9567907574
 20
140.0249212398
 30
0.0
 11
419.1317907574
 21
140.0249212398
 31
0.0
  0
LINE
  5
7A
  8
0
  6
CONTINUOUS
 62
     7
 10
415.9567907574
 20
140.0249212398
 30
0.0
 11
417.6631990566
 21
140.6347663616
 31
0.0
  0
LINE
  5
7B
  8
0
  6
CONTINUOUS
 62
     7
 10
415.9567907574
 20
140.0249212398
 30
0.0
 11
417.6631990566
 21
139.4514266928
 31
0.0
  0
LINE
  5
7C
  8
0
  6
CONTINUOUS
 62
     7
 10
417.6631990566
 20
140.6347663616
 30
0.0
 11
417.6631990566
 21
139.4514266928
 31
0.0
  0
LINE
  5
7D
  8
0
  6
CONTINUOUS
 62
     7
 10
415.9567907574
 20
140.0249212398
 30
0.0
 11
417.6631990566
 21
140.2544904611
 31
0.0
  0
LINE
  5
7E
  8
0
  6
CONTINUOUS
 62
     7
 10
415.9567907574
 20
140.0249212398
 30
0.0
 11
417.6631990566
 21
139.7630949914
 31
0.0
  0
LINE
  5
7F
  8
0
  6
CONTINUOUS
 62
     7
 10
415.9567907574
 20
74.9374212398
 30
0.0
 11
419.1317907574
 21
74.9374212398
 31
0.0
  0
LINE
  5
80
  8
0
  6
CONTINUOUS
 62
     7
 10
15.9067907574
 20
75.0461585366
 30
0.0
 11
12.7317907574
 21
75.0461585366
 31
0.0
  0
LINE
  5
81
  8
0
  6
CONTINUOUS
 62
     7
 10
15.9067907574
 20
140.1336585366
 30
0.0
 11
14.2003824582
 21
139.8718322882
 31
0.0
  0
LINE
  5
82
  8
0
  6
CONTINUOUS
 62
     7
 10
15.9067907574
 20
140.1336585366
 30
0.0
 11
14.2003824582
 21
140.3632277579
 31
0.0
  0
LINE
  5
83
  8
0
  6
CONTINUOUS
 62
     7
 10
14.2003824582
 20
140.7435036584
 30
0.0
 11
14.2003824582
 21
139.5601639895
 31
0.0
  0
LINE
  5
84
  8
0
  6
CONTINUOUS
 62
     7
 10
15.9067907574
 20
140.1336585366
 30
0.0
 11
14.2003824582
 21
139.5601639895
 31
0.0
  0
LINE
  5
85
  8
0
  6
CONTINUOUS
 62
     7
 10
15.9067907574
 20
140.1336585366
 30
0.0
 11
14.2003824582
 21
140.7435036584
 31
0.0
  0
LINE
  5
86
  8
0
  6
CONTINUOUS
 62
     7
 10
15.9067907574
 20
140.1336585366
 30
0.0
 11
12.7317907574
 21
140.1336585366
 31
0.0
  0
LINE
  5
87
  8
0
  6
CONTINUOUS
 62
     7
 10
15.9067907574
 20
205.2211585366
 30
0.0
 11
12.7317907574
 21
205.2211585366
 31
0.0
  0
LINE
  5
88
  8
0
  6
CONTINUOUS
 62
     7
 10
267.4119148712
 20
22.6282888092
 30
0.0
 11
267.4119148712
 21
59.8906599308
 31
0.0
  0
LINE
  5
89
  8
0
  6
CONTINUOUS
 62
     7
 10
239.4125060623
 20
59.8906599308
 30
0.0
 11
415.9567907574
 21
59.8906599308
 31
0.0
  0
LINE
  5
8A
  8
0
  6
CONTINUOUS
 62
     7
 10
302.9193803417
 20
59.8906599308
 30
0.0
 11
302.9193803417
 21
9.9586585366
 31
0.0
  0
LINE
  5
8B
  8
0
  6
CONTINUOUS
 62
     7
 10
345.8853028693
 20
59.8906599308
 30
0.0
 11
345.8853028693
 21
9.9586585366
 31
0.0
  0
LINE
  5
8C
  8
0
  6
CONTINUOUS
 62
     7
 10
345.8853028693
 20
15.3659588565
 30
0.0
 11
415.9567907574
 21
15.3659588565
 31
0.0
  0
LINE
  5
8D
  8
0
  6
CONTINUOUS
 62
     7
 10
345.8853028693
 20
28.2431806399
 30
0.0
 11
415.9567907574
 21
28.2431806399
 31
0.0
  0
LINE
  5
8E
  8
0
  6
CONTINUOUS
 62
     7
 10
345.8853028693
 20
40.6945188375
 30
0.0
 11
415.9567907574
 21
40.6945188375
 31
0.0
  0
LINE
  5
8F
  8
0
  6
CONTINUOUS
 62
     7
 10
355.9321394572
 20
28.2431806399
 30
0.0
 11
355.9321394572
 21
15.3659588565
 31
0.0
  0
LINE
  5
90
  8
0
  6
CONTINUOUS
 62
     7
 10
366.7929703041
 20
15.3659588565
 30
0.0
 11
366.7929703041
 21
9.9586585366
 31
0.0
  0
LINE
  5
91
  8
0
  6
CONTINUOUS
 62
     7
 10
401.4296342521
 20
28.2431806399
 30
0.0
 11
401.4296342521
 21
15.3659588565
 31
0.0
  0
LINE
  5
92
  8
0
  6
CONTINUOUS
 62
     7
 10
391.4795388001
 20
15.3659588565
 30
0.0
 11
391.4795388001
 21
9.9586585366
 31
0.0
  0
LINE
  5
93
  8
0
  6
CONTINUOUS
 62
     7
 10
239.4125060623
 20
37.5332372579
 30
0.0
 11
267.4119148712
 21
37.5332372579
 31
0.0
  0
LINE
  5
94
  8
0
  6
CONTINUOUS
 62
     7
 10
302.9193803417
 20
45.5655968697
 30
0.0
 11
345.8853028693
 21
45.5655968697
 31
0.0
  0
LINE
  5
95
  8
0
  6
CONTINUOUS
 62
     7
 10
302.9193803417
 20
50.3280968697
 30
0.0
 11
345.8853028693
 21
50.3280968697
 31
0.0
  0
LINE
  5
96
  8
0
  6
CONTINUOUS
 62
     7
 10
302.9193803417
 20
55.0905968697
 30
0.0
 11
345.8853028693
 21
55.0905968697
 31
0.0
  0
LINE
  5
97
  8
0
  6
CONTINUOUS
 62
     7
 10
345.8853028693
 20
31.2780968697
 30
0.0
 11
302.9193803417
 21
31.2780968697
 31
0.0
  0
LINE
  5
98
  8
0
  6
CONTINUOUS
 62
     7
 10
333.717459143
 20
59.8906599308
 30
0.0
 11
333.717459143
 21
31.2780968697
 31
0.0
  0
LINE
  5
99
  8
0
  6
CONTINUOUS
 62
     7
 10
321.8168681458
 20
59.8906599308
 30
0.0
 11
321.8168681458
 21
31.2780968697
 31
0.0
  0
LINE
  5
9A
  8
0
  6
CONTINUOUS
 62
     7
 10
239.4125060623
 20
22.6282888092
 30
0.0
 11
302.9193803417
 21
22.6282888092
 31
0.0
  0
LINE
  5
9B
  8
0
  6
CONTINUOUS
 62
     7
 10
239.4125060623
 20
9.9586585366
 30
0.0
 11
239.4125060623
 21
59.8906599308
 31
0.0
  0
LINE
  5
9C
  8
0
  6
CONTINUOUS
 62
     7
 10
239.4125060623
 20
30.0807630335
 30
0.0
 11
267.4119148712
 21
30.0807630335
 31
0.0
  0
LINE
  5
9D
  8
0
  6
CONTINUOUS
 62
     7
 10
239.4125060623
 20
44.9857114822
 30
0.0
 11
267.4119148712
 21
44.9857114822
 31
0.0
  0
LINE
  5
9E
  8
0
  6
CONTINUOUS
 62
     7
 10
302.9193803417
 20
55.932866281
 30
0.0
 11
267.4119148712
 21
55.932866281
 31
0.0
  0
LINE
  5
9F
  8
0
  6
CONTINUOUS
 62
     7
 10
345.8853028693
 20
40.8030968697
 30
0.0
 11
302.9193803417
 21
40.8030968697
 31
0.0
  0
LINE
  5
A0
  8
0
  6
CONTINUOUS
 62
     7
 10
345.8853028693
 20
36.0405968697
 30
0.0
 11
302.9193803417
 21
36.0405968697
 31
0.0
  0
LINE
  5
A1
  8
0
  6
CONTINUOUS
 62
     7
 10
239.4125060623
 20
52.4381857065
 30
0.0
 11
267.4119148712
 21
52.4381857065
 31
0.0
  0
LINE
  5
A2
  8
0
  6
CONTINUOUS
 62
     7
 10
365.9441907574
 20
9.9586585366
 30
0.0
 11
365.9441907574
 21
7.8047587093
 31
0.0
  0
LINE
  5
A3
  8
0
  6
CONTINUOUS
 62
     7
 10
315.9379407574
 20
9.9586585366
 30
0.0
 11
315.9379407574
 21
7.8047587093
 31
0.0
  0
LINE
  5
A4
  8
0
  6
CONTINUOUS
 62
     7
 10
265.9316907574
 20
9.9586585366
 30
0.0
 11
265.9316907574
 21
7.8047587093
 31
0.0
  0
LINE
  5
A5
  8
0
  6
CONTINUOUS
 62
     7
 10
215.9254407574
 20
9.9586585366
 30
0.0
 11
215.9254407574
 21
7.8047587093
 31
0.0
  0
LINE
  5
A6
  8
0
  6
CONTINUOUS
 62
     7
 10
165.9191907574
 20
9.9586585366
 30
0.0
 11
165.9191907574
 21
7.8047587093
 31
0.0
  0
LINE
  5
A7
  8
0
  6
CONTINUOUS
 62
     7
 10
115.9129407574
 20
9.9586585366
 30
0.0
 11
115.9129407574
 21
7.8047587093
 31
0.0
  0
LINE
  5
A8
  8
0
  6
CONTINUOUS
 62
     7
 10
65.9066907574
 20
9.9586585366
 30
0.0
 11
65.9066907574
 21
7.8047587093
 31
0.0
  0
LINE
  5
A9
  8
0
  6
CONTINUOUS
 62
     7
 10
65.9066907574
 20
270.3086585366
 30
0.0
 11
65.9066907574
 21
272.4625583638
 31
0.0
  0
LINE
  5
AA
  8
0
  6
CONTINUOUS
 62
     7
 10
115.9129407574
 20
270.3086585366
 30
0.0
 11
115.9129407574
 21
272.4625583638
 31
0.0
  0
LINE
  5
AB
  8
0
  6
CONTINUOUS
 62
     7
 10
165.9191907574
 20
270.3086585366
 30
0.0
 11
165.9191907574
 21
272.4625583638
 31
0.0
  0
LINE
  5
AC
  8
0
  6
CONTINUOUS
 62
     7
 10
215.9254407574
 20
270.3086585366
 30
0.0
 11
215.9254407574
 21
272.4625583638
 31
0.0
  0
LINE
  5
AD
  8
0
  6
CONTINUOUS
 62
     7
 10
265.9316907574
 20
270.3086585366
 30
0.0
 11
265.9316907574
 21
272.4625583638
 31
0.0
  0
LINE
  5
AE
  8
0
  6
CONTINUOUS
 62
     7
 10
315.9379407574
 20
270.3086585366
 30
0.0
 11
315.9379407574
 21
272.4625583638
 31
0.0
  0
LINE
  5
AF
  8
0
  6
CONTINUOUS
 62
     7
 10
365.9441907574
 20
270.3086585366
 30
0.0
 11
365.9441907574
 21
272.4625583638
 31
0.0
  0
LINE
  5
B0
  8
0
  6
CONTINUOUS
 62
     7
 10
215.9254407574
 20
270.3086585366
 30
0.0
 11
215.5888623736
 21
271.3737387512
 31
0.0
  0
LINE
  5
B1
  8
0
  6
CONTINUOUS
 62
     7
 10
215.9254407574
 20
270.3086585366
 30
0.0
 11
216.2443370929
 21
271.3737387512
 31
0.0
  0
LINE
  5
B2
  8
0
  6
CONTINUOUS
 62
     7
 10
216.2443370929
 20
271.3737387512
 30
0.0
 11
215.5888623736
 21
271.3737387512
 31
0.0
  0
LINE
  5
B3
  8
0
  6
CONTINUOUS
 62
     7
 10
215.7466618431
 20
271.3737387512
 30
0.0
 11
215.9254407574
 21
270.3086585366
 31
0.0
  0
LINE
  5
B4
  8
0
  6
CONTINUOUS
 62
     7
 10
216.0501223612
 20
271.3737387512
 30
0.0
 11
215.9254407574
 21
270.3086585366
 31
0.0
  0
LINE
  5
B5
  8
0
  6
CONTINUOUS
 62
     7
 10
215.9254407574
 20
9.9586585366
 30
0.0
 11
216.2443370929
 21
9.0805
 31
0.0
  0
LINE
  5
B6
  8
0
  6
CONTINUOUS
 62
     7
 10
216.2443370929
 20
9.0805
 30
0.0
 11
215.5888623736
 21
9.0805
 31
0.0
  0
LINE
  5
B7
  8
0
  6
CONTINUOUS
 62
     7
 10
215.5888623736
 20
9.0805
 30
0.0
 11
215.9254407574
 21
9.9586585366
 31
0.0
  0
TEXT
  5
B8
  8
0
  6
CONTINUOUS
 62
     7
 10
418.8794231834
 20
239.2335568223
 30
0.0
 40
2.38125
  1
D
 41
0.7
 11
418.8794231834
 21
238.0018128879
 31
0.0
 73
     1
  0
TEXT
  5
B9
  8
0
  6
CONTINUOUS
 62
     7
 10
418.3680386609
 20
173.5511734751
 30
0.0
 40
2.38125
  1
C
 41
0.7
 11
418.3680386609
 21
172.3194295408
 31
0.0
 73
     1
  0
TEXT
  5
BA
  8
0
  6
CONTINUOUS
 62
     7
 10
419.3915604936
 20
109.3909885008
 30
0.0
 40
2.38125
  1
B
 41
0.7
 11
419.3915604936
 21
108.1592445664
 31
0.0
 73
     1
  0
TEXT
  5
BB
  8
0
  6
CONTINUOUS
 62
     7
 10
418.6448555065
 20
43.1868431482
 30
0.0
 40
2.38125
  1
A
 41
0.7
 11
418.6448555065
 21
41.9550992138
 31
0.0
 73
     1
  0
TEXT
  5
BC
  8
0
  6
CONTINUOUS
 62
     7
 10
10.820652718
 20
42.7607438563
 30
0.0
 40
2.38125
  1
A
 41
0.7
 11
10.820652718
 21
41.528999922
 31
0.0
 73
     1
  0
TEXT
  5
BD
  8
0
  6
CONTINUOUS
 62
     7
 10
10.8306039777
 20
109.7505871233
 30
0.0
 40
2.38125
  1
B
 41
0.7
 11
10.8306039777
 21
108.518843189
 31
0.0
 73
     1
  0
TEXT
  5
BE
  8
0
  6
CONTINUOUS
 62
     7
 10
10.853786142
 20
173.684884517
 30
0.0
 40
2.38125
  1
C
 41
0.7
 11
10.853786142
 21
172.4531405826
 31
0.0
 73
     1
  0
TEXT
  5
BF
  8
0
  6
CONTINUOUS
 62
     7
 10
10.8867061911
 20
238.3838544032
 30
0.0
 40
2.38125
  1
D
 41
0.7
 11
10.8867061911
 21
237.1521104688
 31
0.0
 73
     1
  0
TEXT
  5
C0
  8
0
  6
CONTINUOUS
 62
     7
 10
391.3712451301
 20
5.8170004843
 30
0.0
 40
2.38125
  1
1
 41
0.7
 11
391.3712451301
 21
4.58525655
 31
0.0
 73
     1
  0
TEXT
  5
C1
  8
0
  6
CONTINUOUS
 62
     7
 10
339.1483381356
 20
6.0981054104
 30
0.0
 40
2.38125
  1
2
 41
0.7
 11
339.1483381356
 21
4.8663614761
 31
0.0
 73
     1
  0
TEXT
  5
C2
  8
0
  6
CONTINUOUS
 62
     7
 10
289.020766442
 20
6.0772786579
 30
0.0
 40
2.38125
  1
3
 41
0.7
 11
289.020766442
 21
4.8455347236
 31
0.0
 73
     1
  0
TEXT
  5
C3
  8
0
  6
CONTINUOUS
 62
     7
 10
240.541173263
 20
6.1307346755
 30
0.0
 40
2.38125
  1
4
 41
0.7
 11
240.541173263
 21
4.8989907412
 31
0.0
 73
     1
  0
TEXT
  5
C4
  8
0
  6
CONTINUOUS
 62
     7
 10
190.1219351105
 20
6.0510465674
 30
0.0
 40
2.38125
  1
5
 41
0.7
 11
190.1219351105
 21
4.8193026331
 31
0.0
 73
     1
  0
TEXT
  5
C5
  8
0
  6
CONTINUOUS
 62
     7
 10
140.1781610596
 20
6.1289990062
 30
0.0
 40
2.38125
  1
6
 41
0.7
 11
140.1781610596
 21
4.8972550719
 31
0.0
 73
     1
  0
TEXT
  5
C6
  8
0
  6
CONTINUOUS
 62
     7
 10
90.3586375544
 20
6.1189811654
 30
0.0
 40
2.38125
  1
7
 41
0.7
 11
90.3586375544
 21
4.8872372311
 31
0.0
 73
     1
  0
TEXT
  5
C7
  8
0
  6
CONTINUOUS
 62
     7
 10
38.7800710995
 20
6.1114052863
 30
0.0
 40
2.38125
  1
8
 41
0.7
 11
38.7800710995
 21
4.879661352
 31
0.0
 73
     1
  0
TEXT
  5
C8
  8
0
  6
CONTINUOUS
 62
     7
 10
38.3308572712
 20
273.2822070956
 30
0.0
 40
2.38125
  1
8
 41
0.7
 11
38.3308572712
 21
272.0504631613
 31
0.0
 73
     1
  0
TEXT
  5
C9
  8
0
  6
CONTINUOUS
 62
     7
 10
90.1950704946
 20
273.2100467351
 30
0.0
 40
2.38125
  1
7
 41
0.7
 11
90.1950704946
 21
271.9783028007
 31
0.0
 73
     1
  0
TEXT
  5
CA
  8
0
  6
CONTINUOUS
 62
     7
 10
139.6666672272
 20
273.4155640603
 30
0.0
 40
2.38125
  1
6
 41
0.7
 11
139.6666672272
 21
272.183820126
 31
0.0
 73
     1
  0
TEXT
  5
CB
  8
0
  6
CONTINUOUS
 62
     7
 10
189.9588449211
 20
273.4291926177
 30
0.0
 40
2.38125
  1
5
 41
0.7
 11
189.9588449211
 21
272.1974486834
 31
0.0
 73
     1
  0
TEXT
  5
CC
  8
0
  6
CONTINUOUS
 62
     7
 10
240.3931876138
 20
273.3878072995
 30
0.0
 40
2.38125
  1
4
 41
0.7
 11
240.3931876138
 21
272.1560633652
 31
0.0
 73
     1
  0
TEXT
  5
CD
  8
0
  6
CONTINUOUS
 62
     7
 10
290.3912938678
 20
273.2320168806
 30
0.0
 40
2.38125
  1
3
 41
0.7
 11
290.3912938678
 21
272.0002729463
 31
0.0
 73
     1
  0
TEXT
  5
CE
  8
0
  6
CONTINUOUS
 62
     7
 10
340.3852725955
 20
273.4016856799
 30
0.0
 40
2.38125
  1
2
 41
0.7
 11
340.3852725955
 21
272.1699417456
 31
0.0
 73
     1
  0
TEXT
  5
CF
  8
0
  6
CONTINUOUS
 62
     7
 10
391.8558838139
 20
273.245895261
 30
0.0
 40
2.38125
  1
1
 41
0.7
 11
391.8558838139
 21
272.0141513267
 31
0.0
 73
     1
  0
TEXT
  5
D0
  8
0
  6
CONTINUOUS
 62
     7
 10
304.0533426204
 20
52.10716342
 30
0.0
 40
1.651
  1
DRAWN
 41
0.7
 11
304.0533426204
 21
51.2531542922
 31
0.0
 73
     1
  0
TEXT
  5
D1
  8
0
  6
CONTINUOUS
 62
     7
 10
304.107468993
 20
47.2212139728
 30
0.0
 40
1.651
  1
CHECKED
 41
0.7
 11
304.107468993
 21
46.367204845
 31
0.0
 73
     1
  0
TEXT
  5
D2
  8
0
  6
CONTINUOUS
 62
     7
 10
304.0339801714
 20
42.5852128241
 30
0.0
 40
1.651
  1
ENG APPR.
 41
0.7
 11
304.0339801714
 21
41.7312036963
 31
0.0
 73
     1
  0
TEXT
  5
D3
  8
0
  6
CONTINUOUS
 62
     7
 10
304.1596674102
 20
37.8298924857
 30
0.0
 40
1.651
  1
MFG APPR.
 41
0.7
 11
304.1596674102
 21
36.9758833579
 31
0.0
 73
     1
  0
TEXT
  5
D4
  8
0
  6
CONTINUOUS
 62
     7
 10
304.1184100676
 20
33.1074565554
 30
0.0
 40
1.651
  1
Q.A.
 41
0.7
 11
304.1184100676
 21
32.2534474276
 31
0.0
 73
     1
  0
TEXT
  5
D5
  8
0
  6
CONTINUOUS
 62
     7
 10
304.1405984105
 20
28.8931176765
 30
0.0
 40
1.651
  1
SPECIAL INSTRUCTIONS
 41
0.7
 11
304.1405984105
 21
28.0391085487
 31
0.0
 73
     1
  0
TEXT
  5
D6
  8
0
  6
CONTINUOUS
 62
     7
 10
337.1716819677
 20
56.8633080503
 30
0.0
 40
1.651
  1
DATE
 41
0.7
 11
337.1716819677
 21
56.0092989225
 31
0.0
 73
     1
  0
TEXT
  5
D7
  8
0
  6
CONTINUOUS
 62
     7
 10
324.6806332778
 20
56.9074079247
 30
0.0
 40
1.651
  1
NAME
 41
0.7
 11
324.6806332778
 21
56.0533987969
 31
0.0
 73
     1
  0
TEXT
  5
D8
  8
0
  6
CONTINUOUS
 62
     7
 10
346.4335994777
 20
37.8274589399
 30
0.0
 40
2.54
  1
DESCRIPTION
 41
0.7
 11
346.4335994777
 21
36.5135987433
 31
0.0
 73
     1
  0
TEXT
  5
D9
  8
0
  6
CONTINUOUS
 62
     7
 10
347.9363827844
 20
25.656320385
 30
0.0
 40
2.54
  1
SIZE
 41
0.7
 11
347.9363827844
 21
24.3424601884
 31
0.0
 73
     1
  0
TEXT
  5
DA
  8
0
  6
CONTINUOUS
 62
     7
 10
348.1367908427
 20
19.082108012
 30
0.0
 40
6.35
  1
B
 41
0.7
 11
348.1367908427
 21
15.7974575204
 31
0.0
 73
     1
  0
TEXT
  5
DB
  8
0
  6
CONTINUOUS
 62
     7
 10
356.7374550372
 20
25.6207903821
 30
0.0
 40
2.54
  1
PART  NO.
 41
0.6222222222
 11
356.7374550372
 21
24.3069301855
 31
0.0
 73
     1
  0
TEXT
  5
DC
  8
0
  6
CONTINUOUS
 62
     7
 10
405.7417006553
 20
25.521572131
 30
0.0
 40
2.54
  1
REV
 41
0.7
 11
405.7417006553
 21
24.2077119344
 31
0.0
 73
     1
  0
TEXT
  5
DD
  8
0
  6
CONTINUOUS
 62
     7
 10
348.105439662
 20
12.0629373507
 30
0.0
 40
2.54
  1
SCALE: 2:1
 41
0.7
 11
348.105439662
 21
10.7490771541
 31
0.0
 73
     1
  0
TEXT
  5
DE
  8
FORMAT
 62
     7
 10
404.739437462
 20
19.2212841404
 30
0.0
 40
6.35
  1
A 
 41
0.7
 11
404.739437462
 21
15.9366336488
 31
0.0
 73
     1
  0
TEXT
  5
DF
  8
0
  6
CONTINUOUS
 62
     7
 10
325.2150527563
 20
52.266733402
 30
0.0
 40
1.905
  1
SGN
 41
0.7
 11
325.2150527563
 21
51.2813382545
 31
0.0
 73
     1
  0
TEXT
  5
E0
  8
FORMAT
 62
     7
 10
326.3022959533
 20
47.4987150648
 30
0.0
 40
1.905
  1
HE
 41
0.7
 11
326.3022959533
 21
46.5133199173
 31
0.0
 73
     1
  0
TEXT
  5
E1
  8
FORMAT
 62
     7
 10
335.3960368892
 20
47.3776198029
 30
0.0
 40
1.905
  1
9/29/14
 41
0.7
 11
335.3960368892
 21
46.3922246554
 31
0.0
 73
     1
  0
TEXT
  5
E2
  8
0
  6
CONTINUOUS
 62
     7
 10
334.6402093676
 20
52.1652111179
 30
0.0
 40
1.905
  1
08/19/09
 41
0.7
 11
334.6402093676
 21
51.1798159705
 31
0.0
 73
     1
  0
TEXT
  5
E3
  8
0
  6
CONTINUOUS
 62
     7
 10
393.7876923049
 20
12.0711965491
 30
0.0
 40
2.54
  1
SHEET 1 OF 1
 41
0.6125
 11
393.7876923049
 21
10.7573363525
 31
0.0
 73
     1
  0
INSERT
  5
E9
  8
0
  6
CONTINUOUS
 62
     7
  2
SW_NOTE_0
 10
371.934354406
 20
12.6693248194
 30
0.0
  0
INSERT
  5
F2
  8
0
  6
CONTINUOUS
 62
     7
  2
SW_NOTE_1
 10
388.3154295212
 20
54.8027657552
 30
0.0
  0
INSERT
  5
118
  8
0
  6
CONTINUOUS
 62
     7
  2
SW_NOTE_2
 10
268.7298633762
 20
52.2453504551
 30
0.0
  0
TEXT
  5
119
  8
0
  6
CONTINUOUS
 62
     7
 10
268.5436755374
 20
57.8031420464
 30
0.0
 40
1.778
  1
UNLESS OTHERWISE SPECIFIED:
 41
0.6740740741
 11
268.5436755374
 21
56.8834399088
 31
0.0
 73
     1
  0
TEXT
  5
11A
  8
0
  6
CONTINUOUS
 62
     7
 10
240.2330248899
 20
28.5037766655
 30
0.0
 40
1.524
  1
SURFACE AREA
 41
0.7
 11
240.2330248899
 21
27.7154605475
 31
0.0
 73
     1
  0
TEXT
  5
11B
  8
0
  6
CONTINUOUS
 62
     7
 10
240.3637824689
 20
35.9396013027
 30
0.0
 40
1.524
  1
WEIGHT
 41
0.7
 11
240.3637824689
 21
35.1512851848
 31
0.0
 73
     1
  0
TEXT
  5
11C
  8
0
  6
CONTINUOUS
 62
     7
 10
240.3461713978
 20
43.4796947623
 30
0.0
 40
1.524
  1
FINISH
 41
0.7
 11
240.3461713978
 21
42.6913786444
 31
0.0
 73
     1
  0
TEXT
  5
11D
  8
0
  6
CONTINUOUS
 62
     7
 10
240.2330248899
 20
50.6985414079
 30
0.0
 40
1.5875
  1
THICKNESS
 41
0.7
 11
240.2330248899
 21
49.8773787851
 31
0.0
 73
     1
  0
TEXT
  5
11E
  8
0
  6
CONTINUOUS
 62
     7
 10
240.2330248899
 20
58.4040899988
 30
0.0
 40
1.524
  1
MATERIAL
 41
0.7
 11
240.2330248899
 21
57.6157738808
 31
0.0
 73
     1
  0
INSERT
  5
125
  8
0
  6
CONTINUOUS
 62
     7
  2
SW_NOTE_3
 10
245.9118775066
 20
17.791041226
 30
0.0
  0
LINE
  5
126
  8
0
  6
CONTINUOUS
 62
     7
 10
90.9915624604
 20
143.2506637888
 30
0.0
 11
90.9915624604
 21
147.2506639788
 31
0.0
  0
LINE
  5
127
  8
0
  6
CONTINUOUS
 62
     7
 10
90.9915624604
 20
143.2506637888
 30
0.0
 11
81.8715637967
 21
143.2506637888
 31
0.0
  0
LINE
  5
128
  8
0
  6
CONTINUOUS
 62
     7
 10
81.8715637967
 20
143.2506637888
 30
0.0
 11
81.8715637967
 21
147.2506639788
 31
0.0
  0
LINE
  5
129
  8
0
  6
CONTINUOUS
 62
     7
 10
90.9915624604
 20
147.2506639788
 30
0.0
 11
81.8715637967
 21
147.2506639788
 31
0.0
  0
LINE
  5
12A
  8
0
  6
CONTINUOUS
 62
     7
 10
120.6915625323
 20
142.2506640906
 30
0.0
 11
120.6915625323
 21
147.2506639788
 31
0.0
  0
LINE
  5
12B
  8
0
  6
CONTINUOUS
 62
     7
 10
105.6915617034
 20
142.2506640906
 30
0.0
 11
105.6915617034
 21
147.2506639788
 31
0.0
  0
LINE
  5
12C
  8
0
  6
CONTINUOUS
 62
     7
 10
120.6915625323
 20
142.2506640906
 30
0.0
 11
105.6915617034
 21
142.2506640906
 31
0.0
  0
LINE
  5
12D
  8
0
  6
CONTINUOUS
 62
     7
 10
101.3515631155
 20
144.2506639527
 30
0.0
 11
90.9915624604
 21
144.2506639527
 31
0.0
  0
LINE
  5
12E
  8
0
  6
CONTINUOUS
 62
     7
 10
81.8715637967
 20
144.2506639527
 30
0.0
 11
69.6515610859
 21
144.2506639527
 31
0.0
  0
LINE
  5
12F
  8
0
  6
CONTINUOUS
 62
     7
 10
69.6515610859
 20
144.2506639527
 30
0.0
 11
69.6515610859
 21
147.2506639788
 31
0.0
  0
LINE
  5
130
  8
0
  6
CONTINUOUS
 62
     7
 10
101.3515631155
 20
144.2506639527
 30
0.0
 11
101.3515631155
 21
147.2506639788
 31
0.0
  0
LINE
  5
131
  8
0
  6
CONTINUOUS
 62
     7
 10
67.7515624509
 20
157.2506637553
 30
0.0
 11
67.7515624509
 21
149.2506640738
 31
0.0
  0
LINE
  5
132
  8
0
  6
CONTINUOUS
 62
     7
 10
67.7515624509
 20
157.2506637553
 30
0.0
 11
117.7515622646
 21
157.2506637553
 31
0.0
  0
LINE
  5
133
  8
0
  6
CONTINUOUS
 62
     7
 10
117.7515622646
 20
157.2506637553
 30
0.0
 11
117.7515622646
 21
149.2506640738
 31
0.0
  0
LINE
  5
134
  8
0
  6
CONTINUOUS
 62
     7
 10
67.7515624509
 20
149.2506640738
 30
0.0
 11
117.7515622646
 21
149.2506640738
 31
0.0
  0
LINE
  5
135
  8
0
  6
CONTINUOUS
 62
     7
 10
63.2915629492
 20
149.2506640738
 30
0.0
 11
63.2915629492
 21
147.2506639788
 31
0.0
  0
LINE
  5
136
  8
0
  6
CONTINUOUS
 62
     7
 10
148.5915633336
 20
149.2506640738
 30
0.0
 11
148.5915633336
 21
147.2506639788
 31
0.0
  0
LINE
  5
137
  8
0
  6
CONTINUOUS
 62
     7
 10
63.2915629492
 20
147.2506639788
 30
0.0
 11
148.5915633336
 21
147.2506639788
 31
0.0
  0
LINE
  5
138
  8
0
  6
CONTINUOUS
 62
     7
 10
63.2915629492
 20
149.2506640738
 30
0.0
 11
148.5915633336
 21
149.2506640738
 31
0.0
  0
LINE
  5
139
  8
0
  6
CONTINUOUS
 62
     7
 10
190.1915653095
 20
149.2506640738
 30
0.0
 11
190.1915653095
 21
147.2506639788
 31
0.0
  0
LINE
  5
13A
  8
0
  6
CONTINUOUS
 62
     7
 10
148.5915633336
 20
147.2506639788
 30
0.0
 11
190.1915653095
 21
147.2506639788
 31
0.0
  0
LINE
  5
13B
  8
0
  6
CONTINUOUS
 62
     7
 10
148.5915633336
 20
149.2506640738
 30
0.0
 11
190.1915653095
 21
149.2506640738
 31
0.0
  0
LINE
  5
13C
  8
0
  6
CONTINUOUS
 62
     7
 10
55.2915616379
 20
149.2506640738
 30
0.0
 11
55.2915616379
 21
147.2506639788
 31
0.0
  0
LINE
  5
13D
  8
0
  6
CONTINUOUS
 62
     7
 10
55.2915616379
 20
147.2506639788
 30
0.0
 11
63.2915629492
 21
147.2506639788
 31
0.0
  0
LINE
  5
13E
  8
0
  6
CONTINUOUS
 62
     7
 10
55.2915616379
 20
149.2506640738
 30
0.0
 11
63.2915629492
 21
149.2506640738
 31
0.0
  0
LINE
  5
13F
  8
0
  6
CONTINUOUS
 62
     7
 10
193.5915632591
 20
149.2506640738
 30
0.0
 11
193.5915632591
 21
147.2506639788
 31
0.0
  0
LINE
  5
140
  8
0
  6
CONTINUOUS
 62
     7
 10
190.1915653095
 20
147.2506639788
 30
0.0
 11
193.5915632591
 21
147.2506639788
 31
0.0
  0
LINE
  5
141
  8
0
  6
CONTINUOUS
 62
     7
 10
190.1915653095
 20
149.2506640738
 30
0.0
 11
193.5915632591
 21
149.2506640738
 31
0.0
  0
LINE
  5
142
  8
0
  6
CONTINUOUS
 62
     7
 10
105.6915617034
 20
246.5300003427
 30
0.0
 11
105.6915617034
 21
248.8099990773
 31
0.0
  0
LINE
  5
143
  8
0
  6
CONTINUOUS
 62
     7
 10
105.6915617034
 20
248.8099990773
 30
0.0
 11
120.6915625323
 21
248.8099990773
 31
0.0
  0
LINE
  5
144
  8
0
  6
CONTINUOUS
 62
     7
 10
120.6915625323
 20
248.8099990773
 30
0.0
 11
120.6915625323
 21
246.5300003427
 31
0.0
  0
LINE
  5
145
  8
0
  6
CONTINUOUS
 62
     7
 10
67.7515624509
 20
185.5299996573
 30
0.0
 11
117.7515622646
 21
185.5299996573
 31
0.0
  0
LINE
  5
146
  8
0
  6
CONTINUOUS
 62
     7
 10
117.7515622646
 20
235.5300004023
 30
0.0
 11
67.7515624509
 21
235.5300004023
 31
0.0
  0
LINE
  5
147
  8
0
  6
CONTINUOUS
 62
     7
 10
117.7515622646
 20
185.5299996573
 30
0.0
 11
117.7515622646
 21
235.5300004023
 31
0.0
  0
LINE
  5
148
  8
0
  6
CONTINUOUS
 62
     7
 10
67.7515624509
 20
235.5300004023
 30
0.0
 11
67.7515624509
 21
185.5299996573
 31
0.0
  0
CIRCLE
  5
149
  8
0
  6
CONTINUOUS
 62
     7
 10
61.6915624485
 20
204.21
 30
0.0
 40
1.5
  0
CIRCLE
  5
14A
  8
0
  6
CONTINUOUS
 62
     7
 10
188.0315624485
 20
231.4909242529
 30
0.0
 40
1.5
  0
CIRCLE
  5
14B
  8
0
  6
CONTINUOUS
 62
     7
 10
187.2715624485
 20
215.0309242529
 30
0.0
 40
1.699999999999989
  0
CIRCLE
  5
14C
  8
0
  6
CONTINUOUS
 62
     7
 10
188.0315624485
 20
238.5909242529
 30
0.0
 40
2.0
  0
LINE
  5
14D
  8
0
  6
CONTINUOUS
 62
     7
 10
174.5915620074
 20
246.5300003427
 30
0.0
 11
60.0915609345
 21
246.5300003427
 31
0.0
  0
LINE
  5
14E
  8
0
  6
CONTINUOUS
 62
     7
 10
193.5915632591
 20
192.7300004649
 30
0.0
 11
193.5915632591
 21
242.5299996871
 31
0.0
  0
LINE
  5
14F
  8
0
  6
CONTINUOUS
 62
     7
 10
190.1915653095
 20
192.2500005352
 30
0.0
 11
193.5915632591
 21
192.7300004649
 31
0.0
  0
LINE
  5
150
  8
0
  6
CONTINUOUS
 62
     7
 10
148.5915633336
 20
185.5299996573
 30
0.0
 11
190.1915653095
 21
192.2500005352
 31
0.0
  0
LINE
  5
151
  8
0
  6
CONTINUOUS
 62
     7
 10
63.2915629492
 20
185.5299996573
 30
0.0
 11
67.7515624509
 21
185.5299996573
 31
0.0
  0
LINE
  5
152
  8
0
  6
CONTINUOUS
 62
     7
 10
117.7515622646
 20
185.5299996573
 30
0.0
 11
148.5915633336
 21
185.5299996573
 31
0.0
  0
LINE
  5
153
  8
0
  6
CONTINUOUS
 62
     7
 10
55.2915616379
 20
193.1299997854
 30
0.0
 11
63.2915629492
 21
185.5299996573
 31
0.0
  0
LINE
  5
154
  8
0
  6
CONTINUOUS
 62
     7
 10
55.2915616379
 20
241.7299991834
 30
0.0
 11
55.2915616379
 21
193.1299997854
 31
0.0
  0
LINE
  5
155
  8
0
  6
CONTINUOUS
 62
     7
 10
60.0915609345
 20
246.5300003427
 30
0.0
 11
55.2915616379
 21
241.7299991834
 31
0.0
  0
CIRCLE
  5
156
  8
0
  6
CONTINUOUS
 62
     7
 10
188.0315624485
 20
196.6909242529
 30
0.0
 40
2.000000000000028
  0
CIRCLE
  5
157
  8
0
  6
CONTINUOUS
 62
     7
 10
187.2715624485
 20
222.7309242529
 30
0.0
 40
1.699999999999989
  0
CIRCLE
  5
158
  8
0
  6
CONTINUOUS
 62
     7
 10
61.6915624485
 20
197.17
 30
0.0
 40
2.0
  0
LINE
  5
159
  8
0
  6
CONTINUOUS
 62
     7
 10
193.5915632591
 20
242.5299996871
 30
0.0
 11
174.5915620074
 21
246.5300003427
 31
0.0
  0
DIMENSION
  5
15A
  8
0
  6
CONTINUOUS
 62
     7
  2
_D
 10
193.5915624485
 20
258.81
 30
0.0
 11
123.7465908602
 21
258.81
 31
0.0
 70
   160
  1
<>
  3
SLDDIMSTYLE0
 13
55.2915624485
 23
241.73
 33
0.0
 14
193.5915624485
 24
242.53
 34
0.0
  0
DIMENSION
  5
166
  8
0
  6
CONTINUOUS
 62
     7
  2
_D_1
 10
233.5915624485
 20
185.53
 30
0.0
 11
233.5915624485
 21
214.4668915333
 31
0.0
 70
   160
  1
<>
  3
SLDDIMSTYLE1
 13
174.5915624485
 23
246.53
 33
0.0
 14
148.5915624485
 24
185.53
 34
0.0
 50
90.0
  0
DIMENSION
  5
172
  8
0
  6
CONTINUOUS
 62
     7
  2
_D_2
 10
186.0930180049
 20
239.082905391
 30
0.0
 11
220.1446803516
 21
232.9578291682
 31
0.0
 70
   163
  1
<>
  3
SLDDIMSTYLE2
 15
189.9701068921
 25
238.0989431149
 35
0.0
 40
0.0
  0
DIMENSION
  5
17C
  8
0
  6
CONTINUOUS
 62
     7
  2
_D_3
 10
186.5769094636
 20
231.8569634497
 30
0.0
 11
220.1446803516
 21
226.6435807174
 31
0.0
 70
   163
  1
<>
  3
SLDDIMSTYLE3
 15
189.4862154334
 25
231.1248850561
 35
0.0
 40
0.0
  0
INSERT
  5
191
  8
0
  6
CONTINUOUS
 62
     7
  2
SW_CENTERMARKSYMBOL_0
 10
188.0315624485
 20
238.5909242529
 30
0.0
  0
INSERT
  5
19D
  8
0
  6
CONTINUOUS
 62
     7
  2
SW_CENTERMARKSYMBOL_1
 10
188.0315624485
 20
196.6909242529
 30
0.0
  0
INSERT
  5
1A9
  8
0
  6
CONTINUOUS
 62
     7
  2
SW_CENTERMARKSYMBOL_2
 10
187.2715624485
 20
215.0309242529
 30
0.0
  0
INSERT
  5
1B5
  8
0
  6
CONTINUOUS
 62
     7
  2
SW_CENTERMARKSYMBOL_3
 10
187.2715624485
 20
222.7309242529
 30
0.0
  0
INSERT
  5
1C1
  8
0
  6
CONTINUOUS
 62
     7
  2
SW_CENTERMARKSYMBOL_4
 10
188.0315624485
 20
231.4909242529
 30
0.0
  0
INSERT
  5
1CD
  8
0
  6
CONTINUOUS
 62
     7
  2
SW_CENTERMARKSYMBOL_5
 10
61.6915624485
 20
197.17
 30
0.0
  0
INSERT
  5
1D9
  8
0
  6
CONTINUOUS
 62
     7
  2
SW_CENTERMARKSYMBOL_6
 10
61.6915624485
 20
204.21
 30
0.0
  0
LINE
  5
1DA
  8
0
  6
CONTINUOUS
 62
     7
 10
288.6868868504
 20
143.2506637888
 30
0.0
 11
288.6868868504
 21
147.2506639788
 31
0.0
  0
LINE
  5
1DB
  8
0
  6
CONTINUOUS
 62
     7
 10
283.8868856911
 20
143.2506637888
 30
0.0
 11
283.8868856911
 21
147.2506639788
 31
0.0
  0
LINE
  5
1DC
  8
0
  6
CONTINUOUS
 62
     7
 10
288.6868868504
 20
143.2506637888
 30
0.0
 11
283.8868856911
 21
143.2506637888
 31
0.0
  0
LINE
  5
1DD
  8
0
  6
CONTINUOUS
 62
     7
 10
347.1668851111
 20
142.2506640906
 30
0.0
 11
347.1668851111
 21
147.2506639788
 31
0.0
  0
LINE
  5
1DE
  8
0
  6
CONTINUOUS
 62
     7
 10
336.5668863539
 20
142.2506640906
 30
0.0
 11
336.5668863539
 21
147.2506639788
 31
0.0
  0
LINE
  5
1DF
  8
0
  6
CONTINUOUS
 62
     7
 10
347.1668851111
 20
147.2506639788
 30
0.0
 11
344.8868863765
 21
147.2506639788
 31
0.0
  0
LINE
  5
1E0
  8
0
  6
CONTINUOUS
 62
     7
 10
347.1668851111
 20
142.2506640906
 30
0.0
 11
336.5668863539
 21
142.2506640906
 31
0.0
  0
LINE
  5
1E1
  8
0
  6
CONTINUOUS
 62
     7
 10
336.5668863539
 20
144.2506639527
 30
0.0
 11
312.0868859827
 21
144.2506639527
 31
0.0
  0
LINE
  5
1E2
  8
0
  6
CONTINUOUS
 62
     7
 10
312.0868859827
 20
144.2506639527
 30
0.0
 11
312.0868859827
 21
147.2506639788
 31
0.0
  0
LINE
  5
1E3
  8
0
  6
CONTINUOUS
 62
     7
 10
283.8868856911
 20
157.2506637553
 30
0.0
 11
283.8868856911
 21
149.2506640738
 31
0.0
  0
LINE
  5
1E4
  8
0
  6
CONTINUOUS
 62
     7
 10
283.8868856911
 20
157.2506637553
 30
0.0
 11
333.8868864361
 21
157.2506637553
 31
0.0
  0
LINE
  5
1E5
  8
0
  6
CONTINUOUS
 62
     7
 10
333.8868864361
 20
157.2506637553
 30
0.0
 11
333.8868864361
 21
149.2506640738
 31
0.0
  0
LINE
  5
1E6
  8
0
  6
CONTINUOUS
 62
     7
 10
340.8868857209
 20
149.2506640738
 30
0.0
 11
340.8868857209
 21
147.2506639788
 31
0.0
  0
LINE
  5
1E7
  8
0
  6
CONTINUOUS
 62
     7
 10
340.8868857209
 20
149.2506640738
 30
0.0
 11
344.8868863765
 21
149.2506640738
 31
0.0
  0
LINE
  5
1E8
  8
0
  6
CONTINUOUS
 62
     7
 10
344.8868863765
 20
149.2506640738
 30
0.0
 11
344.8868863765
 21
147.2506639788
 31
0.0
  0
LINE
  5
1E9
  8
0
  6
CONTINUOUS
 62
     7
 10
340.8868857209
 20
147.2506639788
 30
0.0
 11
344.8868863765
 21
147.2506639788
 31
0.0
  0
LINE
  5
1EA
  8
0
  6
CONTINUOUS
 62
     7
 10
291.0868864987
 20
149.2506640738
 30
0.0
 11
291.0868864987
 21
147.2506639788
 31
0.0
  0
LINE
  5
1EB
  8
0
  6
CONTINUOUS
 62
     7
 10
291.0868864987
 20
147.2506639788
 30
0.0
 11
340.8868857209
 21
147.2506639788
 31
0.0
  0
LINE
  5
1EC
  8
0
  6
CONTINUOUS
 62
     7
 10
291.0868864987
 20
149.2506640738
 30
0.0
 11
340.8868857209
 21
149.2506640738
 31
0.0
  0
LINE
  5
1ED
  8
0
  6
CONTINUOUS
 62
     7
 10
290.606886569
 20
149.2506640738
 30
0.0
 11
290.606886569
 21
147.2506639788
 31
0.0
  0
LINE
  5
1EE
  8
0
  6
CONTINUOUS
 62
     7
 10
290.606886569
 20
147.2506639788
 30
0.0
 11
291.0868864987
 21
147.2506639788
 31
0.0
  0
LINE
  5
1EF
  8
0
  6
CONTINUOUS
 62
     7
 10
290.606886569
 20
149.2506640738
 30
0.0
 11
291.0868864987
 21
149.2506640738
 31
0.0
  0
LINE
  5
1F0
  8
0
  6
CONTINUOUS
 62
     7
 10
283.8868856911
 20
149.2506640738
 30
0.0
 11
283.8868856911
 21
147.2506639788
 31
0.0
  0
LINE
  5
1F1
  8
0
  6
CONTINUOUS
 62
     7
 10
283.8868856911
 20
147.2506639788
 30
0.0
 11
290.606886569
 21
147.2506639788
 31
0.0
  0
LINE
  5
1F2
  8
0
  6
CONTINUOUS
 62
     7
 10
283.8868856911
 20
149.2506640738
 30
0.0
 11
290.606886569
 21
149.2506640738
 31
0.0
  0
LINE
  5
1F3
  8
0
  6
CONTINUOUS
 62
     7
 10
86.2797777281
 20
104.2540170829
 30
0.0
 11
95.3997763917
 21
104.2540170829
 31
0.0
  0
LINE
  5
1F4
  8
0
  6
CONTINUOUS
 62
     7
 10
86.2797777281
 20
109.0540182422
 30
0.0
 11
86.2797777281
 21
104.2540170829
 31
0.0
  0
LINE
  5
1F5
  8
0
  6
CONTINUOUS
 62
     7
 10
95.3997763917
 20
109.0540182422
 30
0.0
 11
86.2797777281
 21
109.0540182422
 31
0.0
  0
LINE
  5
1F6
  8
0
  6
CONTINUOUS
 62
     7
 10
95.3997763917
 20
104.2540170829
 30
0.0
 11
95.3997763917
 21
109.0540182422
 31
0.0
  0
LINE
  5
1F7
  8
0
  6
CONTINUOUS
 62
     7
 10
110.0997756347
 20
45.7740188222
 30
0.0
 11
125.0997764636
 21
45.7740188222
 31
0.0
  0
LINE
  5
1F8
  8
0
  6
CONTINUOUS
 62
     7
 10
110.0997756347
 20
56.3740175794
 30
0.0
 11
110.0997756347
 21
45.7740188222
 31
0.0
  0
LINE
  5
1F9
  8
0
  6
CONTINUOUS
 62
     7
 10
125.0997764636
 20
56.3740175794
 30
0.0
 11
110.0997756347
 21
56.3740175794
 31
0.0
  0
LINE
  5
1FA
  8
0
  6
CONTINUOUS
 62
     7
 10
125.0997764636
 20
45.7740188222
 30
0.0
 11
125.0997764636
 21
56.3740175794
 31
0.0
  0
LINE
  5
1FB
  8
0
  6
CONTINUOUS
 62
     7
 10
74.0597750172
 20
80.8540179505
 30
0.0
 11
74.0597750172
 21
48.0540175568
 31
0.0
  0
LINE
  5
1FC
  8
0
  6
CONTINUOUS
 62
     7
 10
105.7597770468
 20
80.8540179505
 30
0.0
 11
74.0597750172
 21
80.8540179505
 31
0.0
  0
LINE
  5
1FD
  8
0
  6
CONTINUOUS
 62
     7
 10
105.7597770468
 20
48.0540175568
 30
0.0
 11
105.7597770468
 21
80.8540179505
 31
0.0
  0
LINE
  5
1FE
  8
0
  6
CONTINUOUS
 62
     7
 10
74.0597750172
 20
48.0540175568
 30
0.0
 11
105.7597770468
 21
48.0540175568
 31
0.0
  0
CIRCLE
  5
1FF
  8
0
  6
CONTINUOUS
 62
     7
 10
191.6797763798
 20
71.8530936466
 30
0.0
 40
1.699999999999989
  0
CIRCLE
  5
200
  8
0
  6
CONTINUOUS
 62
     7
 10
191.6797763798
 20
79.5530936466
 30
0.0
 40
1.700000000000003
  0
CIRCLE
  5
201
  8
0
  6
CONTINUOUS
 62
     7
 10
192.4397763798
 20
97.8930936466
 30
0.0
 40
2.0
  0
CIRCLE
  5
202
  8
0
  6
CONTINUOUS
 62
     7
 10
192.4397763798
 20
55.9930936466
 30
0.0
 40
1.999999999999993
  0
LINE
  5
203
  8
0
  6
CONTINUOUS
 62
     7
 10
59.6997755692
 20
52.8540187161
 30
0.0
 11
59.6997755692
 21
101.4540181141
 31
0.0
  0
LINE
  5
204
  8
0
  6
CONTINUOUS
 62
     7
 10
59.6997755692
 20
101.4540181141
 30
0.0
 11
67.6997768805
 21
109.0540182422
 31
0.0
  0
LINE
  5
205
  8
0
  6
CONTINUOUS
 62
     7
 10
67.6997768805
 20
109.0540182422
 30
0.0
 11
86.2797777281
 21
109.0540182422
 31
0.0
  0
LINE
  5
206
  8
0
  6
CONTINUOUS
 62
     7
 10
95.3997763917
 20
109.0540182422
 30
0.0
 11
152.9997772649
 21
109.0540182422
 31
0.0
  0
LINE
  5
207
  8
0
  6
CONTINUOUS
 62
     7
 10
152.9997772649
 20
109.0540182422
 30
0.0
 11
194.5997792408
 21
102.3340173643
 31
0.0
  0
LINE
  5
208
  8
0
  6
CONTINUOUS
 62
     7
 10
64.4997748658
 20
48.0540175568
 30
0.0
 11
59.6997755692
 21
52.8540187161
 31
0.0
  0
LINE
  5
209
  8
0
  6
CONTINUOUS
 62
     7
 10
178.9997759387
 20
48.0540175568
 30
0.0
 11
125.0997764636
 21
48.0540175568
 31
0.0
  0
LINE
  5
20A
  8
0
  6
CONTINUOUS
 62
     7
 10
110.0997756347
 20
48.0540175568
 30
0.0
 11
105.7597770468
 21
48.0540175568
 31
0.0
  0
LINE
  5
20B
  8
0
  6
CONTINUOUS
 62
     7
 10
74.0597750172
 20
48.0540175568
 30
0.0
 11
64.4997748658
 21
48.0540175568
 31
0.0
  0
LINE
  5
20C
  8
0
  6
CONTINUOUS
 62
     7
 10
197.9997771904
 20
52.0540182124
 30
0.0
 11
178.9997759387
 21
48.0540175568
 31
0.0
  0
LINE
  5
20D
  8
0
  6
CONTINUOUS
 62
     7
 10
197.9997771904
 20
101.8540174346
 30
0.0
 11
197.9997771904
 21
52.0540182124
 31
0.0
  0
LINE
  5
20E
  8
0
  6
CONTINUOUS
 62
     7
 10
194.5997792408
 20
102.3340173643
 30
0.0
 11
197.9997771904
 21
101.8540174346
 31
0.0
  0
CIRCLE
  5
20F
  8
0
  6
CONTINUOUS
 62
     7
 10
66.0997763798
 20
90.3740178995
 30
0.0
 40
1.5
  0
CIRCLE
  5
210
  8
0
  6
CONTINUOUS
 62
     7
 10
66.0997763798
 20
97.4140178995
 30
0.0
 40
2.0
  0
CIRCLE
  5
211
  8
0
  6
CONTINUOUS
 62
     7
 10
192.4397763798
 20
63.0930936466
 30
0.0
 40
1.5
  0
INSERT
  5
21D
  8
0
  6
CONTINUOUS
 62
     7
  2
SW_CENTERMARKSYMBOL_7
 10
192.4397763798
 20
55.9930936466
 30
0.0
  0
INSERT
  5
229
  8
0
  6
CONTINUOUS
 62
     7
  2
SW_CENTERMARKSYMBOL_8
 10
192.4397763798
 20
97.8930936466
 30
0.0
  0
INSERT
  5
235
  8
0
  6
CONTINUOUS
 62
     7
  2
SW_CENTERMARKSYMBOL_9
 10
191.6797763798
 20
79.5530936466
 30
0.0
  0
INSERT
  5
241
  8
0
  6
CONTINUOUS
 62
     7
  2
SW_CENTERMARKSYMBOL_10
 10
191.6797763798
 20
71.8530936466
 30
0.0
  0
INSERT
  5
24D
  8
0
  6
CONTINUOUS
 62
     7
  2
SW_CENTERMARKSYMBOL_11
 10
192.4397763798
 20
63.0930936466
 30
0.0
  0
INSERT
  5
259
  8
0
  6
CONTINUOUS
 62
     7
  2
SW_CENTERMARKSYMBOL_12
 10
66.0997763798
 20
97.4140178995
 30
0.0
  0
INSERT
  5
265
  8
0
  6
CONTINUOUS
 62
     7
  2
SW_CENTERMARKSYMBOL_13
 10
66.0997763798
 20
90.3740178995
 30
0.0
  0
INSERT
  5
271
  8
0
  6
CONTINUOUS
 62
     7
  2
SW_CENTERMARKSYMBOL_14
 10
192.4397763798
 20
55.9930936466
 30
0.0
  0
INSERT
  5
27D
  8
0
  6
CONTINUOUS
 62
     7
  2
SW_CENTERMARKSYMBOL_15
 10
192.4397763798
 20
97.8930936466
 30
0.0
  0
INSERT
  5
289
  8
0
  6
CONTINUOUS
 62
     7
  2
SW_CENTERMARKSYMBOL_16
 10
191.6797763798
 20
79.5530936466
 30
0.0
  0
INSERT
  5
295
  8
0
  6
CONTINUOUS
 62
     7
  2
SW_CENTERMARKSYMBOL_17
 10
191.6797763798
 20
71.8530936466
 30
0.0
  0
INSERT
  5
2A1
  8
0
  6
CONTINUOUS
 62
     7
  2
SW_CENTERMARKSYMBOL_18
 10
192.4397763798
 20
63.0930936466
 30
0.0
  0
INSERT
  5
2AD
  8
0
  6
CONTINUOUS
 62
     7
  2
SW_CENTERMARKSYMBOL_19
 10
66.0997763798
 20
97.4140178995
 30
0.0
  0
INSERT
  5
2B9
  8
0
  6
CONTINUOUS
 62
     7
  2
SW_CENTERMARKSYMBOL_20
 10
66.0997763798
 20
90.3740178995
 30
0.0
  0
ENDSEC
  0
EOF
